<svg xmlns="http://www.w3.org/2000/svg" viewBox="0 0 416.96 281.6"><defs><style>.a{isolation:isolate;}.b{fill:#f9b219;}.c{fill:#fec81a;}.d{fill:#f39f07;}.e{fill:#ef7a23;}.f{fill:#f28d24;}.g{fill:#009fe3;}.h{opacity:0.1;mix-blend-mode:overlay;}.i{fill:#1d1d1b;}.j{fill:#fed27a;}</style></defs><g class="a"><polygon class="b" points="90.2 137.46 106.34 127.96 83.19 122.87 90.2 137.46"/><polygon class="c" points="337.64 167.78 360.25 207.4 366.61 153.89 337.64 167.78"/><polygon class="c" points="301.65 186.86 296.73 232.31 322.64 216.73 301.65 186.86"/><polygon class="d" points="53.06 77.05 54.92 91.55 71.42 99.86 53.06 77.05"/><polygon class="b" points="187.75 105.05 161.99 112.31 177.27 128.76 211.52 165.71 196.57 127.55 187.75 105.05"/><polygon class="b" points="111.19 86.39 85.03 82.17 91.91 98.59 111.19 86.39"/><polygon class="b" points="137.25 30.8 146.54 14.94 127.96 19.18 137.25 30.8"/><polygon class="d" points="357.71 106.9 396.91 101.62 363.8 75.71 357.71 106.9"/><polygon class="d" points="85.03 82.17 111.19 86.39 95.51 73.47 78.57 59.48 49.93 35.9 49.93 35.92 70.92 79.9 85.03 82.17"/><path class="b" d="M68.76,280.19a65.61,65.61,0,0,1-6.68,1.05A58.9,58.9,0,0,0,68.76,280.19Z"/><polygon class="c" points="340.25 80.15 320.5 60.97 320.5 82.75 340.25 80.15"/><polygon class="e" points="272.46 11.55 260.63 31.41 292.08 35.67 272.46 11.55"/><polygon class="e" points="320.5 60.97 260.63 31.41 293.03 59.48 320.5 60.97"/><polygon class="f" points="247.37 112.29 259.84 136.85 271.46 82.75 247.37 112.29"/><path class="e" d="M0,249.22q12.75,16.95,27.2,24.93l41.93-24.93Z"/><polygon class="c" points="81.73 105.05 107.74 115.97 111.19 86.39 91.91 98.59 81.73 105.05"/><polygon class="g" points="338.39 143.63 338.39 143.65 338.41 143.63 338.39 143.63"/><polygon class="b" points="12.97 153.72 5.39 209.47 23.55 193.63 12.97 153.72"/><polygon class="b" points="103.66 51.27 103.66 51.3 111.19 86.39 135.58 62.26 103.66 51.27"/><polygon class="b" points="259.84 136.85 247.37 112.29 239.69 144.6 234.67 165.71 259.84 136.88 259.84 136.85"/><polygon class="f" points="71.42 99.86 54.92 91.55 58.25 117.36 81.73 105.05 71.42 99.86"/><polygon class="c" points="86.6 220.36 69.13 249.22 120.7 230.96 86.62 220.36 86.6 220.36"/><polygon class="c" points="271.46 82.75 236.51 71.94 247.37 112.29 271.46 82.75"/><polygon class="e" points="416.96 249.22 412.04 212.98 369.54 234.57 416.96 249.22"/><polygon class="f" points="371.35 137.56 357.71 106.9 325.05 124.96 371.35 137.56"/><polygon class="d" points="323.26 10.58 308.88 28.41 342.51 24.68 323.26 10.58"/><polygon class="b" points="323.26 10.58 304.88 0 308.88 28.41 323.26 10.58"/><polygon class="f" points="71.42 99.86 81.73 105.05 91.91 98.59 71.42 99.86"/><polygon class="e" points="161.99 112.31 187.75 105.05 161.99 112.29 161.99 112.31"/><polygon class="b" points="106.34 160.25 142.46 165.71 106.34 127.96 106.34 160.25"/><path class="e" d="M46.08,280.82c-1.12-.19-2.21-.41-3.3-.66C43.87,280.43,45,280.65,46.08,280.82Z"/><polygon class="d" points="366.61 153.89 381.34 183.54 403.42 149.53 403.42 149.5 403.39 149.5 366.61 153.89"/><polygon class="c" points="61.11 210.62 105.18 182.64 79.59 165.17 69.61 189.73 61.11 210.62"/><polygon class="f" points="111.19 259.45 120.7 230.96 69.13 249.22 111.19 259.45"/><polygon class="e" points="292.11 35.67 315.01 38.77 308.88 28.41 292.11 35.67"/><polygon class="b" points="58.25 117.36 24.32 70.25 19.08 108.76 33.19 111.85 58.25 117.36"/><polygon class="f" points="103.66 51.27 137.25 30.8 111.19 30.8 103.66 51.27"/><path class="d" d="M365,281.19a57.52,57.52,0,0,0,6.39-.81,58.35,58.35,0,0,0,6.3-1.53c1.42-.42,2.84-.9,4.23-1.44.67-.27,1.34-.54,2-.83s1.31-.56,1.93-.88a68.22,68.22,0,0,0,6.11-3.28c.6-.35,1.17-.71,1.74-1.1s.87-.56,1.29-.85l1.2-.81c.59-.44,1.21-.88,1.81-1.34,0-.05.1-.07.15-.12l-20.67,2.07Z"/><polygon class="d" points="257.73 165.71 274.5 165.71 259.84 136.88 257.73 165.71"/><polygon class="d" points="98 0 76.71 0 77.7 10.79 98 0"/><polygon class="d" points="135.58 62.26 180.45 71.94 137.25 30.8 135.58 62.26"/><polygon class="b" points="371.35 137.56 403.39 149.48 381.34 115.63 371.35 137.56"/><polygon class="e" points="70.05 33.29 70.03 33.29 70.03 33.26 64.51 16.35 49.93 35.9 78.57 59.48 70.05 33.29"/><polygon class="f" points="315.01 38.77 320.5 60.97 332.87 52.32 315.01 38.77"/><polygon class="c" points="293.03 59.48 271.46 82.75 320.5 82.75 293.03 59.48"/><polygon class="d" points="127.96 19.18 137.65 0 110.05 12.79 127.96 19.18"/><polygon class="c" points="259.84 136.88 274.5 165.71 276.95 127.96 259.84 136.88"/><polygon class="c" points="369.54 234.57 331.85 274.8 331.88 274.8 388.37 261.11 369.54 234.57"/><polygon class="d" points="187.75 105.05 180.45 71.94 167.21 100.03 187.75 105.05"/><polygon class="e" points="301.65 102.32 309.84 148.92 325.05 124.96 301.65 102.32"/><polygon class="c" points="137.25 30.8 127.96 19.18 111.19 30.8 137.25 30.8"/><polygon class="c" points="54.92 91.55 53.06 77.05 24.32 70.25 58.25 117.36 54.92 91.55"/><polygon class="e" points="340.25 80.15 363.8 75.71 392.64 70.25 358.36 54.95 340.25 80.15"/><polygon class="e" points="259.84 136.85 259.84 136.88 276.95 127.96 271.46 82.75 259.84 136.85"/><polygon class="e" points="154.14 133.78 170.31 165.71 177.27 128.76 154.14 133.78"/><polygon class="b" points="358.36 54.95 364.69 32.78 342.51 24.68 358.36 54.95"/><polygon class="b" points="331.88 274.8 377.46 270.27 398.13 268.2 388.37 261.11 331.88 274.8"/><polygon class="f" points="34.45 56.66 24.32 70.25 53.06 77.05 34.45 56.66"/><polygon class="e" points="180.45 71.94 146.54 14.94 137.25 30.8 180.45 71.94"/><polygon class="c" points="146.54 14.94 137.65 0 127.96 19.18 146.54 14.94"/><polygon class="c" points="77.7 10.79 70.03 33.26 70.03 33.29 70.05 33.29 98.94 17.93 77.7 10.79"/><polygon class="d" points="315.18 250.46 360.25 207.4 322.64 216.73 305.77 259.45 315.16 250.46 315.18 250.46"/><polygon class="e" points="196.57 127.55 211.52 165.71 239.69 144.6 196.57 127.55"/><polygon class="e" points="338.39 143.65 337.64 167.78 366.61 153.89 338.41 143.63 338.39 143.65"/><polygon class="e" points="381.34 115.63 357.71 106.9 371.35 137.56 381.34 115.63"/><polygon class="f" points="294.96 155.98 309.84 148.92 276.95 127.96 274.5 165.71 294.94 155.98 294.96 155.98"/><path class="e" d="M331.88,274.8c11.45,4.95,22.5,7.12,33.11,6.39l12.47-10.92Z"/><polygon class="e" points="296.73 232.31 305.77 259.45 322.64 216.73 296.73 232.31"/><path class="e" d="M41,279.73a62.15,62.15,0,0,1-7-2.34A52,52,0,0,0,41,279.73Z"/><polygon class="c" points="309.84 148.92 294.96 155.98 337.64 167.78 309.84 148.92"/><polygon class="e" points="86.62 220.36 120.7 230.96 128.93 206.28 115.91 210.62 86.62 220.36"/><polygon class="c" points="49.93 35.92 34.45 56.66 53.06 77.05 49.93 35.92"/><polygon class="c" points="403.39 149.48 396.91 101.62 381.34 115.63 403.39 149.48"/><polygon class="b" points="322.64 216.73 360.25 207.4 301.65 186.86 322.64 216.73"/><polygon class="f" points="62.72 153.67 49.01 171.43 79.59 165.17 62.72 153.67"/><polygon class="b" points="44.02 134.42 62.72 153.67 58.25 117.36 44.02 134.42"/><polygon class="d" points="86.62 220.36 115.91 210.62 102.27 197.6 86.6 220.36 86.62 220.36"/><polygon class="e" points="358.36 54.95 342.51 24.68 332.87 52.32 358.36 54.95"/><polygon class="e" points="152.7 114.92 161.99 112.31 161.99 112.29 152.7 114.92"/><polygon class="b" points="103.66 51.27 111.19 30.8 82.13 38.62 95.51 73.47 103.66 51.3 103.66 51.27"/><polygon class="d" points="369.54 234.57 412.04 212.98 360.25 207.4 369.54 234.57"/><polygon class="d" points="260.63 31.41 236.51 71.94 293.03 59.48 260.63 31.41"/><polygon class="d" points="170.31 165.71 211.52 165.71 177.27 128.76 170.31 165.71"/><polygon class="c" points="325.05 124.96 357.71 106.9 320.5 82.75 325.05 124.96"/><polygon class="c" points="108.8 164.1 108.78 164.07 92.93 158.22 105.2 182.62 108.8 164.1"/><polygon class="b" points="46.13 233.86 46.16 233.84 46.13 233.84 46.13 233.86"/><polygon class="b" points="110.05 12.79 98.94 17.93 127.96 19.18 110.05 12.79"/><polygon class="e" points="98.94 17.93 70.05 33.29 82.13 38.62 98.94 17.93"/><polygon class="e" points="85.03 82.17 70.92 79.9 53.06 77.05 71.42 99.86 85.03 82.17"/><polygon class="d" points="70.05 33.29 78.57 59.48 82.13 38.62 70.05 33.29"/><polygon class="e" points="118.94 0 98 0 98.94 17.93 118.94 0"/><polygon class="f" points="320.5 60.97 293.03 59.48 320.5 82.75 320.5 60.97"/><polygon class="c" points="44.02 134.42 19.08 108.76 12.99 153.67 62.72 153.67 44.02 134.42"/><path class="b" d="M27.2,274.15c1.12.63,2.26,1.21,3.38,1.73s2.28,1,3.43,1.51a62.15,62.15,0,0,0,7,2.34l1.79.43c1.09.25,2.18.47,3.3.66.7.12,1.39.22,2.11.32,1.17.15,2.34.27,3.53.34s2.56.12,3.87.12c1,0,2,0,3.06-.1a1.72,1.72,0,0,0,.32,0c1.05-.05,2.06-.12,3.11-.24a65.61,65.61,0,0,0,6.68-1.05c1-.22,2-.44,3.06-.71s2-.53,3.08-.85l-5.77-29.41Z"/><polygon class="f" points="196.57 127.55 247.37 112.29 187.75 105.05 196.57 127.55"/><path class="b" d="M71.82,279.48c-1,.27-2,.49-3.06.71C69.78,280,70.8,279.75,71.82,279.48Z"/><polygon class="f" points="108.8 164.1 105.2 182.62 105.2 182.64 102.27 197.6 139.26 175.31 108.78 164.07 108.8 164.1"/><polygon class="f" points="409.16 191.8 403.42 149.53 381.34 183.54 409.16 191.8"/><path class="b" d="M305.77,259.45a131.93,131.93,0,0,0,26.06,15.33l-16.67-24.32Z"/><polygon class="f" points="83.19 122.87 58.25 117.36 90.2 137.46 83.19 122.87"/><polygon class="e" points="49.01 171.43 23.55 193.63 5.39 209.47 37.86 195.46 49.01 171.43"/><polygon class="d" points="342.51 24.68 315.01 38.77 332.87 52.32 342.51 24.68"/><polygon class="f" points="308.88 28.41 315.01 38.77 342.51 24.68 308.88 28.41"/><polygon class="c" points="315.01 38.77 292.11 35.67 292.08 35.67 260.63 31.41 320.5 60.97 315.01 38.77"/><polygon class="f" points="177.27 128.76 161.99 112.31 154.14 133.78 177.27 128.76"/><polygon class="f" points="381.34 115.63 396.91 101.62 357.71 106.9 381.34 115.63"/><polygon class="e" points="58.25 117.36 62.72 153.67 90.2 137.46 58.25 117.36"/><polygon class="b" points="388.37 261.11 416.96 249.22 369.54 234.57 388.37 261.11"/><path class="e" d="M371.38,280.38a57.52,57.52,0,0,1-6.39.81A56.93,56.93,0,0,0,371.38,280.38Z"/><polygon class="e" points="234.67 165.71 257.73 165.71 259.84 136.88 234.67 165.71"/><polygon class="b" points="293.03 59.48 236.51 71.94 271.46 82.75 293.03 59.48"/><polygon class="b" points="304.88 0 279.31 0 297.47 17.45 304.88 0"/><polygon class="b" points="142.46 94.01 180.45 71.94 142.76 79.81 142.46 94.01"/><path class="e" d="M377.68,278.85a58.35,58.35,0,0,1-6.3,1.53A46.25,46.25,0,0,0,377.68,278.85Z"/><polygon class="e" points="95.51 73.47 111.19 86.39 103.66 51.3 95.51 73.47"/><polygon class="f" points="5.39 209.47 0 249.22 46.1 233.86 5.39 209.47"/><polygon class="c" points="78.57 59.48 95.51 73.47 82.13 38.62 78.57 59.48"/><polygon class="e" points="274.5 165.71 296.73 232.31 301.65 186.86 274.5 165.71"/><polygon class="b" points="340.25 80.15 358.36 54.95 332.87 52.32 340.25 80.15"/><polygon class="e" points="364.69 32.78 340.25 0 342.51 24.68 364.69 32.78"/><polygon class="c" points="135.58 62.26 137.25 30.8 103.66 51.27 135.58 62.26"/><polygon class="c" points="366.61 153.89 403.39 149.5 403.39 149.48 371.35 137.56 366.61 153.89"/><polygon class="d" points="46.13 233.84 37.86 195.46 5.39 209.47 46.1 233.86 46.13 233.84"/><polygon class="f" points="357.71 106.9 363.8 75.71 340.25 80.15 320.5 82.75 357.71 106.9"/><polygon class="b" points="338.39 143.65 309.84 148.92 337.64 167.78 338.39 143.65"/><polygon class="b" points="301.65 102.32 325.05 124.96 320.5 82.75 301.65 102.32"/><polygon class="b" points="86.6 220.36 102.27 197.6 61.11 210.62 86.6 220.36"/><polygon class="b" points="294.94 155.98 274.5 165.71 301.65 186.86 294.94 155.98"/><polygon class="d" points="294.96 155.98 294.94 155.98 301.65 186.86 337.64 167.78 294.96 155.98"/><path class="c" d="M388.37,261.11l9.76,7.09a102.92,102.92,0,0,0,18.83-19Z"/><polygon class="c" points="167.21 100.03 180.45 71.94 142.46 94.01 167.21 100.03"/><polygon class="f" points="320.5 82.75 271.46 82.75 276.95 127.96 301.65 102.32 320.5 82.75"/><polygon class="f" points="211.52 165.71 234.67 165.71 239.69 144.6 211.52 165.71"/><polygon class="e" points="61.11 210.62 102.27 197.6 105.2 182.64 105.18 182.64 61.11 210.62"/><polygon class="f" points="107.74 115.97 106.34 127.96 152.67 114.92 111.19 86.39 107.74 115.97"/><polygon class="c" points="49.01 171.43 37.86 195.46 69.61 189.73 49.01 171.43"/><polygon class="e" points="236.51 71.94 180.45 71.94 187.75 105.05 236.51 71.94"/><polygon class="e" points="142.46 94.01 111.19 86.39 152.67 114.92 152.7 114.92 161.99 112.29 187.75 105.05 167.21 100.03 142.46 94.01"/><path class="e" d="M34,277.39c-1.15-.47-2.29-1-3.43-1.51C31.72,276.44,32.84,277,34,277.39Z"/><polygon class="c" points="76.71 0 64.54 16.3 77.7 10.79 76.71 0"/><polygon class="d" points="338.39 143.63 338.41 143.63 371.35 137.56 325.05 124.96 309.84 148.92 338.39 143.65 338.39 143.63"/><polygon class="f" points="279.31 0 272.46 11.55 292.08 35.67 279.31 0"/><polygon class="d" points="292.11 35.67 308.88 28.41 297.47 17.45 279.31 0 292.08 35.67 292.11 35.67"/><polygon class="d" points="111.19 30.8 98.94 17.93 82.13 38.62 111.19 30.8"/><polygon class="e" points="111.19 86.39 142.76 79.81 180.45 71.94 135.58 62.26 111.19 86.39"/><polygon class="b" points="366.61 153.89 360.25 207.4 381.34 183.54 366.61 153.89"/><polygon class="b" points="115.91 210.62 139.26 175.31 102.27 197.6 115.91 210.62"/><polygon class="d" points="33.19 111.85 44.02 134.42 58.25 117.36 33.19 111.85"/><polygon class="d" points="77.7 10.79 64.54 16.3 64.51 16.35 70.03 33.26 77.7 10.79"/><polygon class="g" points="403.42 149.5 403.39 149.48 403.39 149.5 403.42 149.5"/><polygon class="e" points="127.96 19.18 98.94 17.93 111.19 30.8 127.96 19.18"/><polygon class="b" points="62.72 153.67 12.99 153.67 49.01 171.43 62.72 153.67"/><polygon class="c" points="392.64 70.25 364.69 32.78 358.36 54.95 392.64 70.25"/><polygon class="b" points="396.91 101.62 392.64 70.25 363.8 75.71 396.91 101.62"/><polygon class="b" points="83.19 122.87 107.74 115.97 81.73 105.05 83.19 122.87"/><polygon class="e" points="360.25 207.4 409.16 191.8 381.34 183.54 360.25 207.4"/><polygon class="f" points="98.94 17.93 98 0 77.7 10.79 98.94 17.93"/><polygon class="c" points="161.99 112.31 152.7 114.92 152.67 114.92 106.34 127.96 142.46 165.71 154.14 133.78 161.99 112.31"/><polygon class="e" points="315.18 250.46 369.54 234.57 360.25 207.4 315.18 250.46"/><polygon class="d" points="79.59 165.17 49.01 171.43 69.61 189.73 79.59 165.17"/><polygon class="g" points="64.51 16.33 64.51 16.35 64.54 16.3 64.51 16.33"/><polygon class="c" points="412.04 212.98 409.16 191.8 360.25 207.4 412.04 212.98"/><polygon class="b" points="247.37 112.29 236.51 71.94 187.75 105.05 247.37 112.29"/><path class="b" d="M62.08,281.24c-1,.12-2.06.19-3.11.24C60,281.46,61,281.36,62.08,281.24Z"/><polygon class="d" points="239.69 144.6 247.37 112.29 196.57 127.55 239.69 144.6"/><polygon class="e" points="37.86 195.46 46.13 233.84 46.16 233.84 61.11 210.62 37.86 195.46"/><polygon class="e" points="301.65 186.86 360.25 207.4 337.64 167.78 301.65 186.86"/><polygon class="f" points="142.76 79.81 111.19 86.39 142.46 94.01 142.76 79.81"/><polygon class="b" points="142.46 165.71 170.31 165.71 154.14 133.78 142.46 165.71"/><polygon class="f" points="62.72 153.67 92.93 158.22 106.34 160.25 106.34 127.96 90.2 137.46 62.72 153.67"/><polygon class="d" points="276.95 127.96 309.84 148.92 301.65 102.32 276.95 127.96"/><polygon class="f" points="366.61 153.89 371.35 137.56 338.41 143.63 366.61 153.89"/><polygon class="f" points="315.18 250.46 315.16 250.46 331.83 274.78 331.85 274.8 369.54 234.57 315.18 250.46"/><polygon class="e" points="33.19 111.85 19.08 108.76 44.02 134.42 33.19 111.85"/><polygon class="d" points="83.19 122.87 106.34 127.96 107.74 115.97 83.19 122.87"/><path class="d" d="M395,270.47c-.42.29-.87.58-1.29.85C394.1,271.05,394.53,270.78,395,270.47Z"/><polygon class="f" points="110.05 12.79 137.65 0 118.94 0 98.94 17.93 110.05 12.79"/><polygon class="e" points="79.59 165.17 105.18 182.64 105.2 182.64 105.2 182.62 92.93 158.22 62.72 153.67 79.59 165.17"/><polygon class="d" points="49.01 171.43 12.99 153.67 12.97 153.72 23.55 193.63 49.01 171.43"/><polygon class="c" points="91.91 98.59 85.03 82.17 71.42 99.86 91.91 98.59"/><polygon class="d" points="332.87 52.32 320.5 60.97 340.25 80.15 332.87 52.32"/><polygon class="d" points="81.73 105.05 58.25 117.36 83.19 122.87 81.73 105.05"/><polygon class="e" points="92.93 158.22 108.78 164.07 139.26 175.31 142.46 165.71 106.34 160.25 92.93 158.22"/><polygon class="f" points="308.88 28.41 304.88 0 297.47 17.45 308.88 28.41"/><polygon class="c" points="128.93 206.28 139.26 175.31 115.91 210.62 128.93 206.28"/><path class="d" d="M74.9,278.63c10.94-2.76,35.08-15.74,36.29-19.18L69.13,249.22Z"/><polygon class="c" points="340.25 0 304.88 0 323.26 10.58 340.25 0"/><polygon class="f" points="70.92 79.9 49.93 35.92 53.06 77.05 70.92 79.9"/><polygon class="b" points="342.51 24.68 340.25 0 323.26 10.58 342.51 24.68"/><polygon class="d" points="46.16 233.84 86.6 220.36 61.11 210.62 46.16 233.84"/><polygon class="b" points="86.6 220.36 46.16 233.84 46.13 233.86 46.1 233.86 0 249.22 69.13 249.22 86.6 220.36"/><polygon class="b" points="46.1 233.86 46.13 233.86 46.13 233.84 46.1 233.86"/><polygon class="b" points="69.61 189.73 37.86 195.46 61.11 210.62 69.61 189.73"/><g class="h"><polygon class="i" points="90.2 137.46 106.34 127.96 83.19 122.87 90.2 137.46"/><polygon class="i" points="337.64 167.78 360.25 207.4 366.61 153.89 337.64 167.78"/><polygon class="i" points="301.65 186.86 296.73 232.31 322.64 216.73 301.65 186.86"/><polygon class="i" points="53.06 77.05 54.92 91.55 71.42 99.86 53.06 77.05"/><polygon class="i" points="187.75 105.05 161.99 112.31 177.27 128.76 211.52 165.71 196.57 127.55 187.75 105.05"/><polygon class="i" points="111.19 86.39 85.03 82.17 91.91 98.59 111.19 86.39"/><polygon class="i" points="137.25 30.8 146.54 14.94 127.96 19.18 137.25 30.8"/><polygon class="i" points="357.71 106.9 396.91 101.62 363.8 75.71 357.71 106.9"/><polygon class="i" points="85.03 82.17 111.19 86.39 95.51 73.47 78.57 59.48 49.93 35.9 49.93 35.92 70.92 79.9 85.03 82.17"/><path class="i" d="M68.76,280.19a65.61,65.61,0,0,1-6.68,1.05A58.9,58.9,0,0,0,68.76,280.19Z"/><polygon class="i" points="340.25 80.15 320.5 60.97 320.5 82.75 340.25 80.15"/><polygon class="i" points="272.46 11.55 260.63 31.41 292.08 35.67 272.46 11.55"/><polygon class="i" points="320.5 60.97 260.63 31.41 293.03 59.48 320.5 60.97"/><polygon class="i" points="247.37 112.29 259.84 136.85 271.46 82.75 247.37 112.29"/><path class="i" d="M0,249.22q12.75,16.95,27.2,24.93l41.93-24.93Z"/><polygon class="i" points="81.73 105.05 107.74 115.97 111.19 86.39 91.91 98.59 81.73 105.05"/><polygon class="i" points="338.39 143.63 338.39 143.65 338.41 143.63 338.39 143.63"/><polygon class="i" points="12.97 153.72 5.39 209.47 23.55 193.63 12.97 153.72"/><polygon class="i" points="103.66 51.27 103.66 51.3 111.19 86.39 135.58 62.26 103.66 51.27"/><polygon class="i" points="259.84 136.85 247.37 112.29 239.69 144.6 234.67 165.71 259.84 136.88 259.84 136.85"/><polygon class="i" points="71.42 99.86 54.92 91.55 58.25 117.36 81.73 105.05 71.42 99.86"/><polygon class="i" points="86.6 220.36 69.13 249.22 120.7 230.96 86.62 220.36 86.6 220.36"/><polygon class="i" points="271.46 82.75 236.51 71.94 247.37 112.29 271.46 82.75"/><polygon class="i" points="416.96 249.22 412.04 212.98 369.54 234.57 416.96 249.22"/><polygon class="i" points="371.35 137.56 357.71 106.9 325.05 124.96 371.35 137.56"/><polygon class="i" points="323.26 10.58 308.88 28.41 342.51 24.68 323.26 10.58"/><polygon class="i" points="323.26 10.58 304.88 0 308.88 28.41 323.26 10.58"/><polygon class="i" points="71.42 99.86 81.73 105.05 91.91 98.59 71.42 99.86"/><polygon class="i" points="161.99 112.31 187.75 105.05 161.99 112.29 161.99 112.31"/><polygon class="i" points="106.34 160.25 142.46 165.71 106.34 127.96 106.34 160.25"/><path class="i" d="M46.08,280.82c-1.12-.19-2.21-.41-3.3-.66C43.87,280.43,45,280.65,46.08,280.82Z"/><polygon class="i" points="366.61 153.89 381.34 183.54 403.42 149.53 403.42 149.5 403.39 149.5 366.61 153.89"/><polygon class="i" points="61.11 210.62 105.18 182.64 79.59 165.17 69.61 189.73 61.11 210.62"/><polygon class="i" points="111.19 259.45 120.7 230.96 69.13 249.22 111.19 259.45"/><polygon class="i" points="292.11 35.67 315.01 38.77 308.88 28.41 292.11 35.67"/><polygon class="i" points="58.25 117.36 24.32 70.25 19.08 108.76 33.19 111.85 58.25 117.36"/><polygon class="i" points="103.66 51.27 137.25 30.8 111.19 30.8 103.66 51.27"/><path class="i" d="M365,281.19a57.52,57.52,0,0,0,6.39-.81,58.35,58.35,0,0,0,6.3-1.53c1.42-.42,2.84-.9,4.23-1.44.67-.27,1.34-.54,2-.83s1.31-.56,1.93-.88a68.22,68.22,0,0,0,6.11-3.28c.6-.35,1.17-.71,1.74-1.1s.87-.56,1.29-.85l1.2-.81c.59-.44,1.21-.88,1.81-1.34,0-.05.1-.07.15-.12l-20.67,2.07Z"/><polygon class="i" points="257.73 165.71 274.5 165.71 259.84 136.88 257.73 165.71"/><polygon class="i" points="98 0 76.71 0 77.7 10.79 98 0"/><polygon class="i" points="135.58 62.26 180.45 71.94 137.25 30.8 135.58 62.26"/><polygon class="i" points="371.35 137.56 403.39 149.48 381.34 115.63 371.35 137.56"/><polygon class="i" points="70.05 33.29 70.03 33.29 70.03 33.26 64.51 16.35 49.93 35.9 78.57 59.48 70.05 33.29"/><polygon class="i" points="315.01 38.77 320.5 60.97 332.87 52.32 315.01 38.77"/><polygon class="i" points="293.03 59.48 271.46 82.75 320.5 82.75 293.03 59.48"/><polygon class="i" points="127.96 19.18 137.65 0 110.05 12.79 127.96 19.18"/><polygon class="i" points="259.84 136.88 274.5 165.71 276.95 127.96 259.84 136.88"/><polygon class="i" points="369.54 234.57 331.85 274.8 331.88 274.8 388.37 261.11 369.54 234.57"/><polygon class="i" points="187.75 105.05 180.45 71.94 167.21 100.03 187.75 105.05"/><polygon class="i" points="301.65 102.32 309.84 148.92 325.05 124.96 301.65 102.32"/><polygon class="i" points="137.25 30.8 127.96 19.18 111.19 30.8 137.25 30.8"/><polygon class="i" points="54.92 91.55 53.06 77.05 24.32 70.25 58.25 117.36 54.92 91.55"/><polygon class="i" points="340.25 80.15 363.8 75.71 392.64 70.25 358.36 54.95 340.25 80.15"/><polygon class="i" points="259.84 136.85 259.84 136.88 276.95 127.96 271.46 82.75 259.84 136.85"/><polygon class="i" points="154.14 133.78 170.31 165.71 177.27 128.76 154.14 133.78"/><polygon class="i" points="358.36 54.95 364.69 32.78 342.51 24.68 358.36 54.95"/><polygon class="i" points="331.88 274.8 377.46 270.27 398.13 268.2 388.37 261.11 331.88 274.8"/><polygon class="i" points="34.45 56.66 24.32 70.25 53.06 77.05 34.45 56.66"/><polygon class="i" points="180.45 71.94 146.54 14.94 137.25 30.8 180.45 71.94"/><polygon class="i" points="146.54 14.94 137.65 0 127.96 19.18 146.54 14.94"/><polygon class="i" points="77.7 10.79 70.03 33.26 70.03 33.29 70.05 33.29 98.94 17.93 77.7 10.79"/><polygon class="i" points="315.18 250.46 360.25 207.4 322.64 216.73 305.77 259.45 315.16 250.46 315.18 250.46"/><polygon class="i" points="196.57 127.55 211.52 165.71 239.69 144.6 196.57 127.55"/><polygon class="i" points="338.39 143.65 337.64 167.78 366.61 153.89 338.41 143.63 338.39 143.65"/><polygon class="i" points="381.34 115.63 357.71 106.9 371.35 137.56 381.34 115.63"/><polygon class="i" points="294.96 155.98 309.84 148.92 276.95 127.96 274.5 165.71 294.94 155.98 294.96 155.98"/><path class="i" d="M331.88,274.8c11.45,4.95,22.5,7.12,33.11,6.39l12.47-10.92Z"/><polygon class="i" points="296.73 232.31 305.77 259.45 322.64 216.73 296.73 232.31"/><path class="i" d="M41,279.73a62.15,62.15,0,0,1-7-2.34A52,52,0,0,0,41,279.73Z"/><polygon class="i" points="309.84 148.92 294.96 155.98 337.64 167.78 309.84 148.92"/><polygon class="i" points="86.62 220.36 120.7 230.96 128.93 206.28 115.91 210.62 86.62 220.36"/><polygon class="i" points="49.93 35.92 34.45 56.66 53.06 77.05 49.93 35.92"/><polygon class="i" points="403.39 149.48 396.91 101.62 381.34 115.63 403.39 149.48"/><polygon class="i" points="322.64 216.73 360.25 207.4 301.65 186.86 322.64 216.73"/><polygon class="i" points="62.72 153.67 49.01 171.43 79.59 165.17 62.72 153.67"/><polygon class="i" points="44.02 134.42 62.72 153.67 58.25 117.36 44.02 134.42"/><polygon class="i" points="86.62 220.36 115.91 210.62 102.27 197.6 86.6 220.36 86.62 220.36"/><polygon class="i" points="358.36 54.95 342.51 24.68 332.87 52.32 358.36 54.95"/><polygon class="i" points="152.7 114.92 161.99 112.31 161.99 112.29 152.7 114.92"/><polygon class="i" points="103.66 51.27 111.19 30.8 82.13 38.62 95.51 73.47 103.66 51.3 103.66 51.27"/><polygon class="i" points="369.54 234.57 412.04 212.98 360.25 207.4 369.54 234.57"/><polygon class="i" points="260.63 31.41 236.51 71.94 293.03 59.48 260.63 31.41"/><polygon class="i" points="170.31 165.71 211.52 165.71 177.27 128.76 170.31 165.71"/><polygon class="i" points="325.05 124.96 357.71 106.9 320.5 82.75 325.05 124.96"/><polygon class="i" points="108.8 164.1 108.78 164.07 92.93 158.22 105.2 182.62 108.8 164.1"/><polygon class="i" points="46.13 233.86 46.16 233.84 46.13 233.84 46.13 233.86"/><polygon class="i" points="110.05 12.79 98.94 17.93 127.96 19.18 110.05 12.79"/><polygon class="i" points="98.94 17.93 70.05 33.29 82.13 38.62 98.94 17.93"/><polygon class="i" points="85.03 82.17 70.92 79.9 53.06 77.05 71.42 99.86 85.03 82.17"/><polygon class="i" points="70.05 33.29 78.57 59.48 82.13 38.62 70.05 33.29"/><polygon class="i" points="118.94 0 98 0 98.94 17.93 118.94 0"/><polygon class="i" points="320.5 60.97 293.03 59.48 320.5 82.75 320.5 60.97"/><polygon class="i" points="44.02 134.42 19.08 108.76 12.99 153.67 62.72 153.67 44.02 134.42"/><path class="i" d="M27.2,274.15c1.12.63,2.26,1.21,3.38,1.73s2.28,1,3.43,1.51a62.15,62.15,0,0,0,7,2.34l1.79.43c1.09.25,2.18.47,3.3.66.7.12,1.39.22,2.11.32,1.17.15,2.34.27,3.53.34s2.56.12,3.87.12c1,0,2,0,3.06-.1a1.72,1.72,0,0,0,.32,0c1.05-.05,2.06-.12,3.11-.24a65.61,65.61,0,0,0,6.68-1.05c1-.22,2-.44,3.06-.71s2-.53,3.08-.85l-5.77-29.41Z"/><polygon class="i" points="196.57 127.55 247.37 112.29 187.75 105.05 196.57 127.55"/><path class="i" d="M71.82,279.48c-1,.27-2,.49-3.06.71C69.78,280,70.8,279.75,71.82,279.48Z"/><polygon class="i" points="108.8 164.1 105.2 182.62 105.2 182.64 102.27 197.6 139.26 175.31 108.78 164.07 108.8 164.1"/><polygon class="i" points="409.16 191.8 403.42 149.53 381.34 183.54 409.16 191.8"/><path class="i" d="M305.77,259.45a131.93,131.93,0,0,0,26.06,15.33l-16.67-24.32Z"/><polygon class="i" points="83.19 122.87 58.25 117.36 90.2 137.46 83.19 122.87"/><polygon class="i" points="49.01 171.43 23.55 193.63 5.39 209.47 37.86 195.46 49.01 171.43"/><polygon class="i" points="342.51 24.68 315.01 38.77 332.87 52.32 342.51 24.68"/><polygon class="i" points="308.88 28.41 315.01 38.77 342.51 24.68 308.88 28.41"/><polygon class="i" points="315.01 38.77 292.11 35.67 292.08 35.67 260.63 31.41 320.5 60.97 315.01 38.77"/><polygon class="i" points="177.27 128.76 161.99 112.31 154.14 133.78 177.27 128.76"/><polygon class="i" points="381.34 115.63 396.91 101.62 357.71 106.9 381.34 115.63"/><polygon class="i" points="58.25 117.36 62.72 153.67 90.2 137.46 58.25 117.36"/><polygon class="i" points="388.37 261.11 416.96 249.22 369.54 234.57 388.37 261.11"/><path class="i" d="M371.38,280.38a57.52,57.52,0,0,1-6.39.81A56.93,56.93,0,0,0,371.38,280.38Z"/><polygon class="i" points="234.67 165.71 257.73 165.71 259.84 136.88 234.67 165.71"/><polygon class="i" points="293.03 59.48 236.51 71.94 271.46 82.75 293.03 59.48"/><polygon class="i" points="304.88 0 279.31 0 297.47 17.45 304.88 0"/><polygon class="i" points="142.46 94.01 180.45 71.94 142.76 79.81 142.46 94.01"/><path class="i" d="M377.68,278.85a58.35,58.35,0,0,1-6.3,1.53A46.25,46.25,0,0,0,377.68,278.85Z"/><polygon class="i" points="95.51 73.47 111.19 86.39 103.66 51.3 95.51 73.47"/><polygon class="i" points="5.39 209.47 0 249.22 46.1 233.86 5.39 209.47"/><polygon class="i" points="78.57 59.48 95.51 73.47 82.13 38.62 78.57 59.48"/><polygon class="i" points="274.5 165.71 296.73 232.31 301.65 186.86 274.5 165.71"/><polygon class="i" points="340.25 80.15 358.36 54.95 332.87 52.32 340.25 80.15"/><polygon class="i" points="364.69 32.78 340.25 0 342.51 24.68 364.69 32.78"/><polygon class="i" points="135.58 62.26 137.25 30.8 103.66 51.27 135.58 62.26"/><polygon class="i" points="366.61 153.89 403.39 149.5 403.39 149.48 371.35 137.56 366.61 153.89"/><polygon class="i" points="46.13 233.84 37.86 195.46 5.39 209.47 46.1 233.86 46.13 233.84"/><polygon class="i" points="357.71 106.9 363.8 75.71 340.25 80.15 320.5 82.75 357.71 106.9"/><polygon class="i" points="338.39 143.65 309.84 148.92 337.64 167.78 338.39 143.65"/><polygon class="i" points="301.65 102.32 325.05 124.96 320.5 82.75 301.65 102.32"/><polygon class="i" points="86.6 220.36 102.27 197.6 61.11 210.62 86.6 220.36"/><polygon class="i" points="294.94 155.98 274.5 165.71 301.65 186.86 294.94 155.98"/><polygon class="i" points="294.96 155.98 294.94 155.98 301.65 186.86 337.64 167.78 294.96 155.98"/><path class="i" d="M388.37,261.11l9.76,7.09a102.92,102.92,0,0,0,18.83-19Z"/><polygon class="i" points="167.21 100.03 180.45 71.94 142.46 94.01 167.21 100.03"/><polygon class="i" points="320.5 82.75 271.46 82.75 276.95 127.96 301.65 102.32 320.5 82.75"/><polygon class="i" points="211.52 165.71 234.67 165.71 239.69 144.6 211.52 165.71"/><polygon class="i" points="61.11 210.62 102.27 197.6 105.2 182.64 105.18 182.64 61.11 210.62"/><polygon class="i" points="107.74 115.97 106.34 127.96 152.67 114.92 111.19 86.39 107.74 115.97"/><polygon class="i" points="49.01 171.43 37.86 195.46 69.61 189.73 49.01 171.43"/><polygon class="i" points="236.51 71.94 180.45 71.94 187.75 105.05 236.51 71.94"/><polygon class="i" points="142.46 94.01 111.19 86.39 152.67 114.92 152.7 114.92 161.99 112.29 187.75 105.05 167.21 100.03 142.46 94.01"/><path class="i" d="M34,277.39c-1.15-.47-2.29-1-3.43-1.51C31.72,276.44,32.84,277,34,277.39Z"/><polygon class="i" points="76.71 0 64.54 16.3 77.7 10.79 76.71 0"/><polygon class="i" points="338.39 143.63 338.41 143.63 371.35 137.56 325.05 124.96 309.84 148.92 338.39 143.65 338.39 143.63"/><polygon class="i" points="279.31 0 272.46 11.55 292.08 35.67 279.31 0"/><polygon class="i" points="292.11 35.67 308.88 28.41 297.47 17.45 279.31 0 292.08 35.67 292.11 35.67"/><polygon class="i" points="111.19 30.8 98.94 17.93 82.13 38.62 111.19 30.8"/><polygon class="i" points="111.19 86.39 142.76 79.81 180.45 71.94 135.58 62.26 111.19 86.39"/><polygon class="i" points="366.61 153.89 360.25 207.4 381.34 183.54 366.61 153.89"/><polygon class="i" points="115.91 210.62 139.26 175.31 102.27 197.6 115.91 210.62"/><polygon class="i" points="33.19 111.85 44.02 134.42 58.25 117.36 33.19 111.85"/><polygon class="i" points="77.7 10.79 64.54 16.3 64.51 16.35 70.03 33.26 77.7 10.79"/><polygon class="i" points="403.42 149.5 403.39 149.48 403.39 149.5 403.42 149.5"/><polygon class="i" points="127.96 19.18 98.94 17.93 111.19 30.8 127.96 19.18"/><polygon class="i" points="62.72 153.67 12.99 153.67 49.01 171.43 62.72 153.67"/><polygon class="i" points="392.64 70.25 364.69 32.78 358.36 54.95 392.64 70.25"/><polygon class="i" points="396.91 101.62 392.64 70.25 363.8 75.71 396.91 101.62"/><polygon class="i" points="83.19 122.87 107.74 115.97 81.73 105.05 83.19 122.87"/><polygon class="i" points="360.25 207.4 409.16 191.8 381.34 183.54 360.25 207.4"/><polygon class="i" points="98.94 17.93 98 0 77.7 10.79 98.94 17.93"/><polygon class="i" points="161.99 112.31 152.7 114.92 152.67 114.92 106.34 127.96 142.46 165.71 154.14 133.78 161.99 112.31"/><polygon class="i" points="315.18 250.46 369.54 234.57 360.25 207.4 315.18 250.46"/><polygon class="i" points="79.59 165.17 49.01 171.43 69.61 189.73 79.59 165.17"/><polygon class="i" points="64.51 16.33 64.51 16.35 64.54 16.3 64.51 16.33"/><polygon class="i" points="412.04 212.98 409.16 191.8 360.25 207.4 412.04 212.98"/><polygon class="i" points="247.37 112.29 236.51 71.94 187.75 105.05 247.37 112.29"/><path class="i" d="M62.08,281.24c-1,.12-2.06.19-3.11.24C60,281.46,61,281.36,62.08,281.24Z"/><polygon class="i" points="239.69 144.6 247.37 112.29 196.57 127.55 239.69 144.6"/><polygon class="i" points="37.86 195.46 46.13 233.84 46.16 233.84 61.11 210.62 37.86 195.46"/><polygon class="i" points="301.65 186.86 360.25 207.4 337.64 167.78 301.65 186.86"/><polygon class="i" points="142.76 79.81 111.19 86.39 142.46 94.01 142.76 79.81"/><polygon class="i" points="142.46 165.71 170.31 165.71 154.14 133.78 142.46 165.71"/><polygon class="i" points="62.72 153.67 92.93 158.22 106.34 160.25 106.34 127.96 90.2 137.46 62.72 153.67"/><polygon class="i" points="276.95 127.96 309.84 148.92 301.65 102.32 276.95 127.96"/><polygon class="i" points="366.61 153.89 371.35 137.56 338.41 143.63 366.61 153.89"/><polygon class="i" points="315.18 250.46 315.16 250.46 331.83 274.78 331.85 274.8 369.54 234.57 315.18 250.46"/><polygon class="i" points="33.19 111.85 19.08 108.76 44.02 134.42 33.19 111.85"/><polygon class="i" points="83.19 122.87 106.34 127.96 107.74 115.97 83.19 122.87"/><path class="i" d="M395,270.47c-.42.29-.87.58-1.29.85C394.1,271.05,394.53,270.78,395,270.47Z"/><polygon class="i" points="110.05 12.79 137.65 0 118.94 0 98.94 17.93 110.05 12.79"/><polygon class="i" points="79.59 165.17 105.18 182.64 105.2 182.64 105.2 182.62 92.93 158.22 62.72 153.67 79.59 165.17"/><polygon class="i" points="49.01 171.43 12.99 153.67 12.97 153.72 23.55 193.63 49.01 171.43"/><polygon class="i" points="91.91 98.59 85.03 82.17 71.42 99.86 91.91 98.59"/><polygon class="i" points="332.87 52.32 320.5 60.97 340.25 80.15 332.87 52.32"/><polygon class="i" points="81.73 105.05 58.25 117.36 83.19 122.87 81.73 105.05"/><polygon class="i" points="92.93 158.22 108.78 164.07 139.26 175.31 142.46 165.71 106.34 160.25 92.93 158.22"/><polygon class="i" points="308.88 28.41 304.88 0 297.47 17.45 308.88 28.41"/><polygon class="i" points="128.93 206.28 139.26 175.31 115.91 210.62 128.93 206.28"/><path class="i" d="M74.9,278.63c10.94-2.76,35.08-15.74,36.29-19.18L69.13,249.22Z"/><polygon class="i" points="340.25 0 304.88 0 323.26 10.58 340.25 0"/><polygon class="i" points="70.92 79.9 49.93 35.92 53.06 77.05 70.92 79.9"/><polygon class="i" points="342.51 24.68 340.25 0 323.26 10.58 342.51 24.68"/><polygon class="i" points="46.16 233.84 86.6 220.36 61.11 210.62 46.16 233.84"/><polygon class="i" points="86.6 220.36 46.16 233.84 46.13 233.86 46.1 233.86 0 249.22 69.13 249.22 86.6 220.36"/><polygon class="i" points="46.1 233.86 46.13 233.86 46.13 233.84 46.1 233.86"/><polygon class="i" points="69.61 189.73 37.86 195.46 61.11 210.62 69.61 189.73"/></g><path class="j" d="M165.71,207.94v31h-6.13v-4.78a14.53,14.53,0,0,1-4.19,3.66A12,12,0,0,1,149,239.5a12.84,12.84,0,0,1-7.11-2.06,14.57,14.57,0,0,1-5.11-5.72,18,18,0,0,1-1.88-8.38A17.47,17.47,0,0,1,136.8,215a14.29,14.29,0,0,1,5.37-5.66,14.92,14.92,0,0,1,7.79-2,11.1,11.1,0,0,1,5.69,1.42,13.34,13.34,0,0,1,3.93,3.3v-4.07Zm-15.34,26a8.84,8.84,0,0,0,5-1.39,9.24,9.24,0,0,0,3.3-3.77,12,12,0,0,0,1.18-5.4,11.65,11.65,0,0,0-1.18-5.31,9.38,9.38,0,0,0-3.3-3.75,8.91,8.91,0,0,0-5-1.38,8.78,8.78,0,0,0-4.83,1.35,9.26,9.26,0,0,0-3.31,3.72,11.78,11.78,0,0,0-1.18,5.37,12,12,0,0,0,1.18,5.4,9.33,9.33,0,0,0,3.31,3.77A8.57,8.57,0,0,0,150.37,233.9Z"/><path class="j" d="M203.35,214.49a6.68,6.68,0,0,0-1.44-.5,7.52,7.52,0,0,0-1.8-.21,7.82,7.82,0,0,0-3.72,1,8.41,8.41,0,0,0-3,2.78,7.52,7.52,0,0,0-1.21,4.27v17.11H186v-31h6.13v5.84a11.42,11.42,0,0,1,3.93-4.66,9.5,9.5,0,0,1,5.51-1.83,7.77,7.77,0,0,1,3.37.59Z"/><path class="j" d="M225.66,201.21a4,4,0,0,1-3.07-1.06,3.86,3.86,0,0,1-1-2.77,4,4,0,0,1,1-2.66,3.83,3.83,0,0,1,3.07-1.18,4,4,0,0,1,3.07,1.07,3.89,3.89,0,0,1,1,2.77,4,4,0,0,1-1,2.65A3.81,3.81,0,0,1,225.66,201.21Zm3.12,37.7h-6.07v-31h6.07Z"/><path class="j" d="M278.64,207.94v31H272.5v-4.78a14.39,14.39,0,0,1-4.19,3.66,12,12,0,0,1-6.43,1.71,12.89,12.89,0,0,1-7.11-2.06,14.62,14.62,0,0,1-5.1-5.72,18,18,0,0,1-1.89-8.38,17.36,17.36,0,0,1,1.95-8.35,14.29,14.29,0,0,1,5.37-5.66,14.89,14.89,0,0,1,7.79-2,11.1,11.1,0,0,1,5.69,1.42,13.29,13.29,0,0,1,3.92,3.3v-4.07Zm-15.34,26a8.78,8.78,0,0,0,4.95-1.39,9.33,9.33,0,0,0,3.31-3.77,12.17,12.17,0,0,0,1.18-5.4,11.78,11.78,0,0,0-1.18-5.31,9.48,9.48,0,0,0-3.31-3.75,9.46,9.46,0,0,0-9.79,0,9.16,9.16,0,0,0-3.3,3.72,11.78,11.78,0,0,0-1.18,5.37,12,12,0,0,0,1.18,5.4,9.24,9.24,0,0,0,3.3,3.77A8.63,8.63,0,0,0,263.3,233.9Z"/></g></svg>