<svg xmlns="http://www.w3.org/2000/svg" viewBox="0 0 738.35 284.23"><defs><style>.a{isolation:isolate;}.b{fill:#f9b219;}.c{fill:#fec81a;}.d{fill:#f39f07;}.e{fill:#ef7a23;}.f{fill:#f28d24;}.g{fill:#009fe3;}.h{opacity:0.1;mix-blend-mode:overlay;}.i{fill:#1d1d1b;}.j{fill:#fed27a;}.k{fill:#95c98d;}.l{fill:#95c566;}.m{fill:#118e35;}.n{fill:#2fa945;}.o{fill:#097132;}.p{fill:#54aa32;}</style></defs><g class="a"><polygon class="b" points="90.78 138.52 107.04 128.96 83.73 123.83 90.78 138.52"/><polygon class="c" points="339.84 169.03 362.59 208.92 368.99 155.06 339.84 169.03"/><polygon class="c" points="303.61 188.24 298.66 233.98 324.74 218.31 303.61 188.24"/><polygon class="d" points="53.41 77.72 55.28 92.31 71.88 100.68 53.41 77.72"/><polygon class="b" points="188.97 105.9 163.04 113.21 178.42 129.77 212.9 166.95 197.85 128.54 188.97 105.9"/><polygon class="b" points="111.91 87.11 85.58 82.87 92.51 99.4 111.91 87.11"/><polygon class="b" points="138.14 31.17 147.49 15.2 128.79 19.47 138.14 31.17"/><polygon class="d" points="360.04 107.77 399.5 102.44 366.17 76.37 360.04 107.77"/><polygon class="d" points="85.58 82.87 111.91 87.11 96.14 74.11 79.08 60.04 50.26 36.3 50.26 36.32 71.38 80.59 85.58 82.87"/><path class="b" d="M69.21,282.18a66.12,66.12,0,0,1-6.73,1.05A59.74,59.74,0,0,0,69.21,282.18Z"/><polygon class="c" points="342.46 80.84 322.59 61.53 322.59 83.46 342.46 80.84"/><polygon class="e" points="274.23 11.79 262.33 31.78 293.98 36.07 274.23 11.79"/><polygon class="e" points="322.59 61.53 262.33 31.78 294.93 60.04 322.59 61.53"/><polygon class="f" points="248.98 113.19 261.53 137.91 273.23 83.46 248.98 113.19"/><path class="e" d="M0,251c8.55,11.39,17.7,19.72,27.38,25.1L69.58,251Z"/><polygon class="c" points="82.26 105.9 108.44 116.89 111.91 87.11 92.51 99.4 82.26 105.9"/><polygon class="g" points="340.59 144.73 340.59 144.75 340.61 144.73 340.59 144.73"/><polygon class="b" points="13.05 154.88 5.43 211 23.7 195.06 13.05 154.88"/><polygon class="b" points="104.34 51.77 104.34 51.8 111.91 87.11 136.47 62.83 104.34 51.77"/><polygon class="b" points="261.53 137.91 248.98 113.19 241.25 145.71 236.2 166.95 261.53 137.94 261.53 137.91"/><polygon class="f" points="71.88 100.68 55.28 92.31 58.63 118.29 82.26 105.9 71.88 100.68"/><polygon class="c" points="87.16 221.97 69.58 251 121.49 232.63 87.19 221.97 87.16 221.97"/><polygon class="c" points="273.23 83.46 238.05 72.57 248.98 113.19 273.23 83.46"/><polygon class="e" points="419.67 251 414.72 214.53 371.94 236.26 419.67 251"/><polygon class="f" points="373.77 138.62 360.04 107.77 327.16 125.94 373.77 138.62"/><polygon class="d" points="325.36 10.81 310.88 28.77 344.74 25.01 325.36 10.81"/><polygon class="b" points="325.36 10.81 306.86 0.17 310.88 28.77 325.36 10.81"/><polygon class="f" points="71.88 100.68 82.26 105.9 92.51 99.4 71.88 100.68"/><polygon class="e" points="163.04 113.21 188.97 105.9 163.04 113.19 163.04 113.21"/><polygon class="b" points="107.04 161.46 143.39 166.95 107.04 128.96 107.04 161.46"/><path class="e" d="M46.38,282.82c-1.12-.2-2.22-.42-3.33-.67C44.16,282.42,45.26,282.64,46.38,282.82Z"/><polygon class="d" points="368.99 155.06 383.82 184.9 406.05 150.66 406.05 150.64 406.02 150.64 368.99 155.06"/><polygon class="c" points="61.51 212.15 105.86 184 80.11 166.41 70.06 191.13 61.51 212.15"/><polygon class="f" points="111.91 261.31 121.49 232.63 69.58 251 111.91 261.31"/><polygon class="e" points="294.01 36.07 317.06 39.19 310.88 28.77 294.01 36.07"/><polygon class="b" points="58.63 118.29 24.48 70.88 19.2 109.63 33.4 112.75 58.63 118.29"/><polygon class="f" points="104.34 51.77 138.14 31.17 111.91 31.17 104.34 51.77"/><path class="d" d="M367.37,283.18a55.46,55.46,0,0,0,6.42-.8,59.32,59.32,0,0,0,6.35-1.55c1.43-.42,2.85-.91,4.25-1.45.68-.27,1.35-.54,2-.83s1.33-.57,1.95-.88a68,68,0,0,0,6.15-3.32c.61-.34,1.18-.71,1.76-1.1.42-.27.87-.56,1.3-.86l1.2-.81c.6-.44,1.22-.88,1.82-1.35l.15-.12-20.8,2.09Z"/><polygon class="d" points="259.4 166.95 276.28 166.95 261.53 137.94 259.4 166.95"/><polygon class="d" points="98.64 0.17 77.21 0.17 78.21 11.03 98.64 0.17"/><polygon class="d" points="136.47 62.83 181.62 72.57 138.14 31.17 136.47 62.83"/><polygon class="b" points="373.77 138.62 406.02 150.62 383.82 116.55 373.77 138.62"/><polygon class="e" points="70.51 33.67 70.48 33.67 70.48 33.65 64.93 16.62 50.26 36.3 79.08 60.04 70.51 33.67"/><polygon class="f" points="317.06 39.19 322.59 61.53 335.04 52.83 317.06 39.19"/><polygon class="c" points="294.93 60.04 273.23 83.46 322.59 83.46 294.93 60.04"/><polygon class="d" points="128.79 19.47 138.54 0.17 110.76 13.04 128.79 19.47"/><polygon class="c" points="261.53 137.94 276.28 166.95 278.76 128.96 261.53 137.94"/><polygon class="c" points="371.94 236.26 334.01 276.76 334.04 276.76 390.89 262.97 371.94 236.26"/><polygon class="d" points="188.97 105.9 181.62 72.57 168.29 100.85 188.97 105.9"/><polygon class="e" points="303.61 103.16 311.86 150.05 327.16 125.94 303.61 103.16"/><polygon class="c" points="138.14 31.17 128.79 19.47 111.91 31.17 138.14 31.17"/><polygon class="c" points="55.28 92.31 53.41 77.72 24.48 70.88 58.63 118.29 55.28 92.31"/><polygon class="e" points="342.46 80.84 366.17 76.37 395.19 70.88 360.69 55.48 342.46 80.84"/><polygon class="e" points="261.53 137.91 261.53 137.94 278.76 128.96 273.23 83.46 261.53 137.91"/><polygon class="e" points="155.14 134.82 171.42 166.95 178.42 129.77 155.14 134.82"/><polygon class="b" points="360.69 55.48 367.07 33.16 344.74 25.01 360.69 55.48"/><polygon class="b" points="334.04 276.76 379.92 272.2 400.72 270.11 390.89 262.97 334.04 276.76"/><polygon class="f" points="34.68 57.19 24.48 70.88 53.41 77.72 34.68 57.19"/><polygon class="e" points="181.62 72.57 147.49 15.2 138.14 31.17 181.62 72.57"/><polygon class="c" points="147.49 15.2 138.54 0.17 128.79 19.47 147.49 15.2"/><polygon class="c" points="78.21 11.03 70.48 33.65 70.48 33.67 70.51 33.67 99.59 18.22 78.21 11.03"/><polygon class="d" points="317.24 252.26 362.59 208.92 324.74 218.31 307.76 261.31 317.21 252.26 317.24 252.26"/><polygon class="e" points="197.85 128.54 212.9 166.95 241.25 145.71 197.85 128.54"/><polygon class="e" points="340.59 144.75 339.84 169.03 368.99 155.06 340.61 144.73 340.59 144.75"/><polygon class="e" points="383.82 116.55 360.04 107.77 373.77 138.62 383.82 116.55"/><polygon class="f" points="296.88 157.16 311.86 150.05 278.76 128.96 276.28 166.95 296.86 157.16 296.88 157.16"/><path class="e" d="M334,276.76c11.52,5,22.65,7.16,33.33,6.42l12.55-11Z"/><polygon class="e" points="298.66 233.98 307.76 261.31 324.74 218.31 298.66 233.98"/><path class="e" d="M41.25,281.71a59.62,59.62,0,0,1-7-2.35A53.07,53.07,0,0,0,41.25,281.71Z"/><polygon class="c" points="311.86 150.05 296.88 157.16 339.84 169.03 311.86 150.05"/><polygon class="e" points="87.19 221.97 121.49 232.63 129.76 207.79 116.66 212.15 87.19 221.97"/><polygon class="c" points="50.26 36.32 34.68 57.19 53.41 77.72 50.26 36.32"/><polygon class="c" points="406.02 150.62 399.5 102.44 383.82 116.55 406.02 150.62"/><polygon class="b" points="324.74 218.31 362.59 208.92 303.61 188.24 324.74 218.31"/><polygon class="f" points="63.13 154.83 49.33 172.71 80.11 166.41 63.13 154.83"/><polygon class="b" points="44.3 135.46 63.13 154.83 58.63 118.29 44.3 135.46"/><polygon class="d" points="87.19 221.97 116.66 212.15 102.94 199.06 87.16 221.97 87.19 221.97"/><polygon class="e" points="360.69 55.48 344.74 25.01 335.04 52.83 360.69 55.48"/><polygon class="e" points="153.69 115.84 163.04 113.21 163.04 113.19 153.69 115.84"/><polygon class="b" points="104.34 51.77 111.91 31.17 82.66 39.04 96.14 74.11 104.34 51.8 104.34 51.77"/><polygon class="d" points="371.94 236.26 414.72 214.53 362.59 208.92 371.94 236.26"/><polygon class="d" points="262.33 31.78 238.05 72.57 294.93 60.04 262.33 31.78"/><polygon class="d" points="171.42 166.95 212.9 166.95 178.42 129.77 171.42 166.95"/><polygon class="c" points="327.16 125.94 360.04 107.77 322.59 83.46 327.16 125.94"/><polygon class="c" points="109.51 165.33 109.49 165.31 93.54 159.42 105.89 183.97 109.51 165.33"/><polygon class="b" points="46.43 235.55 46.45 235.53 46.43 235.53 46.43 235.55"/><polygon class="b" points="110.76 13.04 99.59 18.22 128.79 19.47 110.76 13.04"/><polygon class="e" points="99.59 18.22 70.51 33.67 82.66 39.04 99.59 18.22"/><polygon class="e" points="85.58 82.87 71.38 80.59 53.41 77.72 71.88 100.68 85.58 82.87"/><polygon class="d" points="70.51 33.67 79.08 60.04 82.66 39.04 70.51 33.67"/><polygon class="e" points="119.71 0.17 98.64 0.17 99.59 18.22 119.71 0.17"/><polygon class="f" points="322.59 61.53 294.93 60.04 322.59 83.46 322.59 61.53"/><polygon class="c" points="44.3 135.46 19.2 109.63 13.08 154.83 63.13 154.83 44.3 135.46"/><path class="b" d="M27.38,276.1c1.12.63,2.27,1.22,3.4,1.74s2.3,1.05,3.45,1.52a59.62,59.62,0,0,0,7,2.35l1.8.44c1.11.25,2.21.47,3.33.67.7.12,1.4.22,2.13.32,1.17.14,2.35.27,3.55.34s2.57.12,3.9.12c1,0,2,0,3.07-.1a1.83,1.83,0,0,0,.33,0c1-.05,2.07-.12,3.12-.25a66.12,66.12,0,0,0,6.73-1.05c1-.22,2.05-.44,3.07-.71s2-.54,3.1-.86L69.58,251Z"/><polygon class="f" points="197.85 128.54 248.98 113.19 188.97 105.9 197.85 128.54"/><path class="b" d="M72.28,281.47c-1,.27-2,.49-3.07.71C70.23,282,71.26,281.74,72.28,281.47Z"/><polygon class="f" points="109.51 165.33 105.89 183.97 105.89 184 102.94 199.06 140.17 176.61 109.49 165.31 109.51 165.33"/><polygon class="f" points="411.82 193.22 406.05 150.66 383.82 184.9 411.82 193.22"/><path class="b" d="M307.76,261.31A133.08,133.08,0,0,0,334,276.73l-16.78-24.47Z"/><polygon class="f" points="83.73 123.83 58.63 118.29 90.78 138.52 83.73 123.83"/><polygon class="e" points="49.33 172.71 23.7 195.06 5.43 211 38.1 196.9 49.33 172.71"/><polygon class="d" points="344.74 25.01 317.06 39.19 335.04 52.83 344.74 25.01"/><polygon class="f" points="310.88 28.77 317.06 39.19 344.74 25.01 310.88 28.77"/><polygon class="c" points="317.06 39.19 294.01 36.07 293.98 36.07 262.33 31.78 322.59 61.53 317.06 39.19"/><polygon class="f" points="178.42 129.77 163.04 113.21 155.14 134.82 178.42 129.77"/><polygon class="f" points="383.82 116.55 399.5 102.44 360.04 107.77 383.82 116.55"/><polygon class="e" points="58.63 118.29 63.13 154.83 90.78 138.52 58.63 118.29"/><polygon class="b" points="390.89 262.97 419.67 251 371.94 236.26 390.89 262.97"/><path class="e" d="M373.79,282.38a55.46,55.46,0,0,1-6.42.8A54.92,54.92,0,0,0,373.79,282.38Z"/><polygon class="e" points="236.2 166.95 259.4 166.95 261.53 137.94 236.2 166.95"/><polygon class="b" points="294.93 60.04 238.05 72.57 273.23 83.46 294.93 60.04"/><polygon class="b" points="306.86 0.17 281.13 0.17 299.41 17.73 306.86 0.17"/><polygon class="b" points="143.39 94.79 181.62 72.57 143.69 80.49 143.39 94.79"/><path class="e" d="M380.14,280.83a59.32,59.32,0,0,1-6.35,1.55A48.56,48.56,0,0,0,380.14,280.83Z"/><polygon class="e" points="96.14 74.11 111.91 87.11 104.34 51.8 96.14 74.11"/><polygon class="f" points="5.43 211 0 251 46.41 235.55 5.43 211"/><polygon class="c" points="79.08 60.04 96.14 74.11 82.66 39.04 79.08 60.04"/><polygon class="e" points="276.28 166.95 298.66 233.98 303.61 188.24 276.28 166.95"/><polygon class="b" points="342.46 80.84 360.69 55.48 335.04 52.83 342.46 80.84"/><polygon class="e" points="367.07 33.16 342.46 0.17 344.74 25.01 367.07 33.16"/><polygon class="c" points="136.47 62.83 138.14 31.17 104.34 51.77 136.47 62.83"/><polygon class="c" points="368.99 155.06 406.02 150.64 406.02 150.62 373.77 138.62 368.99 155.06"/><polygon class="d" points="46.43 235.53 38.1 196.9 5.43 211 46.41 235.55 46.43 235.53"/><polygon class="f" points="360.04 107.77 366.17 76.37 342.46 80.84 322.59 83.46 360.04 107.77"/><polygon class="b" points="340.59 144.75 311.86 150.05 339.84 169.03 340.59 144.75"/><polygon class="b" points="303.61 103.16 327.16 125.94 322.59 83.46 303.61 103.16"/><polygon class="b" points="87.16 221.97 102.94 199.06 61.51 212.15 87.16 221.97"/><polygon class="b" points="296.86 157.16 276.28 166.95 303.61 188.24 296.86 157.16"/><polygon class="d" points="296.88 157.16 296.86 157.16 303.61 188.24 339.84 169.03 296.88 157.16"/><path class="c" d="M390.89,263l9.83,7.14A103.05,103.05,0,0,0,419.67,251Z"/><polygon class="c" points="168.29 100.85 181.62 72.57 143.39 94.79 168.29 100.85"/><polygon class="f" points="322.59 83.46 273.23 83.46 278.76 128.96 303.61 103.16 322.59 83.46"/><polygon class="f" points="212.9 166.95 236.2 166.95 241.25 145.71 212.9 166.95"/><polygon class="e" points="61.51 212.15 102.94 199.06 105.89 184 105.86 184 61.51 212.15"/><polygon class="f" points="108.44 116.89 107.04 128.96 153.67 115.84 111.91 87.11 108.44 116.89"/><polygon class="c" points="49.33 172.71 38.1 196.9 70.06 191.13 49.33 172.71"/><polygon class="e" points="238.05 72.57 181.62 72.57 188.97 105.9 238.05 72.57"/><polygon class="e" points="143.39 94.79 111.91 87.11 153.67 115.84 153.69 115.84 163.04 113.19 188.97 105.9 168.29 100.85 143.39 94.79"/><path class="e" d="M34.23,279.36c-1.15-.47-2.3-1-3.45-1.52C31.93,278.4,33.05,278.92,34.23,279.36Z"/><polygon class="c" points="77.21 0.17 64.96 16.57 78.21 11.03 77.21 0.17"/><polygon class="d" points="340.59 144.73 340.61 144.73 373.77 138.62 327.16 125.94 311.86 150.05 340.59 144.75 340.59 144.73"/><polygon class="f" points="281.13 0.17 274.23 11.79 293.98 36.07 281.13 0.17"/><polygon class="d" points="294.01 36.07 310.88 28.77 299.41 17.73 281.13 0.17 293.98 36.07 294.01 36.07"/><polygon class="d" points="111.91 31.17 99.59 18.22 82.66 39.04 111.91 31.17"/><polygon class="e" points="111.91 87.11 143.69 80.49 181.62 72.57 136.47 62.83 111.91 87.11"/><polygon class="b" points="368.99 155.06 362.59 208.92 383.82 184.9 368.99 155.06"/><polygon class="b" points="116.66 212.15 140.17 176.61 102.94 199.06 116.66 212.15"/><polygon class="d" points="33.4 112.75 44.3 135.46 58.63 118.29 33.4 112.75"/><polygon class="d" points="78.21 11.03 64.96 16.57 64.93 16.62 70.48 33.65 78.21 11.03"/><polygon class="g" points="406.05 150.64 406.02 150.62 406.02 150.64 406.05 150.64"/><polygon class="e" points="128.79 19.47 99.59 18.22 111.91 31.17 128.79 19.47"/><polygon class="b" points="63.13 154.83 13.08 154.83 49.33 172.71 63.13 154.83"/><polygon class="c" points="395.19 70.88 367.07 33.16 360.69 55.48 395.19 70.88"/><polygon class="b" points="399.5 102.44 395.19 70.88 366.17 76.37 399.5 102.44"/><polygon class="b" points="83.73 123.83 108.44 116.89 82.26 105.9 83.73 123.83"/><polygon class="e" points="362.59 208.92 411.82 193.22 383.82 184.9 362.59 208.92"/><polygon class="f" points="99.59 18.22 98.64 0.17 78.21 11.03 99.59 18.22"/><polygon class="c" points="163.04 113.21 153.69 115.84 153.67 115.84 107.04 128.96 143.39 166.95 155.14 134.82 163.04 113.21"/><polygon class="e" points="317.24 252.26 371.94 236.26 362.59 208.92 317.24 252.26"/><polygon class="d" points="80.11 166.41 49.33 172.71 70.06 191.13 80.11 166.41"/><polygon class="g" points="64.93 16.6 64.93 16.62 64.96 16.57 64.93 16.6"/><polygon class="c" points="414.72 214.53 411.82 193.22 362.59 208.92 414.72 214.53"/><polygon class="b" points="248.98 113.19 238.05 72.57 188.97 105.9 248.98 113.19"/><path class="b" d="M62.48,283.23c-1,.13-2.07.2-3.12.25C60.38,283.45,61.43,283.36,62.48,283.23Z"/><polygon class="d" points="241.25 145.71 248.98 113.19 197.85 128.54 241.25 145.71"/><polygon class="e" points="38.1 196.9 46.43 235.53 46.45 235.53 61.51 212.15 38.1 196.9"/><polygon class="e" points="303.61 188.24 362.59 208.92 339.84 169.03 303.61 188.24"/><polygon class="f" points="143.69 80.49 111.91 87.11 143.39 94.79 143.69 80.49"/><polygon class="b" points="143.39 166.95 171.42 166.95 155.14 134.82 143.39 166.95"/><polygon class="f" points="63.13 154.83 93.54 159.42 107.04 161.46 107.04 128.96 90.78 138.52 63.13 154.83"/><polygon class="d" points="278.76 128.96 311.86 150.05 303.61 103.16 278.76 128.96"/><polygon class="f" points="368.99 155.06 373.77 138.62 340.61 144.73 368.99 155.06"/><polygon class="f" points="317.24 252.26 317.21 252.26 333.99 276.73 334.01 276.76 371.94 236.26 317.24 252.26"/><polygon class="e" points="33.4 112.75 19.2 109.63 44.3 135.46 33.4 112.75"/><polygon class="d" points="83.73 123.83 107.04 128.96 108.44 116.89 83.73 123.83"/><path class="d" d="M397.55,272.39c-.43.3-.88.59-1.3.86C396.67,273,397.1,272.71,397.55,272.39Z"/><polygon class="f" points="110.76 13.04 138.54 0.17 119.71 0.17 99.59 18.22 110.76 13.04"/><polygon class="e" points="80.11 166.41 105.86 184 105.89 184 105.89 183.97 93.54 159.42 63.13 154.83 80.11 166.41"/><polygon class="d" points="49.33 172.71 13.08 154.83 13.05 154.88 23.7 195.06 49.33 172.71"/><polygon class="c" points="92.51 99.4 85.58 82.87 71.88 100.68 92.51 99.4"/><polygon class="d" points="335.04 52.83 322.59 61.53 342.46 80.84 335.04 52.83"/><polygon class="d" points="82.26 105.9 58.63 118.29 83.73 123.83 82.26 105.9"/><polygon class="e" points="93.54 159.42 109.49 165.31 140.17 176.61 143.39 166.95 107.04 161.46 93.54 159.42"/><polygon class="f" points="310.88 28.77 306.86 0.17 299.41 17.73 310.88 28.77"/><polygon class="c" points="129.76 207.79 140.17 176.61 116.66 212.15 129.76 207.79"/><path class="d" d="M75.38,280.61c11-2.78,35.32-15.84,36.53-19.3L69.58,251Z"/><polygon class="c" points="342.46 0.17 306.86 0.17 325.36 10.81 342.46 0.17"/><polygon class="f" points="71.38 80.59 50.26 36.32 53.41 77.72 71.38 80.59"/><polygon class="b" points="344.74 25.01 342.46 0.17 325.36 10.81 344.74 25.01"/><polygon class="d" points="46.45 235.53 87.16 221.97 61.51 212.15 46.45 235.53"/><polygon class="b" points="87.16 221.97 46.45 235.53 46.43 235.55 46.41 235.55 0 251 69.58 251 87.16 221.97"/><polygon class="b" points="46.41 235.55 46.43 235.55 46.43 235.53 46.41 235.55"/><polygon class="b" points="70.06 191.13 38.1 196.9 61.51 212.15 70.06 191.13"/><g class="h"><polygon class="i" points="90.78 138.52 107.04 128.96 83.73 123.83 90.78 138.52"/><polygon class="i" points="339.84 169.03 362.59 208.92 368.99 155.06 339.84 169.03"/><polygon class="i" points="303.61 188.24 298.66 233.98 324.74 218.31 303.61 188.24"/><polygon class="i" points="53.41 77.72 55.28 92.31 71.88 100.68 53.41 77.72"/><polygon class="i" points="188.97 105.9 163.04 113.21 178.42 129.77 212.9 166.95 197.85 128.54 188.97 105.9"/><polygon class="i" points="111.91 87.11 85.58 82.87 92.51 99.4 111.91 87.11"/><polygon class="i" points="138.14 31.17 147.49 15.2 128.79 19.47 138.14 31.17"/><polygon class="i" points="360.04 107.77 399.5 102.44 366.17 76.37 360.04 107.77"/><polygon class="i" points="85.58 82.87 111.91 87.11 96.14 74.11 79.08 60.04 50.26 36.3 50.26 36.32 71.38 80.59 85.58 82.87"/><path class="i" d="M69.21,282.18a66.12,66.12,0,0,1-6.73,1.05A59.74,59.74,0,0,0,69.21,282.18Z"/><polygon class="i" points="342.46 80.84 322.59 61.53 322.59 83.46 342.46 80.84"/><polygon class="i" points="274.23 11.79 262.33 31.78 293.98 36.07 274.23 11.79"/><polygon class="i" points="322.59 61.53 262.33 31.78 294.93 60.04 322.59 61.53"/><polygon class="i" points="248.98 113.19 261.53 137.91 273.23 83.46 248.98 113.19"/><path class="i" d="M0,251c8.55,11.39,17.7,19.72,27.38,25.1L69.58,251Z"/><polygon class="i" points="82.26 105.9 108.44 116.89 111.91 87.11 92.51 99.4 82.26 105.9"/><polygon class="i" points="340.59 144.73 340.59 144.75 340.61 144.73 340.59 144.73"/><polygon class="i" points="13.05 154.88 5.43 211 23.7 195.06 13.05 154.88"/><polygon class="i" points="104.34 51.77 104.34 51.8 111.91 87.11 136.47 62.83 104.34 51.77"/><polygon class="i" points="261.53 137.91 248.98 113.19 241.25 145.71 236.2 166.95 261.53 137.94 261.53 137.91"/><polygon class="i" points="71.88 100.68 55.28 92.31 58.63 118.29 82.26 105.9 71.88 100.68"/><polygon class="i" points="87.16 221.97 69.58 251 121.49 232.63 87.19 221.97 87.16 221.97"/><polygon class="i" points="273.23 83.46 238.05 72.57 248.98 113.19 273.23 83.46"/><polygon class="i" points="419.67 251 414.72 214.53 371.94 236.26 419.67 251"/><polygon class="i" points="373.77 138.62 360.04 107.77 327.16 125.94 373.77 138.62"/><polygon class="i" points="325.36 10.81 310.88 28.77 344.74 25.01 325.36 10.81"/><polygon class="i" points="325.36 10.81 306.86 0.17 310.88 28.77 325.36 10.81"/><polygon class="i" points="71.88 100.68 82.26 105.9 92.51 99.4 71.88 100.68"/><polygon class="i" points="163.04 113.21 188.97 105.9 163.04 113.19 163.04 113.21"/><polygon class="i" points="107.04 161.46 143.39 166.95 107.04 128.96 107.04 161.46"/><path class="i" d="M46.38,282.82c-1.12-.2-2.22-.42-3.33-.67C44.16,282.42,45.26,282.64,46.38,282.82Z"/><polygon class="i" points="368.99 155.06 383.82 184.9 406.05 150.66 406.05 150.64 406.02 150.64 368.99 155.06"/><polygon class="i" points="61.51 212.15 105.86 184 80.11 166.41 70.06 191.13 61.51 212.15"/><polygon class="i" points="111.91 261.31 121.49 232.63 69.58 251 111.91 261.31"/><polygon class="i" points="294.01 36.07 317.06 39.19 310.88 28.77 294.01 36.07"/><polygon class="i" points="58.63 118.29 24.48 70.88 19.2 109.63 33.4 112.75 58.63 118.29"/><polygon class="i" points="104.34 51.77 138.14 31.17 111.91 31.17 104.34 51.77"/><path class="i" d="M367.37,283.18a55.46,55.46,0,0,0,6.42-.8,59.32,59.32,0,0,0,6.35-1.55c1.43-.42,2.85-.91,4.25-1.45.68-.27,1.35-.54,2-.83s1.33-.57,1.95-.88a68,68,0,0,0,6.15-3.32c.61-.34,1.18-.71,1.76-1.1.42-.27.87-.56,1.3-.86l1.2-.81c.6-.44,1.22-.88,1.82-1.35l.15-.12-20.8,2.09Z"/><polygon class="i" points="259.4 166.95 276.28 166.95 261.53 137.94 259.4 166.95"/><polygon class="i" points="98.64 0.17 77.21 0.17 78.21 11.03 98.64 0.17"/><polygon class="i" points="136.47 62.83 181.62 72.57 138.14 31.17 136.47 62.83"/><polygon class="i" points="373.77 138.62 406.02 150.62 383.82 116.55 373.77 138.62"/><polygon class="i" points="70.51 33.67 70.48 33.67 70.48 33.65 64.93 16.62 50.26 36.3 79.08 60.04 70.51 33.67"/><polygon class="i" points="317.06 39.19 322.59 61.53 335.04 52.83 317.06 39.19"/><polygon class="i" points="294.93 60.04 273.23 83.46 322.59 83.46 294.93 60.04"/><polygon class="i" points="128.79 19.47 138.54 0.17 110.76 13.04 128.79 19.47"/><polygon class="i" points="261.53 137.94 276.28 166.95 278.76 128.96 261.53 137.94"/><polygon class="i" points="371.94 236.26 334.01 276.76 334.04 276.76 390.89 262.97 371.94 236.26"/><polygon class="i" points="188.97 105.9 181.62 72.57 168.29 100.85 188.97 105.9"/><polygon class="i" points="303.61 103.16 311.86 150.05 327.16 125.94 303.61 103.16"/><polygon class="i" points="138.14 31.17 128.79 19.47 111.91 31.17 138.14 31.17"/><polygon class="i" points="55.28 92.31 53.41 77.72 24.48 70.88 58.63 118.29 55.28 92.31"/><polygon class="i" points="342.46 80.84 366.17 76.37 395.19 70.88 360.69 55.48 342.46 80.84"/><polygon class="i" points="261.53 137.91 261.53 137.94 278.76 128.96 273.23 83.46 261.53 137.91"/><polygon class="i" points="155.14 134.82 171.42 166.95 178.42 129.77 155.14 134.82"/><polygon class="i" points="360.69 55.48 367.07 33.16 344.74 25.01 360.69 55.48"/><polygon class="i" points="334.04 276.76 379.92 272.2 400.72 270.11 390.89 262.97 334.04 276.76"/><polygon class="i" points="34.68 57.19 24.48 70.88 53.41 77.72 34.68 57.19"/><polygon class="i" points="181.62 72.57 147.49 15.2 138.14 31.17 181.62 72.57"/><polygon class="i" points="147.49 15.2 138.54 0.17 128.79 19.47 147.49 15.2"/><polygon class="i" points="78.21 11.03 70.48 33.65 70.48 33.67 70.51 33.67 99.59 18.22 78.21 11.03"/><polygon class="i" points="317.24 252.26 362.59 208.92 324.74 218.31 307.76 261.31 317.21 252.26 317.24 252.26"/><polygon class="i" points="197.85 128.54 212.9 166.95 241.25 145.71 197.85 128.54"/><polygon class="i" points="340.59 144.75 339.84 169.03 368.99 155.06 340.61 144.73 340.59 144.75"/><polygon class="i" points="383.82 116.55 360.04 107.77 373.77 138.62 383.82 116.55"/><polygon class="i" points="296.88 157.16 311.86 150.05 278.76 128.96 276.28 166.95 296.86 157.16 296.88 157.16"/><path class="i" d="M334,276.76c11.52,5,22.65,7.16,33.33,6.42l12.55-11Z"/><polygon class="i" points="298.66 233.98 307.76 261.31 324.74 218.31 298.66 233.98"/><path class="i" d="M41.25,281.71a59.62,59.62,0,0,1-7-2.35A53.07,53.07,0,0,0,41.25,281.71Z"/><polygon class="i" points="311.86 150.05 296.88 157.16 339.84 169.03 311.86 150.05"/><polygon class="i" points="87.19 221.97 121.49 232.63 129.76 207.79 116.66 212.15 87.19 221.97"/><polygon class="i" points="50.26 36.32 34.68 57.19 53.41 77.72 50.26 36.32"/><polygon class="i" points="406.02 150.62 399.5 102.44 383.82 116.55 406.02 150.62"/><polygon class="i" points="324.74 218.31 362.59 208.92 303.61 188.24 324.74 218.31"/><polygon class="i" points="63.13 154.83 49.33 172.71 80.11 166.41 63.13 154.83"/><polygon class="i" points="44.3 135.46 63.13 154.83 58.63 118.29 44.3 135.46"/><polygon class="i" points="87.19 221.97 116.66 212.15 102.94 199.06 87.16 221.97 87.19 221.97"/><polygon class="i" points="360.69 55.48 344.74 25.01 335.04 52.83 360.69 55.48"/><polygon class="i" points="153.69 115.84 163.04 113.21 163.04 113.19 153.69 115.84"/><polygon class="i" points="104.34 51.77 111.91 31.17 82.66 39.04 96.14 74.11 104.34 51.8 104.34 51.77"/><polygon class="i" points="371.94 236.26 414.72 214.53 362.59 208.92 371.94 236.26"/><polygon class="i" points="262.33 31.78 238.05 72.57 294.93 60.04 262.33 31.78"/><polygon class="i" points="171.42 166.95 212.9 166.95 178.42 129.77 171.42 166.95"/><polygon class="i" points="327.16 125.94 360.04 107.77 322.59 83.46 327.16 125.94"/><polygon class="i" points="109.51 165.33 109.49 165.31 93.54 159.42 105.89 183.97 109.51 165.33"/><polygon class="i" points="46.43 235.55 46.45 235.53 46.43 235.53 46.43 235.55"/><polygon class="i" points="110.76 13.04 99.59 18.22 128.79 19.47 110.76 13.04"/><polygon class="i" points="99.59 18.22 70.51 33.67 82.66 39.04 99.59 18.22"/><polygon class="i" points="85.58 82.87 71.38 80.59 53.41 77.72 71.88 100.68 85.58 82.87"/><polygon class="i" points="70.51 33.67 79.08 60.04 82.66 39.04 70.51 33.67"/><polygon class="i" points="119.71 0.17 98.64 0.17 99.59 18.22 119.71 0.17"/><polygon class="i" points="322.59 61.53 294.93 60.04 322.59 83.46 322.59 61.53"/><polygon class="i" points="44.3 135.46 19.2 109.63 13.08 154.83 63.13 154.83 44.3 135.46"/><path class="i" d="M27.38,276.1c1.12.63,2.27,1.22,3.4,1.74s2.3,1.05,3.45,1.52a59.62,59.62,0,0,0,7,2.35l1.8.44c1.11.25,2.21.47,3.33.67.7.12,1.4.22,2.13.32,1.17.14,2.35.27,3.55.34s2.57.12,3.9.12c1,0,2,0,3.07-.1a1.83,1.83,0,0,0,.33,0c1-.05,2.07-.12,3.12-.25a66.12,66.12,0,0,0,6.73-1.05c1-.22,2.05-.44,3.07-.71s2-.54,3.1-.86L69.58,251Z"/><polygon class="i" points="197.85 128.54 248.98 113.19 188.97 105.9 197.85 128.54"/><path class="i" d="M72.28,281.47c-1,.27-2,.49-3.07.71C70.23,282,71.26,281.74,72.28,281.47Z"/><polygon class="i" points="109.51 165.33 105.89 183.97 105.89 184 102.94 199.06 140.17 176.61 109.49 165.31 109.51 165.33"/><polygon class="i" points="411.82 193.22 406.05 150.66 383.82 184.9 411.82 193.22"/><path class="i" d="M307.76,261.31A133.08,133.08,0,0,0,334,276.73l-16.78-24.47Z"/><polygon class="i" points="83.73 123.83 58.63 118.29 90.78 138.52 83.73 123.83"/><polygon class="i" points="49.33 172.71 23.7 195.06 5.43 211 38.1 196.9 49.33 172.71"/><polygon class="i" points="344.74 25.01 317.06 39.19 335.04 52.83 344.74 25.01"/><polygon class="i" points="310.88 28.77 317.06 39.19 344.74 25.01 310.88 28.77"/><polygon class="i" points="317.06 39.19 294.01 36.07 293.98 36.07 262.33 31.78 322.59 61.53 317.06 39.19"/><polygon class="i" points="178.42 129.77 163.04 113.21 155.14 134.82 178.42 129.77"/><polygon class="i" points="383.82 116.55 399.5 102.44 360.04 107.77 383.82 116.55"/><polygon class="i" points="58.63 118.29 63.13 154.83 90.78 138.52 58.63 118.29"/><polygon class="i" points="390.89 262.97 419.67 251 371.94 236.26 390.89 262.97"/><path class="i" d="M373.79,282.38a55.46,55.46,0,0,1-6.42.8A54.92,54.92,0,0,0,373.79,282.38Z"/><polygon class="i" points="236.2 166.95 259.4 166.95 261.53 137.94 236.2 166.95"/><polygon class="i" points="294.93 60.04 238.05 72.57 273.23 83.46 294.93 60.04"/><polygon class="i" points="306.86 0.17 281.13 0.17 299.41 17.73 306.86 0.17"/><polygon class="i" points="143.39 94.79 181.62 72.57 143.69 80.49 143.39 94.79"/><path class="i" d="M380.14,280.83a59.32,59.32,0,0,1-6.35,1.55A48.56,48.56,0,0,0,380.14,280.83Z"/><polygon class="i" points="96.14 74.11 111.91 87.11 104.34 51.8 96.14 74.11"/><polygon class="i" points="5.43 211 0 251 46.41 235.55 5.43 211"/><polygon class="i" points="79.08 60.04 96.14 74.11 82.66 39.04 79.08 60.04"/><polygon class="i" points="276.28 166.95 298.66 233.98 303.61 188.24 276.28 166.95"/><polygon class="i" points="342.46 80.84 360.69 55.48 335.04 52.83 342.46 80.84"/><polygon class="i" points="367.07 33.16 342.46 0.17 344.74 25.01 367.07 33.16"/><polygon class="i" points="136.47 62.83 138.14 31.17 104.34 51.77 136.47 62.83"/><polygon class="i" points="368.99 155.06 406.02 150.64 406.02 150.62 373.77 138.62 368.99 155.06"/><polygon class="i" points="46.43 235.53 38.1 196.9 5.43 211 46.41 235.55 46.43 235.53"/><polygon class="i" points="360.04 107.77 366.17 76.37 342.46 80.84 322.59 83.46 360.04 107.77"/><polygon class="i" points="340.59 144.75 311.86 150.05 339.84 169.03 340.59 144.75"/><polygon class="i" points="303.61 103.16 327.16 125.94 322.59 83.46 303.61 103.16"/><polygon class="i" points="87.16 221.97 102.94 199.06 61.51 212.15 87.16 221.97"/><polygon class="i" points="296.86 157.16 276.28 166.95 303.61 188.24 296.86 157.16"/><polygon class="i" points="296.88 157.16 296.86 157.16 303.61 188.24 339.84 169.03 296.88 157.16"/><path class="i" d="M390.89,263l9.83,7.14A103.05,103.05,0,0,0,419.67,251Z"/><polygon class="i" points="168.29 100.85 181.62 72.57 143.39 94.79 168.29 100.85"/><polygon class="i" points="322.59 83.46 273.23 83.46 278.76 128.96 303.61 103.16 322.59 83.46"/><polygon class="i" points="212.9 166.95 236.2 166.95 241.25 145.71 212.9 166.95"/><polygon class="i" points="61.51 212.15 102.94 199.06 105.89 184 105.86 184 61.51 212.15"/><polygon class="i" points="108.44 116.89 107.04 128.96 153.67 115.84 111.91 87.11 108.44 116.89"/><polygon class="i" points="49.33 172.71 38.1 196.9 70.06 191.13 49.33 172.71"/><polygon class="i" points="238.05 72.57 181.62 72.57 188.97 105.9 238.05 72.57"/><polygon class="i" points="143.39 94.79 111.91 87.11 153.67 115.84 153.69 115.84 163.04 113.19 188.97 105.9 168.29 100.85 143.39 94.79"/><path class="i" d="M34.23,279.36c-1.15-.47-2.3-1-3.45-1.52C31.93,278.4,33.05,278.92,34.23,279.36Z"/><polygon class="i" points="77.21 0.17 64.96 16.57 78.21 11.03 77.21 0.17"/><polygon class="i" points="340.59 144.73 340.61 144.73 373.77 138.62 327.16 125.94 311.86 150.05 340.59 144.75 340.59 144.73"/><polygon class="i" points="281.13 0.17 274.23 11.79 293.98 36.07 281.13 0.17"/><polygon class="i" points="294.01 36.07 310.88 28.77 299.41 17.73 281.13 0.17 293.98 36.07 294.01 36.07"/><polygon class="i" points="111.91 31.17 99.59 18.22 82.66 39.04 111.91 31.17"/><polygon class="i" points="111.91 87.11 143.69 80.49 181.62 72.57 136.47 62.83 111.91 87.11"/><polygon class="i" points="368.99 155.06 362.59 208.92 383.82 184.9 368.99 155.06"/><polygon class="i" points="116.66 212.15 140.17 176.61 102.94 199.06 116.66 212.15"/><polygon class="i" points="33.4 112.75 44.3 135.46 58.63 118.29 33.4 112.75"/><polygon class="i" points="78.21 11.03 64.96 16.57 64.93 16.62 70.48 33.65 78.21 11.03"/><polygon class="i" points="406.05 150.64 406.02 150.62 406.02 150.64 406.05 150.64"/><polygon class="i" points="128.79 19.47 99.59 18.22 111.91 31.17 128.79 19.47"/><polygon class="i" points="63.13 154.83 13.08 154.83 49.33 172.71 63.13 154.83"/><polygon class="i" points="395.19 70.88 367.07 33.16 360.69 55.48 395.19 70.88"/><polygon class="i" points="399.5 102.44 395.19 70.88 366.17 76.37 399.5 102.44"/><polygon class="i" points="83.73 123.83 108.44 116.89 82.26 105.9 83.73 123.83"/><polygon class="i" points="362.59 208.92 411.82 193.22 383.82 184.9 362.59 208.92"/><polygon class="i" points="99.59 18.22 98.64 0.17 78.21 11.03 99.59 18.22"/><polygon class="i" points="163.04 113.21 153.69 115.84 153.67 115.84 107.04 128.96 143.39 166.95 155.14 134.82 163.04 113.21"/><polygon class="i" points="317.24 252.26 371.94 236.26 362.59 208.92 317.24 252.26"/><polygon class="i" points="80.11 166.41 49.33 172.71 70.06 191.13 80.11 166.41"/><polygon class="i" points="64.93 16.6 64.93 16.62 64.96 16.57 64.93 16.6"/><polygon class="i" points="414.72 214.53 411.82 193.22 362.59 208.92 414.72 214.53"/><polygon class="i" points="248.98 113.19 238.05 72.57 188.97 105.9 248.98 113.19"/><path class="i" d="M62.48,283.23c-1,.13-2.07.2-3.12.25C60.38,283.45,61.43,283.36,62.48,283.23Z"/><polygon class="i" points="241.25 145.71 248.98 113.19 197.85 128.54 241.25 145.71"/><polygon class="i" points="38.1 196.9 46.43 235.53 46.45 235.53 61.51 212.15 38.1 196.9"/><polygon class="i" points="303.61 188.24 362.59 208.92 339.84 169.03 303.61 188.24"/><polygon class="i" points="143.69 80.49 111.91 87.11 143.39 94.79 143.69 80.49"/><polygon class="i" points="143.39 166.95 171.42 166.95 155.14 134.82 143.39 166.95"/><polygon class="i" points="63.13 154.83 93.54 159.42 107.04 161.46 107.04 128.96 90.78 138.52 63.13 154.83"/><polygon class="i" points="278.76 128.96 311.86 150.05 303.61 103.16 278.76 128.96"/><polygon class="i" points="368.99 155.06 373.77 138.62 340.61 144.73 368.99 155.06"/><polygon class="i" points="317.24 252.26 317.21 252.26 333.99 276.73 334.01 276.76 371.94 236.26 317.24 252.26"/><polygon class="i" points="33.4 112.75 19.2 109.63 44.3 135.46 33.4 112.75"/><polygon class="i" points="83.73 123.83 107.04 128.96 108.44 116.89 83.73 123.83"/><path class="i" d="M397.55,272.39c-.43.3-.88.59-1.3.86C396.67,273,397.1,272.71,397.55,272.39Z"/><polygon class="i" points="110.76 13.04 138.54 0.17 119.71 0.17 99.59 18.22 110.76 13.04"/><polygon class="i" points="80.11 166.41 105.86 184 105.89 184 105.89 183.97 93.54 159.42 63.13 154.83 80.11 166.41"/><polygon class="i" points="49.33 172.71 13.08 154.83 13.05 154.88 23.7 195.06 49.33 172.71"/><polygon class="i" points="92.51 99.4 85.58 82.87 71.88 100.68 92.51 99.4"/><polygon class="i" points="335.04 52.83 322.59 61.53 342.46 80.84 335.04 52.83"/><polygon class="i" points="82.26 105.9 58.63 118.29 83.73 123.83 82.26 105.9"/><polygon class="i" points="93.54 159.42 109.49 165.31 140.17 176.61 143.39 166.95 107.04 161.46 93.54 159.42"/><polygon class="i" points="310.88 28.77 306.86 0.17 299.41 17.73 310.88 28.77"/><polygon class="i" points="129.76 207.79 140.17 176.61 116.66 212.15 129.76 207.79"/><path class="i" d="M75.38,280.61c11-2.78,35.32-15.84,36.53-19.3L69.58,251Z"/><polygon class="i" points="342.46 0.17 306.86 0.17 325.36 10.81 342.46 0.17"/><polygon class="i" points="71.38 80.59 50.26 36.32 53.41 77.72 71.38 80.59"/><polygon class="i" points="344.74 25.01 342.46 0.17 325.36 10.81 344.74 25.01"/><polygon class="i" points="46.45 235.53 87.16 221.97 61.51 212.15 46.45 235.53"/><polygon class="i" points="87.16 221.97 46.45 235.53 46.43 235.55 46.41 235.55 0 251 69.58 251 87.16 221.97"/><polygon class="i" points="46.41 235.55 46.43 235.55 46.43 235.53 46.41 235.55"/><polygon class="i" points="70.06 191.13 38.1 196.9 61.51 212.15 70.06 191.13"/></g><path class="j" d="M166.79,209.46v31.18h-6.17v-4.81a14.74,14.74,0,0,1-4.22,3.68,12.06,12.06,0,0,1-6.47,1.72,12.94,12.94,0,0,1-7.16-2.08,14.62,14.62,0,0,1-5.14-5.76,18.18,18.18,0,0,1-1.9-8.43,17.54,17.54,0,0,1,2-8.4,14.36,14.36,0,0,1,5.41-5.7,15,15,0,0,1,7.84-2.05,11.28,11.28,0,0,1,5.73,1.42,13.51,13.51,0,0,1,4,3.33v-4.1Zm-15.44,26.13a8.94,8.94,0,0,0,5-1.4,9.47,9.47,0,0,0,3.33-3.8,12.1,12.1,0,0,0,1.18-5.43,11.85,11.85,0,0,0-1.18-5.35,9.51,9.51,0,0,0-3.33-3.77,9.53,9.53,0,0,0-9.86,0,9.27,9.27,0,0,0-3.32,3.74,12.94,12.94,0,0,0,0,10.84,9.44,9.44,0,0,0,3.32,3.8A8.73,8.73,0,0,0,151.35,235.59Z"/><path class="j" d="M204.68,216.05a6.88,6.88,0,0,0-1.46-.5,7.55,7.55,0,0,0-1.81-.21,7.83,7.83,0,0,0-3.74,1,8.33,8.33,0,0,0-3.06,2.79,7.54,7.54,0,0,0-1.21,4.3v17.23h-6.18V209.46h6.18v5.88a11.39,11.39,0,0,1,3.94-4.69,9.58,9.58,0,0,1,5.56-1.84,7.68,7.68,0,0,1,3.38.59Z"/><path class="j" d="M227.13,202.69a4.06,4.06,0,0,1-3.09-1.07,3.86,3.86,0,0,1-1-2.79,4,4,0,0,1,1-2.67,3.83,3.83,0,0,1,3.09-1.19,4.05,4.05,0,0,1,3.08,1.07,3.86,3.86,0,0,1,1,2.79,4,4,0,0,1-1,2.67A3.82,3.82,0,0,1,227.13,202.69Zm3.14,37.95h-6.11V209.46h6.11Z"/><path class="j" d="M280.45,209.46v31.18h-6.17v-4.81a14.74,14.74,0,0,1-4.22,3.68,12.06,12.06,0,0,1-6.47,1.72,12.94,12.94,0,0,1-7.16-2.08,14.62,14.62,0,0,1-5.14-5.76,18.18,18.18,0,0,1-1.9-8.43,17.54,17.54,0,0,1,2-8.4,14.36,14.36,0,0,1,5.41-5.7,15,15,0,0,1,7.84-2.05,11.28,11.28,0,0,1,5.73,1.42,13.51,13.51,0,0,1,3.95,3.33v-4.1ZM265,235.59a8.92,8.92,0,0,0,5-1.4,9.47,9.47,0,0,0,3.33-3.8,12.1,12.1,0,0,0,1.18-5.43,11.85,11.85,0,0,0-1.18-5.35,9.51,9.51,0,0,0-3.33-3.77,9.53,9.53,0,0,0-9.86,0,9.27,9.27,0,0,0-3.32,3.74,12.94,12.94,0,0,0,0,10.84,9.44,9.44,0,0,0,3.32,3.8A8.73,8.73,0,0,0,265,235.59Z"/><path class="k" d="M682.34,162.89,654.74,177,652,171.48l4.26-2.17a14.51,14.51,0,0,1-5.16-2.07,12,12,0,0,1-4.44-5,12.9,12.9,0,0,1-1.39-7.27,14.56,14.56,0,0,1,2.78-7.15,17.93,17.93,0,0,1,6.61-5.48,17.35,17.35,0,0,1,8.32-2.06,14.42,14.42,0,0,1,7.49,2.21,15,15,0,0,1,5.35,6,11.16,11.16,0,0,1,1.32,5.71,13.51,13.51,0,0,1-1.16,5l3.62-1.85ZM652.24,161a8.85,8.85,0,0,0,3.49,3.78,9.4,9.4,0,0,0,4.86,1.23,12,12,0,0,0,5.35-1.4,11.59,11.59,0,0,0,4.19-3.46,9.31,9.31,0,0,0,1.84-4.64,9.39,9.39,0,0,0-4.42-8.74,9.22,9.22,0,0,0-4.81-1.26,11.7,11.7,0,0,0-5.32,1.39,11.9,11.9,0,0,0-4.27,3.5,9.28,9.28,0,0,0-1.87,4.66A8.68,8.68,0,0,0,652.24,161Z"/><path class="k" d="M704.65,206.68l-27.6,14.06-2.78-5.47,4.25-2.17a14.51,14.51,0,0,1-5.16-2.07,12.06,12.06,0,0,1-4.44-4.95,12.9,12.9,0,0,1-1.39-7.27,14.56,14.56,0,0,1,2.78-7.15,18,18,0,0,1,6.61-5.48,17.38,17.38,0,0,1,8.32-2.06,14.42,14.42,0,0,1,7.49,2.21,15,15,0,0,1,5.35,6,11.16,11.16,0,0,1,1.32,5.71,13.51,13.51,0,0,1-1.16,5l3.63-1.85Zm-30.09-1.88a8.77,8.77,0,0,0,3.48,3.78,9.41,9.41,0,0,0,4.87,1.23,12,12,0,0,0,5.34-1.4,11.71,11.71,0,0,0,4.2-3.46,9.5,9.5,0,0,0,1.84-4.64,9.44,9.44,0,0,0-4.42-8.74,9.26,9.26,0,0,0-4.82-1.26,11.7,11.7,0,0,0-5.32,1.39,12,12,0,0,0-4.27,3.5,9.46,9.46,0,0,0-1.87,4.66A8.61,8.61,0,0,0,674.56,204.8Z"/><path class="k" d="M738.35,244.87l-38.91,19.82-2.75-5.42,3.89-2a13.31,13.31,0,0,1-4.85-2,11.63,11.63,0,0,1-4.12-4.66,14.08,14.08,0,0,1-1.59-7.66,14.58,14.58,0,0,1,2.69-7.33A18.84,18.84,0,0,1,707.56,228a14.8,14.8,0,0,1,7.45,2.1,13.68,13.68,0,0,1,5.22,5.68,13.13,13.13,0,0,1,1.51,6,13.33,13.33,0,0,1-.92,5.21l14.77-7.53ZM696.66,249a8.75,8.75,0,0,0,3.51,3.77,9.57,9.57,0,0,0,5,1.18,13.71,13.71,0,0,0,9.91-5,9.41,9.41,0,0,0,1.94-4.7,8.69,8.69,0,0,0-1-5.06,8.55,8.55,0,0,0-3.48-3.72,9.76,9.76,0,0,0-5-1.22,13.48,13.48,0,0,0-9.91,5.05A9.73,9.73,0,0,0,695.7,244,8.62,8.62,0,0,0,696.66,249Z"/><polygon class="l" points="686.84 258.84 692.3 269.24 678.43 267.3 686.84 258.84"/><path class="m" d="M678.43,267.3l13.87,1.94c-4.7,8.89-15.54,12.95-29.54,14.52L654.39,272,648.06,263l16.06,2.26Z"/><polygon class="n" points="679.95 245.67 686.84 258.84 675.07 246.44 679.95 245.67"/><polygon class="o" points="675.07 246.44 686.84 258.84 678.43 267.3 675.07 246.44"/><polygon class="n" points="672.04 230.56 679.95 245.67 671.27 238.57 672.04 230.56"/><polygon class="o" points="679.95 245.67 675.07 246.44 670.18 247.18 671.27 238.57 679.95 245.67"/><polygon class="p" points="675.07 246.44 678.43 267.3 670.18 247.18 675.07 246.44"/><polygon class="l" points="670.18 247.18 678.43 267.3 664.12 265.3 670.18 247.18"/><polygon class="p" points="662.86 213.09 672.04 230.56 659.19 222.24 662.86 213.09"/><polygon class="p" points="672.04 230.56 671.27 238.57 659.19 247.18 672.04 230.56"/><polygon class="l" points="672.04 230.56 659.19 247.18 659.19 222.24 672.04 230.56"/><polygon class="n" points="671.27 238.57 670.18 247.18 659.19 247.18 671.27 238.57"/><polygon class="m" points="670.18 247.18 664.12 265.3 643.13 247.18 659.19 247.18 670.18 247.18"/><polygon class="n" points="664.12 265.3 648.06 263.04 643.13 247.18 664.12 265.3"/><polygon class="o" points="651.29 191 662.86 213.09 646.39 221.48 651.29 191"/><polygon class="m" points="662.86 213.09 659.19 222.24 646.39 221.48 662.86 213.09"/><path class="n" d="M654.39,272l8.37,11.81a119.08,119.08,0,0,1-35.63-2.2l11.24-4Z"/><polygon class="o" points="659.19 222.24 659.19 247.18 640.48 235.23 659.19 222.24"/><polygon class="n" points="659.19 222.24 640.48 235.23 646.39 221.48 659.19 222.24"/><polygon class="p" points="659.19 247.18 643.13 247.18 640.48 235.23 659.19 247.18"/><polygon class="m" points="655.58 94.35 655.58 120.13 630.69 69.23 655.58 94.35"/><polygon class="n" points="655.58 76.18 655.58 94.35 630.69 69.23 655.58 76.18"/><polygon class="p" points="655.58 47.55 655.58 76.18 630.69 69.23 655.58 47.55"/><polygon class="p" points="630.69 69.23 655.58 120.13 614.6 99.94 630.69 69.23"/><polygon class="l" points="655.58 47.55 630.69 69.23 618.59 79.78 603.6 54.2 655.58 47.55"/><polygon class="p" points="655.58 47.55 603.6 54.2 610.01 39.24 655.58 47.55"/><polygon class="n" points="655.58 47.55 610.01 39.24 598.27 0 655.58 47.55"/><polygon class="l" points="655.58 120.13 624.05 139.04 598.45 130.21 655.58 120.13"/><polygon class="n" points="655.58 120.13 598.45 130.21 620.44 114.43 655.58 120.13"/><polygon class="o" points="655.58 120.13 620.44 114.43 614.6 99.94 655.58 120.13"/><polygon class="o" points="648.06 263.04 654.38 271.95 638.37 277.6 648.06 263.04"/><polygon class="m" points="646.25 181.38 651.29 191 647.51 196.81 646.25 181.38"/><polygon class="l" points="651.29 191 646.39 221.48 634.53 216.76 636.24 214.13 638.94 210.01 638.94 209.99 647.51 196.81 651.29 191"/><polygon class="l" points="643.13 247.18 648.06 263.04 630.87 255.21 643.13 247.18"/><polygon class="p" points="648.06 263.04 638.37 277.6 633.82 264 630.87 255.21 648.06 263.04"/><polygon class="n" points="647.51 196.81 638.94 209.99 632.11 191.88 647.51 196.81"/><polygon class="o" points="646.25 181.38 647.51 196.81 632.11 191.88 646.25 181.38"/><polygon class="p" points="646.39 221.48 640.48 235.23 634.53 216.76 646.39 221.48"/><polygon class="n" points="633.87 157.75 646.25 181.38 625.16 181.38 613.11 181.38 626.88 165.72 627.16 165.4 627.16 165.38 633.87 157.75"/><polygon class="l" points="646.25 181.38 632.11 191.88 617.97 202.37 625.16 181.38 646.25 181.38"/><polygon class="o" points="640.48 235.23 643.13 247.18 630.87 255.21 640.48 235.23"/><polygon class="o" points="634.53 216.76 640.48 235.23 622.84 230.19 634.53 216.76"/><path class="m" d="M640.48,235.23l-9.61,20-9.09.12s0-.05,0-.05l2.25-2.42c1-1.06,2.27-2.42,3.62-3.89,2.75-2.93,5.95-6.38,8.45-9.07l.73-.78,2.38-2.57c.3-.31.55-.6.75-.81Z"/><path class="p" d="M640.48,235.23l-.48.51-.75.81-2.38,2.57-.73.78L627.69,249l-3.62,3.89-2.25,2.42-.05.05-14.43-10.4Z"/><polygon class="n" points="640.48 235.23 607.34 244.93 622.84 230.19 640.48 235.23"/><path class="p" d="M639.25,236.55l.75-.81C639.8,236,639.55,236.24,639.25,236.55Z"/><path class="p" d="M636.87,239.12l2.38-2.57Z"/><polygon class="o" points="638.94 210.01 636.24 214.13 638.92 210.01 638.94 210.01"/><polygon class="m" points="638.94 209.99 638.94 210.01 638.92 210.01 617.97 202.37 632.11 191.88 638.94 209.99"/><polygon class="o" points="638.92 210.01 636.24 214.13 634.53 216.76 617.97 202.37 638.92 210.01"/><polygon class="n" points="633.82 264 638.37 277.6 616.53 271.56 616.52 271.56 633.82 264"/><polygon class="l" points="638.37 277.6 627.13 281.56 616.53 271.56 638.37 277.6"/><path class="p" d="M627.69,249l8.45-9.07C633.64,242.59,630.44,246,627.69,249Z"/><polygon class="n" points="634.53 216.76 622.84 230.19 617.97 202.37 634.53 216.76"/><polygon class="m" points="624.05 139.04 633.87 157.75 627.16 165.38 624.05 139.04"/><polygon class="n" points="630.87 255.21 633.82 264 621.78 255.33 630.87 255.21"/><polygon class="m" points="633.82 264 616.52 271.56 616.05 271.12 604.91 260.61 633.82 264"/><polygon class="l" points="633.82 264 604.91 260.61 607.34 244.93 621.76 255.33 621.78 255.33 633.82 264"/><polygon class="m" points="630.69 69.23 614.6 99.94 618.59 79.78 630.69 69.23"/><path class="p" d="M624.07,252.86l3.62-3.89C626.34,250.44,625.08,251.8,624.07,252.86Z"/><polygon class="o" points="627.16 165.38 627.16 165.4 626.88 165.72 627.16 165.38"/><polygon class="p" points="624.05 139.04 627.16 165.38 610.01 144.59 624.05 139.04"/><polygon class="o" points="627.16 165.38 626.88 165.72 613.11 181.38 610.01 144.59 627.16 165.38"/><polygon class="l" points="627.13 281.56 616.52 271.56 616.53 271.56 627.13 281.56"/><path class="o" d="M616.52,271.55l10.61,10c-8.54-1.88-16-4.33-21.67-7.67l-12.67-24.71,12.12,11.43,11.14,10.51.45.43Z"/><polygon class="o" points="625.16 181.38 617.97 202.37 613.11 181.38 625.16 181.38"/><polygon class="n" points="624.05 139.04 610.01 144.59 604.46 143.23 624.05 139.04"/><polygon class="o" points="624.05 139.04 604.46 143.23 604.45 143.23 598.45 130.21 624.05 139.04"/><polygon class="l" points="617.97 202.37 622.84 230.19 601.58 215.69 617.97 202.37"/><polygon class="m" points="622.84 230.19 607.34 244.93 597.84 229.94 622.84 230.19"/><polygon class="p" points="622.84 230.19 597.84 229.94 601.58 215.69 622.84 230.19"/><path class="p" d="M621.82,255.28s0,0,0,.05h0Z"/><polygon class="l" points="614.6 99.94 620.44 114.43 601.58 113.03 614.6 99.94"/><polygon class="m" points="620.44 114.43 598.45 130.21 601.58 113.03 620.44 114.43"/><polygon class="m" points="603.6 54.2 618.59 79.78 601.58 67.94 603.6 54.2"/><polygon class="o" points="618.59 79.78 614.6 99.94 611.2 86.88 618.59 79.78"/><polygon class="n" points="618.59 79.78 611.2 86.88 601.58 96.12 601.58 67.94 618.59 79.78"/><polygon class="m" points="613.11 181.38 617.97 202.37 601.58 215.69 613.11 181.38"/><polygon class="m" points="616.05 271.12 616.52 271.56 616.5 271.56 616.05 271.12"/><polygon class="n" points="611.2 86.88 614.6 99.94 601.58 113.03 611.2 86.88"/><polygon class="l" points="610.01 144.59 613.11 181.38 604.21 164.92 604.21 164.9 595.79 149.32 610.01 144.59"/><polygon class="p" points="604.21 164.92 613.11 181.38 601.58 215.69 602.04 206.86 602.16 204.69 602.31 201.71 604.21 164.92"/><polygon class="m" points="611.2 86.88 601.58 113.03 601.58 96.12 611.2 86.88"/><polygon class="m" points="598.27 0 610.01 39.24 593.04 22.16 598.27 0"/><polygon class="o" points="593.04 22.16 610.01 39.24 603.6 54.2 593.04 22.16"/><polygon class="p" points="610.01 144.59 581.54 154.04 575.83 155.93 559.09 161.49 569.71 134.72 604.45 143.23 604.46 143.23 610.01 144.59"/><polygon class="o" points="597.84 229.94 607.34 244.93 592.79 249.19 597.84 229.94"/><polygon class="n" points="607.34 244.93 604.91 260.61 592.79 249.19 607.34 244.93"/><polygon class="n" points="598.45 130.21 604.45 143.23 569.71 134.72 598.45 130.21"/><polygon class="n" points="604.21 164.92 602.31 201.71 602.14 204.68 594.51 185.73 604.21 164.92"/><polygon class="o" points="604.21 164.9 604.21 164.92 594.51 185.73 589.23 177.29 604.21 164.9"/><polygon class="p" points="604.21 164.9 589.23 177.29 595.79 149.32 604.21 164.9"/><polygon class="l" points="593.04 22.16 603.6 54.2 576.83 31.79 593.04 22.16"/><polygon class="p" points="603.6 54.2 601.58 67.94 576.83 31.79 603.6 54.2"/><polygon class="n" points="602.31 201.71 602.16 204.69 602.14 204.68 602.31 201.71"/><polygon class="l" points="602.14 204.68 602.16 204.69 602.14 204.69 602.14 204.68"/><polygon class="m" points="602.16 204.69 602.04 206.86 602.14 204.69 602.16 204.69"/><polygon class="l" points="594.51 185.73 602.14 204.68 559.52 184.33 594.51 185.73"/><polygon class="m" points="602.14 204.68 602.14 204.69 602.04 206.86 601.58 215.69 559.52 184.33 602.14 204.68"/><polygon class="m" points="576.83 31.79 601.58 67.94 576.83 47.55 576.83 31.79"/><polygon class="o" points="601.58 113.03 598.45 130.21 589.23 120.13 601.58 113.03"/><polygon class="n" points="601.58 215.69 597.84 229.94 592.79 249.19 574.96 214.41 601.58 215.69"/><polygon class="o" points="601.58 215.69 574.96 214.41 559.52 184.33 601.58 215.69"/><polygon class="p" points="589.23 120.13 598.45 130.21 569.71 134.72 589.23 120.13"/><polygon class="p" points="598.27 0 593.04 22.16 579.28 5.76 574.42 0 598.27 0"/><polygon class="n" points="595.79 149.32 589.23 177.29 575.83 155.93 581.54 154.04 595.79 149.32"/><polygon class="m" points="589.23 177.29 594.51 185.73 559.52 184.33 575.83 155.93 589.23 177.29"/><polygon class="n" points="579.28 5.76 593.04 22.16 558.43 27.6 579.28 5.76"/><polygon class="p" points="593.04 22.16 576.83 31.79 558.43 27.6 593.04 22.16"/><polygon class="l" points="589.23 120.13 569.71 134.72 539.55 120.13 589.23 120.13"/><polygon class="l" points="574.42 0 579.28 5.76 579.26 5.76 574.42 0"/><polygon class="o" points="579.28 5.76 558.43 27.6 550.55 10.43 579.26 5.76 579.28 5.76"/><polygon class="l" points="574.42 0 579.26 5.76 550.55 10.43 574.42 0"/><polygon class="o" points="576.83 31.79 576.83 47.55 539.55 47.55 559.21 39.24 576.83 31.79"/><polygon class="l" points="576.83 31.79 559.21 39.24 558.43 27.6 576.83 31.79"/><polygon class="o" points="575.83 155.93 559.52 184.33 552.3 178.61 575.83 155.93"/><polygon class="l" points="575.83 155.93 552.3 178.61 559.09 161.49 575.83 155.93"/><polygon class="m" points="574.42 0 550.55 10.43 540.32 0 574.42 0"/><polygon class="n" points="569.71 134.72 559.09 161.49 552.3 178.61 541.87 170.33 569.71 134.72"/><polygon class="m" points="569.71 134.72 541.87 170.33 534.9 149.32 569.71 134.72"/><polygon class="o" points="569.71 134.72 534.9 149.32 539.55 120.13 569.71 134.72"/><polygon class="p" points="558.43 27.6 559.21 39.24 541.87 32.95 558.43 27.6"/><polygon class="m" points="559.21 39.24 539.55 47.55 541.87 32.95 559.21 39.24"/><polygon class="l" points="550.55 10.43 558.43 27.6 522.2 14.77 550.55 10.43"/><polygon class="o" points="558.43 27.6 541.87 32.95 528.76 29.54 558.43 27.6"/><polygon class="m" points="558.43 27.6 528.76 29.54 522.2 14.77 558.43 27.6"/><polygon class="p" points="540.32 0 550.55 10.43 522.2 14.77 540.32 0"/><polygon class="n" points="541.87 32.95 539.55 47.55 523.56 47.55 541.87 32.95"/><polygon class="n" points="534.9 149.32 541.87 170.33 525.13 174.71 515.03 177.32 534.9 149.32"/><polygon class="l" points="541.87 32.95 523.56 47.55 508.41 24.24 528.76 29.54 541.87 32.95"/><polygon class="o" points="541.87 170.33 524.04 184.33 488.19 184.33 515.01 177.34 515.03 177.34 525.13 174.71 541.87 170.33"/><polygon class="n" points="540.32 0 522.2 14.77 515.64 0 540.32 0"/><polygon class="p" points="539.55 120.13 534.9 149.32 498.92 120.13 539.55 120.13"/><polygon class="l" points="534.9 149.32 515.03 177.32 507.41 152.49 534.9 149.32"/><polygon class="n" points="534.9 149.32 507.41 152.49 492.89 139.62 534.9 149.32"/><polygon class="m" points="534.9 149.32 492.89 139.62 498.92 120.13 534.9 149.32"/><polygon class="o" points="522.2 14.77 528.76 29.54 508.41 24.24 515.64 0 522.2 14.77"/><polygon class="o" points="525.13 174.71 515.03 177.34 515.03 177.32 525.13 174.71"/><path class="p" d="M524,255.21v18.68c-8.94,6.13-19.61,9-31.26,10l24.42-22.4Z"/><polygon class="l" points="524.04 228.02 524.04 255.21 517.2 261.49 524.04 228.02"/><polygon class="m" points="524.04 193.78 524.04 228.02 501.04 219.88 524.04 193.78"/><polygon class="m" points="524.04 184.33 524.04 193.78 515.64 197.67 524.04 184.33"/><polygon class="n" points="524.04 184.33 515.64 197.67 499.22 189.69 524.04 184.33"/><polygon class="p" points="524.04 193.78 501.04 219.88 492.78 208.29 515.64 197.67 524.04 193.78"/><polygon class="m" points="524.04 228.02 517.2 261.49 498.26 254.65 514.14 238.24 524.04 228.02"/><polygon class="n" points="524.04 228.02 514.14 238.24 501.04 219.88 524.04 228.02"/><polygon class="m" points="524.04 184.33 499.22 189.69 488.19 184.33 524.04 184.33"/><polygon class="m" points="508.41 24.24 523.56 47.55 470.87 32.95 508.41 24.24"/><polygon class="o" points="523.56 47.55 498.92 67.94 468.67 56.94 492.78 52.82 523.56 47.55"/><polygon class="p" points="523.56 47.55 492.78 52.82 470.87 32.95 523.56 47.55"/><polygon class="n" points="517.2 261.49 492.78 283.89 492.78 266.36 517.2 261.49"/><polygon class="l" points="517.2 261.49 492.78 266.36 486.57 250.43 498.26 254.65 517.2 261.49"/><polygon class="p" points="515.64 0 508.41 24.24 495.61 0 515.64 0"/><polygon class="l" points="515.64 197.67 492.78 208.29 488.19 184.33 499.22 189.69 515.64 197.67"/><polygon class="o" points="515.03 177.32 515.03 177.34 515.01 177.34 486.85 159.11 507.41 152.49 515.03 177.32"/><polygon class="m" points="486.85 159.11 515.01 177.34 484.66 167.62 486.85 159.11"/><polygon class="l" points="515.01 177.34 488.19 184.33 484.66 167.62 515.01 177.34"/><polygon class="m" points="501.04 219.88 514.14 238.24 498.26 230.49 492.78 208.29 501.04 219.88"/><polygon class="n" points="514.14 238.24 498.26 254.65 486.57 250.43 514.14 238.24"/><polygon class="p" points="514.14 238.24 486.57 250.43 498.26 230.49 514.14 238.24"/><polygon class="n" points="495.61 0 508.41 24.24 470.87 32.95 495.61 0"/><polygon class="m" points="507.41 152.49 486.85 159.11 492.89 139.62 507.41 152.49"/><polygon class="n" points="498.92 67.94 498.92 120.13 483.62 111.34 498.92 67.94"/><polygon class="l" points="498.92 67.94 483.62 111.34 452.29 83.83 498.92 67.94"/><polygon class="o" points="498.92 120.13 492.89 139.62 486.85 159.11 483.45 155.93 498.92 120.13"/><polygon class="l" points="498.92 120.13 483.45 155.93 471.35 144.59 485.13 132.37 485.14 132.37 489.81 128.21 498.92 120.13"/><polygon class="p" points="498.92 67.94 452.29 83.83 442.8 47.55 468.67 56.94 498.92 67.94"/><polygon class="o" points="498.92 120.13 489.81 128.21 485.14 132.35 483.62 111.34 498.92 120.13"/><polygon class="o" points="492.78 208.29 498.26 230.49 468.67 240.01 482.68 221.58 492.78 208.29"/><polygon class="l" points="498.26 230.49 486.57 250.43 459.51 242.96 468.67 240.01 498.26 230.49"/><polygon class="o" points="495.61 0 470.87 32.95 464.96 27.6 495.61 0"/><polygon class="o" points="492.78 266.36 492.78 283.89 469.38 257.89 483.62 263.04 492.78 266.36"/><polygon class="n" points="488.19 184.33 492.78 208.29 470.51 204.69 479.56 194.26 488.19 184.33"/><polygon class="l" points="492.78 208.29 482.68 221.58 452.26 201.75 470.51 204.69 492.78 208.29"/><polygon class="m" points="486.57 250.43 492.78 266.36 483.62 263.04 486.57 250.43"/><path class="l" d="M469.38,257.89l23.4,26c-19.84,1.09-36.8-2.37-50-11.76Z"/><polygon class="n" points="492.78 52.82 468.67 56.94 466.43 39.24 492.78 52.82"/><polygon class="l" points="492.78 52.82 466.43 39.24 464.96 27.6 470.87 32.95 492.78 52.82"/><polygon class="o" points="489.81 128.21 485.14 132.37 485.14 132.35 489.81 128.21"/><polygon class="n" points="484.66 167.62 488.19 184.33 481.12 181.38 484.66 167.62"/><polygon class="o" points="488.19 184.33 479.56 194.26 461.76 173.31 481.12 181.38 488.19 184.33"/><polygon class="p" points="486.85 159.11 484.66 167.62 481.12 181.38 461.76 173.31 486.85 159.11"/><polygon class="m" points="486.85 159.11 461.76 173.31 471.35 144.59 483.45 155.93 486.85 159.11"/><polygon class="p" points="486.57 250.43 483.62 263.04 469.38 257.89 486.57 250.43"/><polygon class="n" points="486.57 250.43 469.38 257.89 459.51 242.96 486.57 250.43"/><polygon class="l" points="483.62 111.34 485.14 132.35 485.14 132.37 485.13 132.37 454.54 134.72 483.62 111.34"/><polygon class="m" points="485.13 132.37 471.35 144.59 454.54 134.72 485.13 132.37"/><polygon class="n" points="483.62 111.34 454.54 134.72 442.8 127.83 463.2 119.58 483.62 111.34"/><polygon class="m" points="483.62 111.34 463.2 119.58 442.8 97.25 483.62 111.34"/><polygon class="o" points="483.62 111.34 442.8 97.25 452.29 83.83 483.62 111.34"/><polygon class="n" points="482.68 221.58 468.67 240.01 460.04 219.88 482.68 221.58"/><polygon class="m" points="482.68 221.58 460.04 219.88 452.26 201.75 482.68 221.58"/><polygon class="n" points="461.76 173.31 479.56 194.26 450.36 197.34 461.76 173.31"/><polygon class="m" points="479.56 194.26 470.51 204.69 452.26 201.75 479.56 194.26"/><polygon class="o" points="479.56 194.26 452.26 201.75 442.8 198.15 479.56 194.26"/><polygon class="n" points="471.35 144.59 461.76 173.31 442.8 173.31 471.35 144.59"/><polygon class="o" points="471.35 144.59 442.8 173.31 442.8 127.83 454.54 134.72 471.35 144.59"/><polygon class="m" points="459.51 242.96 469.38 257.89 442.8 248.03 459.51 242.96"/><polygon class="p" points="469.38 257.89 442.8 272.13 442.8 248.03 469.38 257.89"/><polygon class="m" points="466.43 39.24 468.67 56.94 442.8 47.55 464.96 27.6 466.43 39.24"/><polygon class="p" points="460.04 219.88 468.67 240.01 448.57 229.65 448.55 229.65 452.26 201.75 460.04 219.88"/><polygon class="n" points="468.67 240.01 459.51 242.96 448.57 229.65 468.67 240.01"/><polygon class="p" points="442.8 97.25 463.2 119.58 442.8 127.83 442.8 97.25"/><polygon class="l" points="461.76 173.31 450.36 197.34 442.8 198.15 461.76 173.31"/><polygon class="m" points="461.76 173.31 442.8 198.15 442.8 173.31 461.76 173.31"/><polygon class="n" points="448.57 229.65 459.51 242.96 448.55 229.65 448.57 229.65"/><polygon class="o" points="448.55 229.65 459.51 242.96 442.8 248.03 442.8 222.66 448.55 229.65"/><polygon class="m" points="442.8 47.55 452.29 83.83 442.8 97.25 442.8 47.55"/><polygon class="m" points="452.26 201.75 448.55 229.65 442.8 222.66 452.26 201.75"/><polygon class="n" points="452.26 201.75 442.8 222.66 442.8 198.15 452.26 201.75"/></g></svg>