<?xml version="1.0" standalone="no"?>
<!DOCTYPE svg PUBLIC "-//W3C//DTD SVG 20010904//EN"
 "http://www.w3.org/TR/2001/REC-SVG-20010904/DTD/svg10.dtd">
<svg version="1.0" xmlns="http://www.w3.org/2000/svg"
 width="576.000000pt" height="576.000000pt" viewBox="0 0 576.000000 576.000000"
 preserveAspectRatio="xMidYMid meet">
<metadata>
Created by potrace 1.11, written by Peter Selinger 2001-2013
</metadata>
<g transform="translate(0.000000,576.000000) scale(0.100000,-0.100000)"
fill="#000000" stroke="none">
<path d="M0 2880 l0 -2870 2875 0 2875 0 0 2870 0 2870 -2875 0 -2875 0 0
-2870z m2173 1431 c54 -91 161 -274 240 -406 l143 -240 319 0 320 0 244 408
245 407 340 0 341 0 301 -402 300 -403 37 -280 c20 -154 62 -462 92 -685 30
-223 69 -508 85 -635 16 -126 36 -274 43 -328 l14 -99 -47 -56 c-155 -185
-375 -302 -570 -302 -184 0 -371 65 -572 198 l-67 44 -52 157 c-29 86 -109
325 -178 531 l-126 375 -749 0 -749 0 -14 -39 c-7 -22 -15 -49 -18 -60 -2 -12
-76 -235 -164 -496 l-161 -475 -48 -33 c-68 -48 -224 -125 -324 -160 -109 -39
-187 -49 -308 -40 -178 12 -299 74 -462 239 -69 68 -108 115 -108 128 0 12 27
223 60 469 158 1165 211 1545 218 1558 4 8 138 189 297 402 l290 389 346 0
346 0 96 -166z"/>
</g>
</svg>
