<svg xmlns="http://www.w3.org/2000/svg" viewBox="0 0 68.031 81.58"><defs><style>.a{isolation:isolate;}.b{fill:#f2911c;}.c{fill:#fff;}.d{fill:#21294d;}.e{fill:none;}.f{fill:#f9b219;}.g{fill:#fec81a;}.h{fill:#f39f07;}.i{fill:#ef7a23;}.j{fill:#f28d24;}.k{fill:#009fe3;}.l{opacity:0.1;mix-blend-mode:overlay;}.m{fill:#1d1d1b;}</style></defs><g class="a"><rect class="b" width="68.031" height="81.58" rx="3.967"/><rect class="c" x="3.941" y="3.929" width="60.15" height="59.956" rx="3.967"/><path class="d" d="M14.234,71.594l-.33-.87H12.439l-.33.87H11.56l1.355-3.5h.55l1.345,3.5ZM12.9,69.5l-.264.7h1.07l-.275-.719c-.043-.116-.087-.242-.13-.377s-.087-.272-.13-.408q-.071.21-.138.42C12.992,69.259,12.948,69.387,12.9,69.5Z"/><path class="d" d="M17.035,70.549v-1.58h.515v2.625h-.515v-.42a1.05,1.05,0,0,1-.338.327.966.966,0,0,1-.532.143.86.86,0,0,1-.665-.28,1.109,1.109,0,0,1-.255-.775v-1.62h.515v1.48a1.061,1.061,0,0,0,.062.37.587.587,0,0,0,.2.272.571.571,0,0,0,.353.1.686.686,0,0,0,.465-.17A.6.6,0,0,0,17.035,70.549Z"/><path class="d" d="M18.58,72.029a1.216,1.216,0,0,0,.375.185,1.5,1.5,0,0,0,.441.07.886.886,0,0,0,.62-.2.77.77,0,0,0,.214-.592v-.32a.869.869,0,0,1-.2.228,1.115,1.115,0,0,1-.3.175,1.036,1.036,0,0,1-.366.067,1.262,1.262,0,0,1-1.128-.66,1.551,1.551,0,0,1,0-1.412,1.27,1.27,0,0,1,.462-.483,1.25,1.25,0,0,1,.654-.176,1.061,1.061,0,0,1,.532.133,1.185,1.185,0,0,1,.352.288v-.365h.515v2.465a1.373,1.373,0,0,1-.187.758,1.109,1.109,0,0,1-.5.42,1.675,1.675,0,0,1-.667.132,1.883,1.883,0,0,1-.558-.087,1.337,1.337,0,0,1-.447-.228Zm.835-2.645a.789.789,0,0,0-.427.117.834.834,0,0,0-.3.321.963.963,0,0,0-.107.457.952.952,0,0,0,.107.455.837.837,0,0,0,.3.317.79.79,0,0,0,.427.118.827.827,0,0,0,.438-.115.807.807,0,0,0,.293-.317,1.065,1.065,0,0,0,0-.918.824.824,0,0,0-.293-.318A.81.81,0,0,0,19.415,69.384Z"/><path class="d" d="M22.8,68.924a.833.833,0,0,1,.519.148.807.807,0,0,1,.281.4,1.075,1.075,0,0,1,.205-.253,1.2,1.2,0,0,1,.314-.212.9.9,0,0,1,.386-.085.838.838,0,0,1,.529.148.773.773,0,0,1,.268.394,1.838,1.838,0,0,1,.078.553v1.575H24.86V70.049a.893.893,0,0,0-.11-.471.447.447,0,0,0-.414-.179.656.656,0,0,0-.478.182.6.6,0,0,0-.187.443v1.57H23.15V70.038a.817.817,0,0,0-.12-.46.441.441,0,0,0-.394-.179.673.673,0,0,0-.34.085.629.629,0,0,0-.235.222.573.573,0,0,0-.085.308v1.58h-.521V68.969h.521v.42a1.159,1.159,0,0,1,.337-.322A.862.862,0,0,1,22.8,68.924Z"/><path class="d" d="M28.325,71.248h0a1.446,1.446,0,0,1-.44.276,1.546,1.546,0,0,1-1.308-.053A1.236,1.236,0,0,1,26.085,71a1.343,1.343,0,0,1-.175-.687,1.459,1.459,0,0,1,.185-.753,1.273,1.273,0,0,1,.49-.479,1.355,1.355,0,0,1,.665-.168,1.135,1.135,0,0,1,.6.163,1.185,1.185,0,0,1,.43.447,1.333,1.333,0,0,1,.16.665l-.005.22h-2.01a.84.84,0,0,0,.293.562.939.939,0,0,0,.627.208.857.857,0,0,0,.445-.1,2.051,2.051,0,0,0,.28-.2ZM27.25,69.384a.951.951,0,0,0-.515.138.684.684,0,0,0-.29.472h1.47v-.035a.581.581,0,0,0-.112-.3.685.685,0,0,0-.553-.275Z"/><path class="d" d="M30.375,68.913a.906.906,0,0,1,.55.146.754.754,0,0,1,.272.39,1.8,1.8,0,0,1,.077.545v1.6H30.76V70.029a1.081,1.081,0,0,0-.05-.34.457.457,0,0,0-.17-.236.507.507,0,0,0-.335-.069.72.72,0,0,0-.355.085.666.666,0,0,0-.245.225.561.561,0,0,0-.09.31v1.59H29V68.969h.515v.415a1.1,1.1,0,0,1,.349-.328A.954.954,0,0,1,30.375,68.913Z"/><path class="d" d="M32.814,71.594H32.3V69.469h-.545v-.5H32.3V68.3h.515v.67h.61v.5h-.61Z"/><path class="d" d="M36.124,71.248h-.005a1.446,1.446,0,0,1-.44.276,1.546,1.546,0,0,1-1.308-.053A1.236,1.236,0,0,1,33.884,71a1.343,1.343,0,0,1-.175-.687,1.459,1.459,0,0,1,.185-.753,1.273,1.273,0,0,1,.49-.479,1.355,1.355,0,0,1,.665-.168,1.13,1.13,0,0,1,.6.163,1.18,1.18,0,0,1,.431.447,1.333,1.333,0,0,1,.16.665l-.006.22H34.224a.84.84,0,0,0,.293.562.939.939,0,0,0,.627.208.857.857,0,0,0,.445-.1,2.051,2.051,0,0,0,.28-.2Zm-1.075-1.864a.951.951,0,0,0-.515.138.684.684,0,0,0-.29.472h1.47v-.035a.581.581,0,0,0-.112-.3.689.689,0,0,0-.553-.275Z"/><path class="d" d="M39.259,67.894v3.7h-.516v-.37a1.094,1.094,0,0,1-.34.287.976.976,0,0,1-.509.133,1.2,1.2,0,0,1-.64-.175,1.232,1.232,0,0,1-.45-.485,1.593,1.593,0,0,1,0-1.412,1.249,1.249,0,0,1,.444-.483,1.169,1.169,0,0,1,.631-.176,1.154,1.154,0,0,1,.864.386V67.894Zm-1.3,3.3a.735.735,0,0,0,.42-.121.787.787,0,0,0,.279-.33,1.149,1.149,0,0,0,0-.942.8.8,0,0,0-.279-.327.742.742,0,0,0-.42-.12.73.73,0,0,0-.415.12.821.821,0,0,0-.283.327,1.128,1.128,0,0,0,0,.942.81.81,0,0,0,.283.33A.723.723,0,0,0,37.964,71.2Z"/><path class="d" d="M44.094,69.209a1.006,1.006,0,0,1-.188.585,1.131,1.131,0,0,1-.487.4l.814,1.405-.654-.005-.74-1.315h-.8v1.315H41.5v-3.5h1.49a1.109,1.109,0,0,1,.528.135,1.132,1.132,0,0,1,.415.385A1.071,1.071,0,0,1,44.094,69.209Zm-1.2-.595h-.859v1.145h1a.442.442,0,0,0,.372-.17.607.607,0,0,0,.133-.386.531.531,0,0,0-.19-.431A.686.686,0,0,0,42.9,68.614Z"/><path class="d" d="M47,71.248h-.005a1.446,1.446,0,0,1-.44.276,1.546,1.546,0,0,1-1.308-.053A1.236,1.236,0,0,1,44.759,71a1.343,1.343,0,0,1-.175-.687,1.459,1.459,0,0,1,.185-.753,1.273,1.273,0,0,1,.49-.479,1.355,1.355,0,0,1,.665-.168,1.13,1.13,0,0,1,.6.163,1.18,1.18,0,0,1,.431.447,1.333,1.333,0,0,1,.16.665l-.006.22H45.1a.84.84,0,0,0,.293.562.939.939,0,0,0,.627.208.857.857,0,0,0,.445-.1,2.051,2.051,0,0,0,.28-.2Zm-1.075-1.864a.951.951,0,0,0-.515.138.684.684,0,0,0-.29.472h1.47v-.035a.581.581,0,0,0-.112-.3.689.689,0,0,0-.553-.275Z"/><path class="d" d="M50.118,68.969v2.625H49.6v-.405a1.2,1.2,0,0,1-.356.309,1.012,1.012,0,0,1-.545.146,1.1,1.1,0,0,1-.6-.175,1.245,1.245,0,0,1-.433-.485,1.534,1.534,0,0,1-.159-.71,1.47,1.47,0,0,1,.165-.707,1.216,1.216,0,0,1,.454-.481,1.267,1.267,0,0,1,.66-.173.936.936,0,0,1,.483.121,1.147,1.147,0,0,1,.333.28v-.345Zm-1.3,2.2a.752.752,0,0,0,.42-.118.792.792,0,0,0,.281-.319,1.033,1.033,0,0,0,.1-.458,1,1,0,0,0-.1-.45.8.8,0,0,0-.281-.318.751.751,0,0,0-.42-.117.743.743,0,0,0-.41.115.769.769,0,0,0-.279.315,1,1,0,0,0-.1.455,1.021,1.021,0,0,0,.1.458.78.78,0,0,0,.279.319A.737.737,0,0,0,48.818,71.169Z"/><path class="d" d="M50.839,71.594v-3.7h.515v3.7Z"/><path class="d" d="M52.434,68.4a.339.339,0,0,1-.26-.09.33.33,0,0,1-.085-.235.336.336,0,0,1,.085-.225.322.322,0,0,1,.26-.1.34.34,0,0,1,.259.091.326.326,0,0,1,.085.235.336.336,0,0,1-.085.225A.319.319,0,0,1,52.434,68.4Zm.264,3.195h-.514V68.969H52.7Z"/><path class="d" d="M54.318,71.594H53.8V69.469h-.545v-.5H53.8V68.3h.515v.67h.61v.5h-.61Z"/><path class="d" d="M55.838,72.744l.431-.985.014-.035-1.219-2.755h.6l.82,1.93a.582.582,0,0,1,.03.075l.035.1c.014-.037.026-.073.038-.108s.023-.069.037-.1l.685-1.9h.61l-1.08,2.625-.444,1.15Z"/><path class="d" d="M26.225,74.094a.963.963,0,0,1,.514.143,1.031,1.031,0,0,1,.375.384,1.133,1.133,0,0,1,0,1.095,1.056,1.056,0,0,1-.375.393.964.964,0,0,1-.514.145H25.34v1.34H24.8v-3.5Zm-.01,1.64a.421.421,0,0,0,.245-.077.58.58,0,0,0,.177-.2.594.594,0,0,0,.067-.283.567.567,0,0,0-.144-.395.45.45,0,0,0-.345-.16H25.34v1.12Z"/><path class="d" d="M30.305,76.279a1.394,1.394,0,0,1-.178.708,1.284,1.284,0,0,1-.48.482,1.324,1.324,0,0,1-.677.175,1.338,1.338,0,0,1-.68-.175,1.275,1.275,0,0,1-.482-.482,1.5,1.5,0,0,1,0-1.415,1.285,1.285,0,0,1,.482-.483,1.338,1.338,0,0,1,.68-.176,1.325,1.325,0,0,1,.677.176,1.294,1.294,0,0,1,.48.483A1.39,1.39,0,0,1,30.305,76.279Zm-.526,0a.932.932,0,0,0-.1-.467.8.8,0,0,0-.292-.316.783.783,0,0,0-.415-.112.785.785,0,0,0-.713.428.954.954,0,0,0-.1.467.943.943,0,0,0,.1.463.813.813,0,0,0,.295.317.78.78,0,0,0,.418.115.767.767,0,0,0,.415-.115.82.82,0,0,0,.292-.317A.921.921,0,0,0,29.779,76.279Z"/><path class="d" d="M32.335,75.525a.516.516,0,0,0-.123-.043.627.627,0,0,0-.152-.018.676.676,0,0,0-.315.082.727.727,0,0,0-.258.236.634.634,0,0,0-.1.362v1.45h-.52V74.969h.52v.5a.956.956,0,0,1,.333-.395.8.8,0,0,1,.467-.156.654.654,0,0,1,.285.051Z"/><path class="d" d="M33.819,77.594H33.3V75.469h-.545v-.5H33.3V74.3h.515v.67h.61v.5h-.61Z"/><path class="d" d="M36.2,75.49h-.62v2.1h-.52v-2.1h-.42v-.476h.42v-.34a.745.745,0,0,1,.78-.775.67.67,0,0,1,.333.075.743.743,0,0,1,.192.145l-.175.395a.6.6,0,0,0-.13-.093.342.342,0,0,0-.16-.042.311.311,0,0,0-.25.085.322.322,0,0,0-.07.21v.34h.62Z"/><path class="d" d="M39.154,76.279a1.394,1.394,0,0,1-.177.708,1.3,1.3,0,0,1-.48.482,1.4,1.4,0,0,1-1.357,0,1.277,1.277,0,0,1-.483-.482,1.5,1.5,0,0,1,0-1.415,1.287,1.287,0,0,1,.483-.483,1.4,1.4,0,0,1,1.357,0,1.308,1.308,0,0,1,.48.483A1.39,1.39,0,0,1,39.154,76.279Zm-.525,0a.922.922,0,0,0-.1-.467.8.8,0,0,0-.292-.316.78.78,0,0,0-.415-.112.785.785,0,0,0-.713.428.954.954,0,0,0-.1.467.943.943,0,0,0,.1.463.82.82,0,0,0,.3.317.782.782,0,0,0,.418.115.765.765,0,0,0,.415-.115.813.813,0,0,0,.292-.317A.911.911,0,0,0,38.629,76.279Z"/><path class="d" d="M39.715,77.594v-3.7h.515v3.7Z"/><path class="d" d="M41.31,74.4a.339.339,0,0,1-.26-.09.33.33,0,0,1-.085-.235.336.336,0,0,1,.085-.225.322.322,0,0,1,.26-.1.34.34,0,0,1,.259.091.326.326,0,0,1,.085.235.336.336,0,0,1-.085.225A.319.319,0,0,1,41.31,74.4Zm.264,3.195H41.06V74.969h.514Z"/><path class="d" d="M44.869,76.279a1.384,1.384,0,0,1-.178.708,1.288,1.288,0,0,1-.479.482,1.4,1.4,0,0,1-1.357,0,1.27,1.27,0,0,1-.483-.482,1.5,1.5,0,0,1,0-1.415,1.28,1.28,0,0,1,.483-.483,1.4,1.4,0,0,1,1.357,0,1.3,1.3,0,0,1,.479.483A1.38,1.38,0,0,1,44.869,76.279Zm-.525,0a.922.922,0,0,0-.1-.467.8.8,0,0,0-.292-.316.78.78,0,0,0-.415-.112.785.785,0,0,0-.713.428.954.954,0,0,0-.1.467.943.943,0,0,0,.1.463.82.82,0,0,0,.3.317.782.782,0,0,0,.418.115.765.765,0,0,0,.415-.115.813.813,0,0,0,.292-.317A.911.911,0,0,0,44.344,76.279Z"/><rect class="c" x="5.787" y="5.193" width="57.152" height="57.152"/><rect class="d" x="19.727" y="7.981" width="1.394" height="1.394"/><rect class="d" x="21.121" y="7.981" width="1.394" height="1.394"/><rect class="d" x="26.697" y="7.981" width="1.394" height="1.394"/><rect class="d" x="28.09" y="7.981" width="1.394" height="1.394"/><rect class="d" x="30.878" y="7.981" width="1.394" height="1.394"/><rect class="d" x="33.666" y="7.981" width="1.394" height="1.394"/><rect class="d" x="35.06" y="7.981" width="1.394" height="1.394"/><rect class="d" x="40.636" y="7.981" width="1.394" height="1.394"/><rect class="d" x="42.03" y="7.981" width="1.394" height="1.394"/><rect class="d" x="43.424" y="7.981" width="1.394" height="1.394"/><rect class="d" x="19.727" y="9.375" width="1.394" height="1.394"/><rect class="d" x="22.515" y="9.375" width="1.394" height="1.394"/><rect class="d" x="25.303" y="9.375" width="1.394" height="1.394"/><rect class="d" x="26.697" y="9.375" width="1.394" height="1.394"/><rect class="d" x="29.484" y="9.375" width="1.394" height="1.394"/><rect class="d" x="30.878" y="9.375" width="1.394" height="1.394"/><rect class="d" x="33.666" y="9.375" width="1.394" height="1.394"/><rect class="d" x="36.454" y="9.375" width="1.394" height="1.394"/><rect class="d" x="37.848" y="9.375" width="1.394" height="1.394"/><rect class="d" x="39.242" y="9.375" width="1.394" height="1.394"/><rect class="d" x="43.424" y="9.375" width="1.394" height="1.394"/><rect class="d" x="44.818" y="9.375" width="1.394" height="1.394"/><rect class="d" x="46.212" y="9.375" width="1.394" height="1.394"/><rect class="d" x="19.727" y="10.769" width="1.394" height="1.394"/><rect class="d" x="21.121" y="10.769" width="1.394" height="1.394"/><rect class="d" x="22.515" y="10.769" width="1.394" height="1.394"/><rect class="d" x="25.303" y="10.769" width="1.394" height="1.394"/><rect class="d" x="26.697" y="10.769" width="1.394" height="1.394"/><rect class="d" x="30.878" y="10.769" width="1.394" height="1.394"/><rect class="d" x="32.272" y="10.769" width="1.394" height="1.394"/><rect class="d" x="33.666" y="10.769" width="1.394" height="1.394"/><rect class="d" x="36.454" y="10.769" width="1.394" height="1.394"/><rect class="d" x="37.848" y="10.769" width="1.394" height="1.394"/><rect class="d" x="39.242" y="10.769" width="1.394" height="1.394"/><rect class="d" x="42.03" y="10.769" width="1.394" height="1.394"/><rect class="d" x="44.818" y="10.769" width="1.394" height="1.394"/><rect class="d" x="46.212" y="10.769" width="1.394" height="1.394"/><rect class="d" x="47.606" y="10.769" width="1.394" height="1.394"/><rect class="d" x="22.515" y="12.162" width="1.394" height="1.394"/><rect class="d" x="23.909" y="12.162" width="1.394" height="1.394"/><rect class="d" x="25.303" y="12.162" width="1.394" height="1.394"/><rect class="d" x="32.272" y="12.162" width="1.394" height="1.394"/><rect class="d" x="33.666" y="12.162" width="1.394" height="1.394"/><rect class="d" x="35.06" y="12.162" width="1.394" height="1.394"/><rect class="d" x="36.454" y="12.162" width="1.394" height="1.394"/><rect class="d" x="37.848" y="12.162" width="1.394" height="1.394"/><rect class="d" x="39.242" y="12.162" width="1.394" height="1.394"/><rect class="d" x="40.636" y="12.162" width="1.394" height="1.394"/><rect class="d" x="43.424" y="12.162" width="1.394" height="1.394"/><rect class="d" x="44.818" y="12.162" width="1.394" height="1.394"/><rect class="d" x="46.212" y="12.162" width="1.394" height="1.394"/><rect class="d" x="21.121" y="13.556" width="1.394" height="1.394"/><rect class="d" x="22.515" y="13.556" width="1.394" height="1.394"/><rect class="d" x="25.303" y="13.556" width="1.394" height="1.394"/><rect class="d" x="29.484" y="13.556" width="1.394" height="1.394"/><rect class="d" x="33.666" y="13.556" width="1.394" height="1.394"/><rect class="d" x="35.06" y="13.556" width="1.394" height="1.394"/><rect class="d" x="37.848" y="13.556" width="1.394" height="1.394"/><rect class="d" x="42.03" y="13.556" width="1.394" height="1.394"/><rect class="d" x="43.424" y="13.556" width="1.394" height="1.394"/><rect class="d" x="19.727" y="14.95" width="1.394" height="1.394"/><rect class="d" x="22.515" y="14.95" width="1.394" height="1.394"/><rect class="d" x="25.303" y="14.95" width="1.394" height="1.394"/><rect class="d" x="26.697" y="14.95" width="1.394" height="1.394"/><rect class="d" x="29.484" y="14.95" width="1.394" height="1.394"/><rect class="d" x="32.272" y="14.95" width="1.394" height="1.394"/><rect class="d" x="33.666" y="14.95" width="1.394" height="1.394"/><rect class="d" x="35.06" y="14.95" width="1.394" height="1.394"/><rect class="d" x="36.454" y="14.95" width="1.394" height="1.394"/><rect class="d" x="42.03" y="14.95" width="1.394" height="1.394"/><rect class="d" x="43.424" y="14.95" width="1.394" height="1.394"/><rect class="d" x="44.818" y="14.95" width="1.394" height="1.394"/><rect class="d" x="46.212" y="14.95" width="1.394" height="1.394"/><rect class="d" x="47.606" y="14.95" width="1.394" height="1.394"/><rect class="d" x="19.727" y="16.344" width="1.394" height="1.394"/><rect class="d" x="22.515" y="16.344" width="1.394" height="1.394"/><rect class="d" x="25.303" y="16.344" width="1.394" height="1.394"/><rect class="d" x="28.09" y="16.344" width="1.394" height="1.394"/><rect class="d" x="30.878" y="16.344" width="1.394" height="1.394"/><rect class="d" x="33.666" y="16.344" width="1.394" height="1.394"/><rect class="d" x="36.454" y="16.344" width="1.394" height="1.394"/><rect class="d" x="39.242" y="16.344" width="1.394" height="1.394"/><rect class="d" x="42.03" y="16.344" width="1.394" height="1.394"/><rect class="d" x="44.818" y="16.344" width="1.394" height="1.394"/><rect class="d" x="47.606" y="16.344" width="1.394" height="1.394"/><rect class="d" x="19.727" y="17.738" width="1.394" height="1.394"/><rect class="d" x="35.06" y="17.738" width="1.394" height="1.394"/><rect class="d" x="36.454" y="17.738" width="1.394" height="1.394"/><rect class="d" x="39.242" y="17.738" width="1.394" height="1.394"/><rect class="d" x="42.03" y="17.738" width="1.394" height="1.394"/><rect class="d" x="44.818" y="17.738" width="1.394" height="1.394"/><rect class="d" x="47.606" y="17.738" width="1.394" height="1.394"/><rect class="d" x="11.363" y="19.132" width="1.394" height="1.394"/><rect class="d" x="12.757" y="19.132" width="1.394" height="1.394"/><rect class="d" x="14.151" y="19.132" width="1.394" height="1.394"/><rect class="d" x="16.939" y="19.132" width="1.394" height="1.394"/><rect class="d" x="19.727" y="19.132" width="1.394" height="1.394"/><rect class="d" x="21.121" y="19.132" width="1.394" height="1.394"/><rect class="d" x="22.515" y="19.132" width="1.394" height="1.394"/><rect class="d" x="25.303" y="19.132" width="1.394" height="1.394"/><rect class="d" x="29.484" y="19.132" width="1.394" height="1.394"/><rect class="d" x="32.272" y="19.132" width="1.394" height="1.394"/><rect class="d" x="33.666" y="19.132" width="1.394" height="1.394"/><rect class="d" x="36.454" y="19.132" width="1.394" height="1.394"/><rect class="d" x="37.848" y="19.132" width="1.394" height="1.394"/><rect class="d" x="49" y="19.132" width="1.394" height="1.394"/><rect class="d" x="50.394" y="19.132" width="1.394" height="1.394"/><rect class="d" x="51.788" y="19.132" width="1.394" height="1.394"/><rect class="d" x="55.97" y="19.132" width="1.394" height="1.394"/><rect class="d" x="57.364" y="19.132" width="1.394" height="1.394"/><rect class="d" x="58.758" y="19.132" width="1.394" height="1.394"/><rect class="d" x="8.575" y="20.526" width="1.394" height="1.394"/><rect class="d" x="9.969" y="20.526" width="1.394" height="1.394"/><rect class="d" x="11.363" y="20.526" width="1.394" height="1.394"/><rect class="d" x="15.545" y="20.526" width="1.394" height="1.394"/><rect class="d" x="19.727" y="20.526" width="1.394" height="1.394"/><rect class="d" x="25.303" y="20.526" width="1.394" height="1.394"/><rect class="d" x="26.697" y="20.526" width="1.394" height="1.394"/><rect class="d" x="30.878" y="20.526" width="1.394" height="1.394"/><rect class="d" x="32.272" y="20.526" width="1.394" height="1.394"/><rect class="d" x="35.06" y="20.526" width="1.394" height="1.394"/><rect class="d" x="43.424" y="20.526" width="1.394" height="1.394"/><rect class="d" x="47.606" y="20.526" width="1.394" height="1.394"/><rect class="d" x="51.788" y="20.526" width="1.394" height="1.394"/><rect class="d" x="55.97" y="20.526" width="1.394" height="1.394"/><rect class="d" x="8.575" y="21.92" width="1.394" height="1.394"/><rect class="d" x="9.969" y="21.92" width="1.394" height="1.394"/><rect class="d" x="16.939" y="21.92" width="1.394" height="1.394"/><rect class="d" x="21.121" y="21.92" width="1.394" height="1.394"/><rect class="d" x="25.303" y="21.92" width="1.394" height="1.394"/><rect class="d" x="29.484" y="21.92" width="1.394" height="1.394"/><rect class="d" x="30.878" y="21.92" width="1.394" height="1.394"/><rect class="d" x="36.454" y="21.92" width="1.394" height="1.394"/><rect class="d" x="37.848" y="21.92" width="1.394" height="1.394"/><rect class="d" x="39.242" y="21.92" width="1.394" height="1.394"/><rect class="d" x="43.424" y="21.92" width="1.394" height="1.394"/><rect class="d" x="44.818" y="21.92" width="1.394" height="1.394"/><rect class="d" x="46.212" y="21.92" width="1.394" height="1.394"/><rect class="d" x="47.606" y="21.92" width="1.394" height="1.394"/><rect class="d" x="50.394" y="21.92" width="1.394" height="1.394"/><rect class="d" x="53.182" y="21.92" width="1.394" height="1.394"/><rect class="d" x="55.97" y="21.92" width="1.394" height="1.394"/><rect class="d" x="57.364" y="21.92" width="1.394" height="1.394"/><rect class="d" x="58.758" y="21.92" width="1.394" height="1.394"/><rect class="d" x="11.363" y="23.314" width="1.394" height="1.394"/><rect class="d" x="14.151" y="23.314" width="1.394" height="1.394"/><rect class="d" x="18.333" y="23.314" width="1.394" height="1.394"/><rect class="d" x="19.727" y="23.314" width="1.394" height="1.394"/><rect class="d" x="22.515" y="23.314" width="1.394" height="1.394"/><rect class="d" x="23.909" y="23.314" width="1.394" height="1.394"/><rect class="d" x="26.697" y="23.314" width="1.394" height="1.394"/><rect class="d" x="28.09" y="23.314" width="1.394" height="1.394"/><rect class="d" x="29.484" y="23.314" width="1.394" height="1.394"/><rect class="d" x="30.878" y="23.314" width="1.394" height="1.394"/><rect class="d" x="33.666" y="23.314" width="1.394" height="1.394"/><rect class="d" x="35.06" y="23.314" width="1.394" height="1.394"/><rect class="d" x="42.03" y="23.314" width="1.394" height="1.394"/><rect class="d" x="44.818" y="23.314" width="1.394" height="1.394"/><rect class="d" x="46.212" y="23.314" width="1.394" height="1.394"/><rect class="d" x="50.394" y="23.314" width="1.394" height="1.394"/><rect class="d" x="51.788" y="23.314" width="1.394" height="1.394"/><rect class="d" x="58.758" y="23.314" width="1.394" height="1.394"/><rect class="d" x="8.575" y="24.708" width="1.394" height="1.394"/><rect class="d" x="9.969" y="24.708" width="1.394" height="1.394"/><rect class="d" x="16.939" y="24.708" width="1.394" height="1.394"/><rect class="d" x="18.333" y="24.708" width="1.394" height="1.394"/><rect class="d" x="22.515" y="24.708" width="1.394" height="1.394"/><rect class="d" x="30.878" y="24.708" width="1.394" height="1.394"/><rect class="d" x="32.272" y="24.708" width="1.394" height="1.394"/><rect class="d" x="35.06" y="24.708" width="1.394" height="1.394"/><rect class="d" x="36.454" y="24.708" width="1.394" height="1.394"/><rect class="d" x="39.242" y="24.708" width="1.394" height="1.394"/><rect class="d" x="40.636" y="24.708" width="1.394" height="1.394"/><rect class="d" x="43.424" y="24.708" width="1.394" height="1.394"/><rect class="d" x="44.818" y="24.708" width="1.394" height="1.394"/><rect class="d" x="49" y="24.708" width="1.394" height="1.394"/><rect class="d" x="50.394" y="24.708" width="1.394" height="1.394"/><rect class="d" x="53.182" y="24.708" width="1.394" height="1.394"/><rect class="d" x="55.97" y="24.708" width="1.394" height="1.394"/><rect class="d" x="57.364" y="24.708" width="1.394" height="1.394"/><rect class="d" x="58.758" y="24.708" width="1.394" height="1.394"/><rect class="d" x="12.757" y="26.102" width="1.394" height="1.394"/><rect class="d" x="14.151" y="26.102" width="1.394" height="1.394"/><rect class="d" x="15.545" y="26.102" width="1.394" height="1.394"/><rect class="d" x="21.121" y="26.102" width="1.394" height="1.394"/><rect class="d" x="23.909" y="26.102" width="1.394" height="1.394"/><rect class="d" x="43.424" y="26.102" width="1.394" height="1.394"/><rect class="d" x="49" y="26.102" width="1.394" height="1.394"/><rect class="d" x="54.576" y="26.102" width="1.394" height="1.394"/><rect class="d" x="55.97" y="26.102" width="1.394" height="1.394"/><rect class="d" x="9.969" y="27.496" width="1.394" height="1.394"/><rect class="d" x="11.363" y="27.496" width="1.394" height="1.394"/><rect class="d" x="12.757" y="27.496" width="1.394" height="1.394"/><rect class="d" x="14.151" y="27.496" width="1.394" height="1.394"/><rect class="d" x="16.939" y="27.496" width="1.394" height="1.394"/><rect class="d" x="18.333" y="27.496" width="1.394" height="1.394"/><rect class="d" x="19.727" y="27.496" width="1.394" height="1.394"/><rect class="d" x="22.515" y="27.496" width="1.394" height="1.394"/><rect class="d" x="43.424" y="27.496" width="1.394" height="1.394"/><rect class="d" x="44.818" y="27.496" width="1.394" height="1.394"/><rect class="d" x="46.212" y="27.496" width="1.394" height="1.394"/><rect class="d" x="47.606" y="27.496" width="1.394" height="1.394"/><rect class="d" x="50.394" y="27.496" width="1.394" height="1.394"/><rect class="d" x="53.182" y="27.496" width="1.394" height="1.394"/><rect class="d" x="54.576" y="27.496" width="1.394" height="1.394"/><rect class="d" x="57.364" y="27.496" width="1.394" height="1.394"/><rect class="d" x="58.758" y="27.496" width="1.394" height="1.394"/><rect class="d" x="12.757" y="28.89" width="1.394" height="1.394"/><rect class="d" x="14.151" y="28.89" width="1.394" height="1.394"/><rect class="d" x="15.545" y="28.89" width="1.394" height="1.394"/><rect class="d" x="18.333" y="28.89" width="1.394" height="1.394"/><rect class="d" x="23.909" y="28.89" width="1.394" height="1.394"/><rect class="d" x="47.606" y="28.89" width="1.394" height="1.394"/><rect class="d" x="8.575" y="30.284" width="1.394" height="1.394"/><rect class="d" x="11.363" y="30.284" width="1.394" height="1.394"/><rect class="d" x="15.545" y="30.284" width="1.394" height="1.394"/><rect class="d" x="16.939" y="30.284" width="1.394" height="1.394"/><rect class="d" x="22.515" y="30.284" width="1.394" height="1.394"/><rect class="d" x="23.909" y="30.284" width="1.394" height="1.394"/><rect class="d" x="43.424" y="30.284" width="1.394" height="1.394"/><rect class="d" x="44.818" y="30.284" width="1.394" height="1.394"/><rect class="d" x="49" y="30.284" width="1.394" height="1.394"/><rect class="d" x="50.394" y="30.284" width="1.394" height="1.394"/><rect class="d" x="51.788" y="30.284" width="1.394" height="1.394"/><rect class="d" x="53.182" y="30.284" width="1.394" height="1.394"/><rect class="d" x="55.97" y="30.284" width="1.394" height="1.394"/><rect class="d" x="58.758" y="30.284" width="1.394" height="1.394"/><rect class="d" x="8.575" y="31.678" width="1.394" height="1.394"/><rect class="d" x="12.757" y="31.678" width="1.394" height="1.394"/><rect class="d" x="14.151" y="31.678" width="1.394" height="1.394"/><rect class="d" x="18.333" y="31.678" width="1.394" height="1.394"/><rect class="d" x="21.121" y="31.678" width="1.394" height="1.394"/><rect class="d" x="23.909" y="31.678" width="1.394" height="1.394"/><rect class="d" x="47.606" y="31.678" width="1.394" height="1.394"/><rect class="d" x="51.788" y="31.678" width="1.394" height="1.394"/><rect class="d" x="54.576" y="31.678" width="1.394" height="1.394"/><rect class="d" x="55.97" y="31.678" width="1.394" height="1.394"/><rect class="d" x="8.575" y="33.072" width="1.394" height="1.394"/><rect class="d" x="11.363" y="33.072" width="1.394" height="1.394"/><rect class="d" x="14.151" y="33.072" width="1.394" height="1.394"/><rect class="d" x="15.545" y="33.072" width="1.394" height="1.394"/><rect class="d" x="16.939" y="33.072" width="1.394" height="1.394"/><rect class="d" x="21.121" y="33.072" width="1.394" height="1.394"/><rect class="d" x="22.515" y="33.072" width="1.394" height="1.394"/><rect class="d" x="23.909" y="33.072" width="1.394" height="1.394"/><rect class="d" x="46.212" y="33.072" width="1.394" height="1.394"/><rect class="d" x="47.606" y="33.072" width="1.394" height="1.394"/><rect class="d" x="49" y="33.072" width="1.394" height="1.394"/><rect class="d" x="51.788" y="33.072" width="1.394" height="1.394"/><rect class="d" x="57.364" y="33.072" width="1.394" height="1.394"/><rect class="d" x="58.758" y="33.072" width="1.394" height="1.394"/><rect class="d" x="15.545" y="34.466" width="1.394" height="1.394"/><rect class="d" x="19.727" y="34.466" width="1.394" height="1.394"/><rect class="d" x="44.818" y="34.466" width="1.394" height="1.394"/><rect class="d" x="46.212" y="34.466" width="1.394" height="1.394"/><rect class="d" x="51.788" y="34.466" width="1.394" height="1.394"/><rect class="d" x="53.182" y="34.466" width="1.394" height="1.394"/><rect class="d" x="57.364" y="34.466" width="1.394" height="1.394"/><rect class="d" x="58.758" y="34.466" width="1.394" height="1.394"/><rect class="d" x="8.575" y="35.86" width="1.394" height="1.394"/><rect class="d" x="9.969" y="35.86" width="1.394" height="1.394"/><rect class="d" x="11.363" y="35.86" width="1.394" height="1.394"/><rect class="d" x="12.757" y="35.86" width="1.394" height="1.394"/><rect class="d" x="14.151" y="35.86" width="1.394" height="1.394"/><rect class="d" x="16.939" y="35.86" width="1.394" height="1.394"/><rect class="d" x="21.121" y="35.86" width="1.394" height="1.394"/><rect class="d" x="22.515" y="35.86" width="1.394" height="1.394"/><rect class="d" x="43.424" y="35.86" width="1.394" height="1.394"/><rect class="d" x="44.818" y="35.86" width="1.394" height="1.394"/><rect class="d" x="46.212" y="35.86" width="1.394" height="1.394"/><rect class="d" x="49" y="35.86" width="1.394" height="1.394"/><rect class="d" x="50.394" y="35.86" width="1.394" height="1.394"/><rect class="d" x="51.788" y="35.86" width="1.394" height="1.394"/><rect class="d" x="53.182" y="35.86" width="1.394" height="1.394"/><rect class="d" x="54.576" y="35.86" width="1.394" height="1.394"/><rect class="d" x="55.97" y="35.86" width="1.394" height="1.394"/><rect class="d" x="8.575" y="37.254" width="1.394" height="1.394"/><rect class="d" x="9.969" y="37.254" width="1.394" height="1.394"/><rect class="d" x="18.333" y="37.254" width="1.394" height="1.394"/><rect class="d" x="19.727" y="37.254" width="1.394" height="1.394"/><rect class="d" x="21.121" y="37.254" width="1.394" height="1.394"/><rect class="d" x="23.909" y="37.254" width="1.394" height="1.394"/><rect class="d" x="43.424" y="37.254" width="1.394" height="1.394"/><rect class="d" x="44.818" y="37.254" width="1.394" height="1.394"/><rect class="d" x="51.788" y="37.254" width="1.394" height="1.394"/><rect class="d" x="54.576" y="37.254" width="1.394" height="1.394"/><rect class="d" x="55.97" y="37.254" width="1.394" height="1.394"/><rect class="d" x="8.575" y="38.648" width="1.394" height="1.394"/><rect class="d" x="9.969" y="38.648" width="1.394" height="1.394"/><rect class="d" x="11.363" y="38.648" width="1.394" height="1.394"/><rect class="d" x="12.757" y="38.648" width="1.394" height="1.394"/><rect class="d" x="14.151" y="38.648" width="1.394" height="1.394"/><rect class="d" x="15.545" y="38.648" width="1.394" height="1.394"/><rect class="d" x="16.939" y="38.648" width="1.394" height="1.394"/><rect class="d" x="18.333" y="38.648" width="1.394" height="1.394"/><rect class="d" x="19.727" y="38.648" width="1.394" height="1.394"/><rect class="d" x="43.424" y="38.648" width="1.394" height="1.394"/><rect class="d" x="44.818" y="38.648" width="1.394" height="1.394"/><rect class="d" x="46.212" y="38.648" width="1.394" height="1.394"/><rect class="d" x="49" y="38.648" width="1.394" height="1.394"/><rect class="d" x="54.576" y="38.648" width="1.394" height="1.394"/><rect class="d" x="57.364" y="38.648" width="1.394" height="1.394"/><rect class="d" x="58.758" y="38.648" width="1.394" height="1.394"/><rect class="d" x="9.969" y="40.042" width="1.394" height="1.394"/><rect class="d" x="12.757" y="40.042" width="1.394" height="1.394"/><rect class="d" x="14.151" y="40.042" width="1.394" height="1.394"/><rect class="d" x="21.121" y="40.042" width="1.394" height="1.394"/><rect class="d" x="22.515" y="40.042" width="1.394" height="1.394"/><rect class="d" x="43.424" y="40.042" width="1.394" height="1.394"/><rect class="d" x="49" y="40.042" width="1.394" height="1.394"/><rect class="d" x="51.788" y="40.042" width="1.394" height="1.394"/><rect class="d" x="58.758" y="40.042" width="1.394" height="1.394"/><rect class="d" x="12.757" y="41.436" width="1.394" height="1.394"/><rect class="d" x="15.545" y="41.436" width="1.394" height="1.394"/><rect class="d" x="16.939" y="41.436" width="1.394" height="1.394"/><rect class="d" x="19.727" y="41.436" width="1.394" height="1.394"/><rect class="d" x="28.09" y="41.436" width="1.394" height="1.394"/><rect class="d" x="32.272" y="41.436" width="1.394" height="1.394"/><rect class="d" x="35.06" y="41.436" width="1.394" height="1.394"/><rect class="d" x="36.454" y="41.436" width="1.394" height="1.394"/><rect class="d" x="37.848" y="41.436" width="1.394" height="1.394"/><rect class="d" x="40.636" y="41.436" width="1.394" height="1.394"/><rect class="d" x="42.03" y="41.436" width="1.394" height="1.394"/><rect class="d" x="44.818" y="41.436" width="1.394" height="1.394"/><rect class="d" x="49" y="41.436" width="1.394" height="1.394"/><rect class="d" x="50.394" y="41.436" width="1.394" height="1.394"/><rect class="d" x="53.182" y="41.436" width="1.394" height="1.394"/><rect class="d" x="55.97" y="41.436" width="1.394" height="1.394"/><rect class="d" x="58.758" y="41.436" width="1.394" height="1.394"/><rect class="d" x="8.575" y="42.83" width="1.394" height="1.394"/><rect class="d" x="9.969" y="42.83" width="1.394" height="1.394"/><rect class="d" x="12.757" y="42.83" width="1.394" height="1.394"/><rect class="d" x="14.151" y="42.83" width="1.394" height="1.394"/><rect class="d" x="15.545" y="42.83" width="1.394" height="1.394"/><rect class="d" x="26.697" y="42.83" width="1.394" height="1.394"/><rect class="d" x="30.878" y="42.83" width="1.394" height="1.394"/><rect class="d" x="32.272" y="42.83" width="1.394" height="1.394"/><rect class="d" x="33.666" y="42.83" width="1.394" height="1.394"/><rect class="d" x="35.06" y="42.83" width="1.394" height="1.394"/><rect class="d" x="39.242" y="42.83" width="1.394" height="1.394"/><rect class="d" x="43.424" y="42.83" width="1.394" height="1.394"/><rect class="d" x="47.606" y="42.83" width="1.394" height="1.394"/><rect class="d" x="51.788" y="42.83" width="1.394" height="1.394"/><rect class="d" x="54.576" y="42.83" width="1.394" height="1.394"/><rect class="d" x="57.364" y="42.83" width="1.394" height="1.394"/><rect class="d" x="8.575" y="44.224" width="1.394" height="1.394"/><rect class="d" x="14.151" y="44.224" width="1.394" height="1.394"/><rect class="d" x="16.939" y="44.224" width="1.394" height="1.394"/><rect class="d" x="18.333" y="44.224" width="1.394" height="1.394"/><rect class="d" x="26.697" y="44.224" width="1.394" height="1.394"/><rect class="d" x="29.484" y="44.224" width="1.394" height="1.394"/><rect class="d" x="32.272" y="44.224" width="1.394" height="1.394"/><rect class="d" x="33.666" y="44.224" width="1.394" height="1.394"/><rect class="d" x="35.06" y="44.224" width="1.394" height="1.394"/><rect class="d" x="40.636" y="44.224" width="1.394" height="1.394"/><rect class="d" x="42.03" y="44.224" width="1.394" height="1.394"/><rect class="d" x="44.818" y="44.224" width="1.394" height="1.394"/><rect class="d" x="46.212" y="44.224" width="1.394" height="1.394"/><rect class="d" x="50.394" y="44.224" width="1.394" height="1.394"/><rect class="d" x="54.576" y="44.224" width="1.394" height="1.394"/><rect class="d" x="55.97" y="44.224" width="1.394" height="1.394"/><rect class="d" x="57.364" y="44.224" width="1.394" height="1.394"/><rect class="d" x="58.758" y="44.224" width="1.394" height="1.394"/><rect class="d" x="8.575" y="45.618" width="1.394" height="1.394"/><rect class="d" x="11.363" y="45.618" width="1.394" height="1.394"/><rect class="d" x="21.121" y="45.618" width="1.394" height="1.394"/><rect class="d" x="22.515" y="45.618" width="1.394" height="1.394"/><rect class="d" x="25.303" y="45.618" width="1.394" height="1.394"/><rect class="d" x="28.09" y="45.618" width="1.394" height="1.394"/><rect class="d" x="30.878" y="45.618" width="1.394" height="1.394"/><rect class="d" x="32.272" y="45.618" width="1.394" height="1.394"/><rect class="d" x="39.242" y="45.618" width="1.394" height="1.394"/><rect class="d" x="40.636" y="45.618" width="1.394" height="1.394"/><rect class="d" x="44.818" y="45.618" width="1.394" height="1.394"/><rect class="d" x="46.212" y="45.618" width="1.394" height="1.394"/><rect class="d" x="47.606" y="45.618" width="1.394" height="1.394"/><rect class="d" x="49" y="45.618" width="1.394" height="1.394"/><rect class="d" x="51.788" y="45.618" width="1.394" height="1.394"/><rect class="d" x="57.364" y="45.618" width="1.394" height="1.394"/><rect class="d" x="58.758" y="45.618" width="1.394" height="1.394"/><rect class="d" x="8.575" y="47.011" width="1.394" height="1.394"/><rect class="d" x="14.151" y="47.011" width="1.394" height="1.394"/><rect class="d" x="16.939" y="47.011" width="1.394" height="1.394"/><rect class="d" x="18.333" y="47.011" width="1.394" height="1.394"/><rect class="d" x="22.515" y="47.011" width="1.394" height="1.394"/><rect class="d" x="25.303" y="47.011" width="1.394" height="1.394"/><rect class="d" x="26.697" y="47.011" width="1.394" height="1.394"/><rect class="d" x="28.09" y="47.011" width="1.394" height="1.394"/><rect class="d" x="33.666" y="47.011" width="1.394" height="1.394"/><rect class="d" x="36.454" y="47.011" width="1.394" height="1.394"/><rect class="d" x="37.848" y="47.011" width="1.394" height="1.394"/><rect class="d" x="40.636" y="47.011" width="1.394" height="1.394"/><rect class="d" x="43.424" y="47.011" width="1.394" height="1.394"/><rect class="d" x="44.818" y="47.011" width="1.394" height="1.394"/><rect class="d" x="47.606" y="47.011" width="1.394" height="1.394"/><rect class="d" x="49" y="47.011" width="1.394" height="1.394"/><rect class="d" x="50.394" y="47.011" width="1.394" height="1.394"/><rect class="d" x="51.788" y="47.011" width="1.394" height="1.394"/><rect class="d" x="53.182" y="47.011" width="1.394" height="1.394"/><rect class="d" x="55.97" y="47.011" width="1.394" height="1.394"/><rect class="d" x="19.727" y="48.405" width="1.394" height="1.394"/><rect class="d" x="21.121" y="48.405" width="1.394" height="1.394"/><rect class="d" x="23.909" y="48.405" width="1.394" height="1.394"/><rect class="d" x="25.303" y="48.405" width="1.394" height="1.394"/><rect class="d" x="29.484" y="48.405" width="1.394" height="1.394"/><rect class="d" x="32.272" y="48.405" width="1.394" height="1.394"/><rect class="d" x="35.06" y="48.405" width="1.394" height="1.394"/><rect class="d" x="39.242" y="48.405" width="1.394" height="1.394"/><rect class="d" x="40.636" y="48.405" width="1.394" height="1.394"/><rect class="d" x="46.212" y="48.405" width="1.394" height="1.394"/><rect class="d" x="47.606" y="48.405" width="1.394" height="1.394"/><rect class="d" x="53.182" y="48.405" width="1.394" height="1.394"/><rect class="d" x="57.364" y="48.405" width="1.394" height="1.394"/><rect class="d" x="22.515" y="49.799" width="1.394" height="1.394"/><rect class="d" x="23.909" y="49.799" width="1.394" height="1.394"/><rect class="d" x="25.303" y="49.799" width="1.394" height="1.394"/><rect class="d" x="26.697" y="49.799" width="1.394" height="1.394"/><rect class="d" x="28.09" y="49.799" width="1.394" height="1.394"/><rect class="d" x="29.484" y="49.799" width="1.394" height="1.394"/><rect class="d" x="30.878" y="49.799" width="1.394" height="1.394"/><rect class="d" x="32.272" y="49.799" width="1.394" height="1.394"/><rect class="d" x="33.666" y="49.799" width="1.394" height="1.394"/><rect class="d" x="35.06" y="49.799" width="1.394" height="1.394"/><rect class="d" x="37.848" y="49.799" width="1.394" height="1.394"/><rect class="d" x="39.242" y="49.799" width="1.394" height="1.394"/><rect class="d" x="43.424" y="49.799" width="1.394" height="1.394"/><rect class="d" x="44.818" y="49.799" width="1.394" height="1.394"/><rect class="d" x="47.606" y="49.799" width="1.394" height="1.394"/><rect class="d" x="50.394" y="49.799" width="1.394" height="1.394"/><rect class="d" x="53.182" y="49.799" width="1.394" height="1.394"/><rect class="d" x="54.576" y="49.799" width="1.394" height="1.394"/><rect class="d" x="57.364" y="49.799" width="1.394" height="1.394"/><rect class="d" x="58.758" y="49.799" width="1.394" height="1.394"/><rect class="d" x="25.303" y="51.193" width="1.394" height="1.394"/><rect class="d" x="28.09" y="51.193" width="1.394" height="1.394"/><rect class="d" x="29.484" y="51.193" width="1.394" height="1.394"/><rect class="d" x="32.272" y="51.193" width="1.394" height="1.394"/><rect class="d" x="35.06" y="51.193" width="1.394" height="1.394"/><rect class="d" x="37.848" y="51.193" width="1.394" height="1.394"/><rect class="d" x="39.242" y="51.193" width="1.394" height="1.394"/><rect class="d" x="44.818" y="51.193" width="1.394" height="1.394"/><rect class="d" x="47.606" y="51.193" width="1.394" height="1.394"/><rect class="d" x="53.182" y="51.193" width="1.394" height="1.394"/><rect class="d" x="57.364" y="51.193" width="1.394" height="1.394"/><rect class="d" x="58.758" y="51.193" width="1.394" height="1.394"/><rect class="d" x="19.727" y="52.587" width="1.394" height="1.394"/><rect class="d" x="21.121" y="52.587" width="1.394" height="1.394"/><rect class="d" x="22.515" y="52.587" width="1.394" height="1.394"/><rect class="d" x="23.909" y="52.587" width="1.394" height="1.394"/><rect class="d" x="29.484" y="52.587" width="1.394" height="1.394"/><rect class="d" x="30.878" y="52.587" width="1.394" height="1.394"/><rect class="d" x="32.272" y="52.587" width="1.394" height="1.394"/><rect class="d" x="33.666" y="52.587" width="1.394" height="1.394"/><rect class="d" x="36.454" y="52.587" width="1.394" height="1.394"/><rect class="d" x="37.848" y="52.587" width="1.394" height="1.394"/><rect class="d" x="40.636" y="52.587" width="1.394" height="1.394"/><rect class="d" x="43.424" y="52.587" width="1.394" height="1.394"/><rect class="d" x="44.818" y="52.587" width="1.394" height="1.394"/><rect class="d" x="46.212" y="52.587" width="1.394" height="1.394"/><rect class="d" x="47.606" y="52.587" width="1.394" height="1.394"/><rect class="d" x="49" y="52.587" width="1.394" height="1.394"/><rect class="d" x="50.394" y="52.587" width="1.394" height="1.394"/><rect class="d" x="51.788" y="52.587" width="1.394" height="1.394"/><rect class="d" x="53.182" y="52.587" width="1.394" height="1.394"/><rect class="d" x="55.97" y="52.587" width="1.394" height="1.394"/><rect class="d" x="58.758" y="52.587" width="1.394" height="1.394"/><rect class="d" x="19.727" y="53.981" width="1.394" height="1.394"/><rect class="d" x="23.909" y="53.981" width="1.394" height="1.394"/><rect class="d" x="25.303" y="53.981" width="1.394" height="1.394"/><rect class="d" x="30.878" y="53.981" width="1.394" height="1.394"/><rect class="d" x="33.666" y="53.981" width="1.394" height="1.394"/><rect class="d" x="35.06" y="53.981" width="1.394" height="1.394"/><rect class="d" x="36.454" y="53.981" width="1.394" height="1.394"/><rect class="d" x="37.848" y="53.981" width="1.394" height="1.394"/><rect class="d" x="42.03" y="53.981" width="1.394" height="1.394"/><rect class="d" x="50.394" y="53.981" width="1.394" height="1.394"/><rect class="d" x="53.182" y="53.981" width="1.394" height="1.394"/><rect class="d" x="54.576" y="53.981" width="1.394" height="1.394"/><rect class="d" x="19.727" y="55.375" width="1.394" height="1.394"/><rect class="d" x="22.515" y="55.375" width="1.394" height="1.394"/><rect class="d" x="23.909" y="55.375" width="1.394" height="1.394"/><rect class="d" x="28.09" y="55.375" width="1.394" height="1.394"/><rect class="d" x="30.878" y="55.375" width="1.394" height="1.394"/><rect class="d" x="35.06" y="55.375" width="1.394" height="1.394"/><rect class="d" x="43.424" y="55.375" width="1.394" height="1.394"/><rect class="d" x="46.212" y="55.375" width="1.394" height="1.394"/><rect class="d" x="47.606" y="55.375" width="1.394" height="1.394"/><rect class="d" x="49" y="55.375" width="1.394" height="1.394"/><rect class="d" x="51.788" y="55.375" width="1.394" height="1.394"/><rect class="d" x="58.758" y="55.375" width="1.394" height="1.394"/><rect class="d" x="21.121" y="56.769" width="1.394" height="1.394"/><rect class="d" x="23.909" y="56.769" width="1.394" height="1.394"/><rect class="d" x="30.878" y="56.769" width="1.394" height="1.394"/><rect class="d" x="32.272" y="56.769" width="1.394" height="1.394"/><rect class="d" x="33.666" y="56.769" width="1.394" height="1.394"/><rect class="d" x="35.06" y="56.769" width="1.394" height="1.394"/><rect class="d" x="36.454" y="56.769" width="1.394" height="1.394"/><rect class="d" x="39.242" y="56.769" width="1.394" height="1.394"/><rect class="d" x="42.03" y="56.769" width="1.394" height="1.394"/><rect class="d" x="46.212" y="56.769" width="1.394" height="1.394"/><rect class="d" x="47.606" y="56.769" width="1.394" height="1.394"/><rect class="d" x="50.394" y="56.769" width="1.394" height="1.394"/><rect class="d" x="51.788" y="56.769" width="1.394" height="1.394"/><rect class="d" x="58.758" y="56.769" width="1.394" height="1.394"/><rect class="d" x="21.121" y="58.163" width="1.394" height="1.394"/><rect class="d" x="28.09" y="58.163" width="1.394" height="1.394"/><rect class="d" x="29.484" y="58.163" width="1.394" height="1.394"/><rect class="d" x="32.272" y="58.163" width="1.394" height="1.394"/><rect class="d" x="33.666" y="58.163" width="1.394" height="1.394"/><rect class="d" x="37.848" y="58.163" width="1.394" height="1.394"/><rect class="d" x="39.242" y="58.163" width="1.394" height="1.394"/><rect class="d" x="42.03" y="58.163" width="1.394" height="1.394"/><rect class="d" x="43.424" y="58.163" width="1.394" height="1.394"/><rect class="d" x="49" y="58.163" width="1.394" height="1.394"/><rect class="d" x="50.394" y="58.163" width="1.394" height="1.394"/><rect class="d" x="51.788" y="58.163" width="1.394" height="1.394"/><rect class="d" x="54.576" y="58.163" width="1.394" height="1.394"/><rect class="d" x="55.97" y="58.163" width="1.394" height="1.394"/><rect class="d" x="57.364" y="58.163" width="1.394" height="1.394"/><rect class="d" x="58.758" y="58.163" width="1.394" height="1.394"/><rect class="e" x="10.039" y="9.444" width="6.83" height="6.83"/><path class="d" d="M16.869,7.981H8.575v9.757h9.758V7.981Zm0,8.294h-6.83V9.444h6.83Z"/><rect class="e" x="51.858" y="9.444" width="6.83" height="6.83"/><path class="d" d="M58.688,7.981H50.394v9.757h9.758V7.981Zm0,8.294h-6.83V9.444h6.83Z"/><rect class="e" x="10.039" y="51.263" width="6.83" height="6.83"/><path class="d" d="M16.869,49.8H8.575v9.758h9.758V49.8Zm0,8.294h-6.83v-6.83h6.83Z"/><rect class="d" x="11.363" y="10.769" width="4.182" height="4.182"/><rect class="d" x="53.182" y="10.769" width="4.182" height="4.182"/><rect class="d" x="11.363" y="52.587" width="4.182" height="4.182"/><polygon class="f" points="30.327 33.63 30.88 33.305 30.088 33.13 30.327 33.63"/><polygon class="g" points="38.801 34.668 39.575 36.025 39.793 34.193 38.801 34.668"/><polygon class="g" points="37.569 35.322 37.4 36.878 38.288 36.345 37.569 35.322"/><polygon class="h" points="29.056 31.562 29.119 32.058 29.684 32.343 29.056 31.562"/><polygon class="f" points="33.668 32.52 32.786 32.769 33.309 33.332 34.482 34.598 33.97 33.291 33.668 32.52"/><polygon class="f" points="31.046 31.881 30.15 31.737 30.386 32.299 31.046 31.881"/><polygon class="f" points="31.939 29.978 32.257 29.434 31.62 29.58 31.939 29.978"/><polygon class="h" points="39.489 32.584 40.831 32.403 39.697 31.516 39.489 32.584"/><polygon class="h" points="30.15 31.737 31.046 31.881 30.509 31.439 29.929 30.96 28.948 30.152 28.948 30.153 29.667 31.659 30.15 31.737"/><path class="f" d="M29.593,38.518a2.016,2.016,0,0,1-.229.036A1.844,1.844,0,0,0,29.593,38.518Z"/><polygon class="g" points="38.891 31.668 38.214 31.011 38.214 31.757 38.891 31.668"/><polygon class="i" points="36.569 29.318 36.164 29.999 37.241 30.145 36.569 29.318"/><polygon class="i" points="38.214 31.011 36.164 29.999 37.273 30.96 38.214 31.011"/><polygon class="j" points="35.71 32.768 36.137 33.609 36.535 31.757 35.71 32.768"/><path class="i" d="M27.238,37.457a3.033,3.033,0,0,0,.932.854l1.436-.854Z"/><polygon class="g" points="30.037 32.52 30.928 32.894 31.046 31.881 30.386 32.299 30.037 32.52"/><polygon class="k" points="38.827 33.841 38.827 33.842 38.828 33.841 38.827 33.841"/><polygon class="f" points="27.683 34.187 27.423 36.096 28.045 35.554 27.683 34.187"/><polygon class="f" points="30.788 30.679 30.788 30.679 31.046 31.881 31.882 31.055 30.788 30.679"/><polygon class="f" points="36.137 33.609 35.71 32.768 35.447 33.875 35.275 34.598 36.137 33.61 36.137 33.609"/><polygon class="j" points="29.684 32.343 29.119 32.058 29.233 32.942 30.037 32.52 29.684 32.343"/><polygon class="g" points="30.204 36.469 29.606 37.457 31.372 36.832 30.205 36.469 30.204 36.469"/><polygon class="g" points="36.535 31.757 35.338 31.386 35.71 32.768 36.535 31.757"/><polygon class="i" points="41.518 37.457 41.349 36.217 39.894 36.956 41.518 37.457"/><polygon class="j" points="39.956 33.634 39.489 32.584 38.37 33.202 39.956 33.634"/><polygon class="h" points="38.309 29.285 37.816 29.896 38.968 29.768 38.309 29.285"/><polygon class="f" points="38.309 29.285 37.679 28.923 37.816 29.896 38.309 29.285"/><polygon class="j" points="29.684 32.343 30.037 32.52 30.386 32.299 29.684 32.343"/><polygon class="i" points="32.786 32.769 33.668 32.52 32.786 32.768 32.786 32.769"/><polygon class="f" points="30.88 34.411 32.117 34.598 30.88 33.305 30.88 34.411"/><path class="i" d="M28.817,38.54c-.039-.007-.076-.014-.114-.023A1.1,1.1,0,0,0,28.817,38.54Z"/><polygon class="h" points="39.793 34.193 40.298 35.208 41.054 34.043 41.054 34.043 41.053 34.043 39.793 34.193"/><polygon class="g" points="29.331 36.136 30.84 35.178 29.964 34.579 29.622 35.42 29.331 36.136"/><polygon class="j" points="31.046 37.808 31.372 36.832 29.606 37.457 31.046 37.808"/><polygon class="i" points="37.242 30.145 38.026 30.251 37.816 29.896 37.242 30.145"/><polygon class="f" points="29.233 32.942 28.071 31.329 27.892 32.647 28.375 32.753 29.233 32.942"/><polygon class="j" points="30.788 30.679 31.939 29.978 31.046 29.978 30.788 30.679"/><path class="h" d="M39.738,38.552a2.046,2.046,0,0,0,.219-.027,2.124,2.124,0,0,0,.216-.053c.048-.014.1-.031.144-.049l.068-.028.067-.03c.07-.034.14-.071.209-.113.02-.012.04-.024.06-.038l.044-.029.041-.027.062-.046,0,0-.708.071Z"/><polygon class="h" points="36.065 34.598 36.639 34.598 36.137 33.61 36.065 34.598"/><polygon class="h" points="30.595 28.923 29.865 28.923 29.9 29.292 30.595 28.923"/><polygon class="h" points="31.882 31.055 33.418 31.386 31.939 29.978 31.882 31.055"/><polygon class="f" points="39.956 33.634 41.053 34.042 40.298 32.883 39.956 33.634"/><polygon class="i" points="29.637 30.063 29.637 30.063 29.637 30.062 29.448 29.483 28.948 30.152 29.929 30.96 29.637 30.063"/><polygon class="j" points="38.026 30.251 38.214 31.011 38.638 30.715 38.026 30.251"/><polygon class="g" points="37.273 30.96 36.535 31.757 38.214 31.757 37.273 30.96"/><polygon class="h" points="31.62 29.58 31.952 28.923 31.007 29.361 31.62 29.58"/><polygon class="g" points="36.137 33.61 36.639 34.598 36.723 33.305 36.137 33.61"/><polygon class="g" points="39.894 36.956 38.603 38.334 38.604 38.334 40.538 37.865 39.894 36.956"/><polygon class="h" points="33.668 32.52 33.418 31.386 32.965 32.349 33.668 32.52"/><polygon class="i" points="37.569 32.427 37.849 34.023 38.37 33.202 37.569 32.427"/><polygon class="g" points="31.939 29.978 31.62 29.58 31.046 29.978 31.939 29.978"/><polygon class="g" points="29.119 32.058 29.056 31.562 28.071 31.329 29.233 32.942 29.119 32.058"/><polygon class="i" points="38.891 31.668 39.697 31.516 40.685 31.329 39.511 30.805 38.891 31.668"/><polygon class="i" points="36.137 33.609 36.137 33.61 36.723 33.305 36.535 31.757 36.137 33.609"/><polygon class="i" points="32.517 33.504 33.071 34.598 33.309 33.332 32.517 33.504"/><polygon class="f" points="39.511 30.805 39.728 30.045 38.968 29.768 39.511 30.805"/><polygon class="f" points="38.604 38.334 40.165 38.179 40.873 38.108 40.538 37.865 38.604 38.334"/><polygon class="j" points="28.418 30.863 28.071 31.329 29.056 31.562 28.418 30.863"/><polygon class="i" points="33.418 31.386 32.257 29.434 31.939 29.978 33.418 31.386"/><polygon class="g" points="32.257 29.434 31.952 28.923 31.62 29.58 32.257 29.434"/><polygon class="g" points="29.9 29.292 29.637 30.062 29.637 30.063 29.637 30.063 30.627 29.537 29.9 29.292"/><polygon class="h" points="38.032 37.5 39.575 36.025 38.288 36.345 37.71 37.808 38.031 37.5 38.032 37.5"/><polygon class="i" points="33.97 33.291 34.482 34.598 35.447 33.875 33.97 33.291"/><polygon class="i" points="38.827 33.842 38.801 34.668 39.793 34.193 38.828 33.841 38.827 33.842"/><polygon class="i" points="40.298 32.883 39.489 32.584 39.956 33.634 40.298 32.883"/><polygon class="j" points="37.34 34.265 37.849 34.023 36.723 33.305 36.639 34.598 37.339 34.265 37.34 34.265"/><path class="i" d="M38.6,38.334a2.433,2.433,0,0,0,1.134.218l.427-.373Z"/><polygon class="i" points="37.4 36.878 37.71 37.808 38.288 36.345 37.4 36.878"/><path class="i" d="M28.642,38.5a1.862,1.862,0,0,1-.239-.08A1.719,1.719,0,0,0,28.642,38.5Z"/><polygon class="g" points="37.849 34.023 37.34 34.265 38.801 34.668 37.849 34.023"/><polygon class="i" points="30.205 36.469 31.372 36.832 31.654 35.987 31.208 36.136 30.205 36.469"/><polygon class="g" points="28.948 30.153 28.418 30.863 29.056 31.562 28.948 30.153"/><polygon class="g" points="41.053 34.042 40.831 32.403 40.298 32.883 41.053 34.042"/><polygon class="f" points="38.288 36.345 39.575 36.025 37.569 35.322 38.288 36.345"/><polygon class="j" points="29.387 34.185 28.917 34.794 29.964 34.579 29.387 34.185"/><polygon class="f" points="28.746 33.526 29.387 34.185 29.233 32.942 28.746 33.526"/><polygon class="h" points="30.205 36.469 31.208 36.136 30.741 35.69 30.204 36.469 30.205 36.469"/><polygon class="i" points="39.511 30.805 38.968 29.768 38.638 30.715 39.511 30.805"/><polygon class="i" points="32.468 32.858 32.786 32.769 32.786 32.768 32.468 32.858"/><polygon class="f" points="30.788 30.679 31.046 29.978 30.051 30.246 30.509 31.439 30.788 30.679 30.788 30.679"/><polygon class="h" points="39.894 36.956 41.349 36.217 39.575 36.025 39.894 36.956"/><polygon class="h" points="36.164 29.999 35.338 31.386 37.273 30.96 36.164 29.999"/><polygon class="h" points="33.071 34.598 34.482 34.598 33.309 33.332 33.071 34.598"/><polygon class="g" points="38.37 33.202 39.489 32.584 38.214 31.757 38.37 33.202"/><polygon class="g" points="30.965 34.542 30.964 34.542 30.421 34.341 30.841 35.177 30.965 34.542"/><polygon class="f" points="28.818 36.932 28.819 36.931 28.818 36.931 28.818 36.932"/><polygon class="f" points="31.007 29.361 30.627 29.537 31.62 29.58 31.007 29.361"/><polygon class="i" points="30.627 29.537 29.637 30.063 30.051 30.246 30.627 29.537"/><polygon class="i" points="30.15 31.737 29.667 31.659 29.056 31.562 29.684 32.343 30.15 31.737"/><polygon class="h" points="29.637 30.063 29.929 30.96 30.051 30.246 29.637 30.063"/><polygon class="i" points="31.312 28.923 30.595 28.923 30.627 29.537 31.312 28.923"/><polygon class="j" points="38.214 31.011 37.273 30.96 38.214 31.757 38.214 31.011"/><polygon class="g" points="28.746 33.526 27.892 32.647 27.683 34.185 29.387 34.185 28.746 33.526"/><path class="f" d="M28.17,38.311a1.151,1.151,0,0,0,.116.059c.039.019.078.036.117.052a1.862,1.862,0,0,0,.239.08l.061.015c.038.009.075.016.114.023l.072.011c.04,0,.08.009.121.011s.087.005.132.005.07,0,.105,0h.011c.036,0,.071,0,.106-.008a2.016,2.016,0,0,0,.229-.036q.052-.01.105-.024c.035-.009.07-.018.105-.029l-.2-1.008Z"/><polygon class="j" points="33.97 33.291 35.71 32.768 33.668 32.52 33.97 33.291"/><path class="f" d="M29.7,38.494q-.053.014-.105.024Q29.646,38.508,29.7,38.494Z"/><polygon class="j" points="30.965 34.542 30.841 35.177 30.841 35.178 30.741 35.69 32.008 34.926 30.964 34.542 30.965 34.542"/><polygon class="j" points="41.251 35.491 41.054 34.043 40.298 35.208 41.251 35.491"/><path class="f" d="M37.71,37.808a4.521,4.521,0,0,0,.892.525l-.571-.833Z"/><polygon class="j" points="30.088 33.13 29.233 32.942 30.327 33.63 30.088 33.13"/><polygon class="i" points="28.917 34.794 28.045 35.554 27.423 36.096 28.535 35.617 28.917 34.794"/><polygon class="h" points="38.968 29.768 38.026 30.251 38.638 30.715 38.968 29.768"/><polygon class="j" points="37.816 29.896 38.026 30.251 38.968 29.768 37.816 29.896"/><polygon class="g" points="38.026 30.251 37.242 30.145 37.241 30.145 36.164 29.999 38.214 31.011 38.026 30.251"/><polygon class="j" points="33.309 33.332 32.786 32.769 32.517 33.504 33.309 33.332"/><polygon class="j" points="40.298 32.883 40.831 32.403 39.489 32.584 40.298 32.883"/><polygon class="i" points="29.233 32.942 29.387 34.185 30.327 33.63 29.233 32.942"/><polygon class="f" points="40.538 37.865 41.518 37.457 39.894 36.956 40.538 37.865"/><path class="i" d="M39.957,38.525a2.046,2.046,0,0,1-.219.027A2.015,2.015,0,0,0,39.957,38.525Z"/><polygon class="i" points="35.275 34.598 36.065 34.598 36.137 33.61 35.275 34.598"/><polygon class="f" points="37.273 30.96 35.338 31.386 36.535 31.757 37.273 30.96"/><polygon class="f" points="37.679 28.923 36.804 28.923 37.426 29.52 37.679 28.923"/><polygon class="f" points="32.117 32.142 33.418 31.386 32.128 31.656 32.117 32.142"/><path class="i" d="M40.173,38.472a2.124,2.124,0,0,1-.216.053A1.659,1.659,0,0,0,40.173,38.472Z"/><polygon class="i" points="30.509 31.439 31.046 31.881 30.788 30.679 30.509 31.439"/><polygon class="j" points="27.423 36.096 27.238 37.457 28.817 36.932 27.423 36.096"/><polygon class="g" points="29.929 30.96 30.509 31.439 30.051 30.246 29.929 30.96"/><polygon class="i" points="36.639 34.598 37.4 36.878 37.569 35.322 36.639 34.598"/><polygon class="f" points="38.891 31.668 39.511 30.805 38.638 30.715 38.891 31.668"/><polygon class="i" points="39.728 30.045 38.891 28.923 38.968 29.768 39.728 30.045"/><polygon class="g" points="31.882 31.055 31.939 29.978 30.788 30.679 31.882 31.055"/><polygon class="g" points="39.793 34.193 41.053 34.043 41.053 34.042 39.956 33.634 39.793 34.193"/><polygon class="h" points="28.818 36.931 28.535 35.617 27.423 36.096 28.817 36.932 28.818 36.931"/><polygon class="j" points="39.489 32.584 39.697 31.516 38.891 31.668 38.214 31.757 39.489 32.584"/><polygon class="f" points="38.827 33.842 37.849 34.023 38.801 34.668 38.827 33.842"/><polygon class="f" points="37.569 32.427 38.37 33.202 38.214 31.757 37.569 32.427"/><polygon class="f" points="30.204 36.469 30.741 35.69 29.331 36.136 30.204 36.469"/><polygon class="f" points="37.339 34.265 36.639 34.598 37.569 35.322 37.339 34.265"/><polygon class="h" points="37.34 34.265 37.339 34.265 37.569 35.322 38.801 34.668 37.34 34.265"/><path class="g" d="M40.538,37.865l.335.243a3.522,3.522,0,0,0,.645-.651Z"/><polygon class="g" points="32.965 32.349 33.418 31.386 32.117 32.142 32.965 32.349"/><polygon class="j" points="38.214 31.757 36.535 31.757 36.723 33.305 37.569 32.427 38.214 31.757"/><polygon class="j" points="34.482 34.598 35.275 34.598 35.447 33.875 34.482 34.598"/><polygon class="i" points="29.331 36.136 30.741 35.69 30.841 35.178 30.84 35.178 29.331 36.136"/><polygon class="j" points="30.928 32.894 30.88 33.305 32.467 32.858 31.046 31.881 30.928 32.894"/><polygon class="g" points="28.917 34.794 28.535 35.617 29.622 35.42 28.917 34.794"/><polygon class="i" points="35.338 31.386 33.418 31.386 33.668 32.52 35.338 31.386"/><polygon class="i" points="32.117 32.142 31.046 31.881 32.467 32.858 32.468 32.858 32.786 32.768 33.668 32.52 32.965 32.349 32.117 32.142"/><path class="i" d="M28.4,38.422c-.039-.016-.078-.033-.117-.052A1.1,1.1,0,0,0,28.4,38.422Z"/><polygon class="g" points="29.865 28.923 29.449 29.481 29.9 29.292 29.865 28.923"/><polygon class="h" points="38.827 33.841 38.828 33.841 39.956 33.634 38.37 33.202 37.849 34.023 38.827 33.842 38.827 33.841"/><polygon class="j" points="36.804 28.923 36.569 29.318 37.241 30.145 36.804 28.923"/><polygon class="h" points="37.242 30.145 37.816 29.896 37.426 29.52 36.804 28.923 37.241 30.145 37.242 30.145"/><polygon class="h" points="31.046 29.978 30.627 29.537 30.051 30.246 31.046 29.978"/><polygon class="i" points="31.046 31.881 32.128 31.656 33.418 31.386 31.882 31.055 31.046 31.881"/><polygon class="f" points="39.793 34.193 39.575 36.025 40.298 35.208 39.793 34.193"/><polygon class="f" points="31.208 36.136 32.008 34.926 30.741 35.69 31.208 36.136"/><polygon class="h" points="28.375 32.753 28.746 33.526 29.233 32.942 28.375 32.753"/><polygon class="h" points="29.9 29.292 29.449 29.481 29.448 29.483 29.637 30.062 29.9 29.292"/><polygon class="k" points="41.054 34.043 41.053 34.042 41.053 34.043 41.054 34.043"/><polygon class="i" points="31.62 29.58 30.627 29.537 31.046 29.978 31.62 29.58"/><polygon class="f" points="29.387 34.185 27.683 34.185 28.917 34.794 29.387 34.185"/><polygon class="g" points="40.685 31.329 39.728 30.045 39.511 30.805 40.685 31.329"/><polygon class="f" points="40.831 32.403 40.685 31.329 39.697 31.516 40.831 32.403"/><polygon class="f" points="30.088 33.13 30.928 32.894 30.037 32.52 30.088 33.13"/><polygon class="i" points="39.575 36.025 41.251 35.491 40.298 35.208 39.575 36.025"/><polygon class="j" points="30.627 29.537 30.595 28.923 29.9 29.292 30.627 29.537"/><polygon class="g" points="32.786 32.769 32.468 32.858 32.467 32.858 30.88 33.305 32.117 34.598 32.517 33.504 32.786 32.769"/><polygon class="i" points="38.032 37.5 39.894 36.956 39.575 36.025 38.032 37.5"/><polygon class="h" points="29.964 34.579 28.917 34.794 29.622 35.42 29.964 34.579"/><polygon class="k" points="29.448 29.482 29.448 29.483 29.449 29.481 29.448 29.482"/><polygon class="g" points="41.349 36.217 41.251 35.491 39.575 36.025 41.349 36.217"/><polygon class="f" points="35.71 32.768 35.338 31.386 33.668 32.52 35.71 32.768"/><path class="f" d="M29.364,38.554c-.035,0-.07.007-.106.008A.945.945,0,0,0,29.364,38.554Z"/><polygon class="h" points="35.447 33.875 35.71 32.768 33.97 33.291 35.447 33.875"/><polygon class="i" points="28.535 35.617 28.818 36.931 28.819 36.931 29.331 36.136 28.535 35.617"/><polygon class="i" points="37.569 35.322 39.575 36.025 38.801 34.668 37.569 35.322"/><polygon class="j" points="32.128 31.656 31.046 31.881 32.117 32.142 32.128 31.656"/><polygon class="f" points="32.117 34.598 33.071 34.598 32.517 33.504 32.117 34.598"/><polygon class="j" points="29.387 34.185 30.421 34.341 30.88 34.411 30.88 33.305 30.327 33.63 29.387 34.185"/><polygon class="h" points="36.723 33.305 37.849 34.023 37.569 32.427 36.723 33.305"/><polygon class="j" points="39.793 34.193 39.956 33.634 38.828 33.841 39.793 34.193"/><polygon class="j" points="38.032 37.5 38.031 37.5 38.602 38.333 38.603 38.334 39.894 36.956 38.032 37.5"/><polygon class="i" points="28.375 32.753 27.892 32.647 28.746 33.526 28.375 32.753"/><polygon class="h" points="30.088 33.13 30.88 33.305 30.928 32.894 30.088 33.13"/><path class="h" d="M40.765,38.185l-.044.029Z"/><polygon class="j" points="31.007 29.361 31.952 28.923 31.312 28.923 30.627 29.537 31.007 29.361"/><polygon class="i" points="29.964 34.579 30.84 35.178 30.841 35.178 30.841 35.177 30.421 34.341 29.387 34.185 29.964 34.579"/><polygon class="h" points="28.917 34.794 27.683 34.185 27.683 34.187 28.045 35.554 28.917 34.794"/><polygon class="g" points="30.386 32.299 30.15 31.737 29.684 32.343 30.386 32.299"/><polygon class="h" points="38.638 30.715 38.214 31.011 38.891 31.668 38.638 30.715"/><polygon class="h" points="30.037 32.52 29.233 32.942 30.088 33.13 30.037 32.52"/><polygon class="i" points="30.421 34.341 30.964 34.542 32.008 34.926 32.117 34.598 30.88 34.411 30.421 34.341"/><polygon class="j" points="37.816 29.896 37.679 28.923 37.426 29.52 37.816 29.896"/><polygon class="g" points="31.654 35.987 32.008 34.926 31.208 36.136 31.654 35.987"/><path class="h" d="M29.8,38.465a3.684,3.684,0,0,0,1.243-.657l-1.44-.351Z"/><polygon class="g" points="38.891 28.923 37.679 28.923 38.309 29.285 38.891 28.923"/><polygon class="j" points="29.667 31.659 28.948 30.153 29.056 31.562 29.667 31.659"/><polygon class="f" points="38.968 29.768 38.891 28.923 38.309 29.285 38.968 29.768"/><polygon class="h" points="28.819 36.931 30.204 36.469 29.331 36.136 28.819 36.931"/><polygon class="f" points="30.204 36.469 28.819 36.931 28.818 36.932 28.817 36.932 27.238 37.457 29.606 37.457 30.204 36.469"/><polygon class="f" points="28.817 36.932 28.818 36.932 28.818 36.931 28.817 36.932"/><polygon class="f" points="29.622 35.42 28.535 35.617 29.331 36.136 29.622 35.42"/><g class="l"><polygon class="m" points="30.327 33.63 30.88 33.305 30.088 33.13 30.327 33.63"/><polygon class="m" points="38.801 34.668 39.575 36.025 39.793 34.193 38.801 34.668"/><polygon class="m" points="37.569 35.322 37.4 36.878 38.288 36.345 37.569 35.322"/><polygon class="m" points="29.056 31.562 29.119 32.058 29.684 32.343 29.056 31.562"/><polygon class="m" points="33.668 32.52 32.786 32.769 33.309 33.332 34.482 34.598 33.97 33.291 33.668 32.52"/><polygon class="m" points="31.046 31.881 30.15 31.737 30.386 32.299 31.046 31.881"/><polygon class="m" points="31.939 29.978 32.257 29.434 31.62 29.58 31.939 29.978"/><polygon class="m" points="39.489 32.584 40.831 32.403 39.697 31.516 39.489 32.584"/><polygon class="m" points="30.15 31.737 31.046 31.881 30.509 31.439 29.929 30.96 28.948 30.152 28.948 30.153 29.667 31.659 30.15 31.737"/><path class="m" d="M29.593,38.518a2.016,2.016,0,0,1-.229.036A1.844,1.844,0,0,0,29.593,38.518Z"/><polygon class="m" points="38.891 31.668 38.214 31.011 38.214 31.757 38.891 31.668"/><polygon class="m" points="36.569 29.318 36.164 29.999 37.241 30.145 36.569 29.318"/><polygon class="m" points="38.214 31.011 36.164 29.999 37.273 30.96 38.214 31.011"/><polygon class="m" points="35.71 32.768 36.137 33.609 36.535 31.757 35.71 32.768"/><path class="m" d="M27.238,37.457a3.033,3.033,0,0,0,.932.854l1.436-.854Z"/><polygon class="m" points="30.037 32.52 30.928 32.894 31.046 31.881 30.386 32.299 30.037 32.52"/><polygon class="m" points="38.827 33.841 38.827 33.842 38.828 33.841 38.827 33.841"/><polygon class="m" points="27.683 34.187 27.423 36.096 28.045 35.554 27.683 34.187"/><polygon class="m" points="30.788 30.679 30.788 30.679 31.046 31.881 31.882 31.055 30.788 30.679"/><polygon class="m" points="36.137 33.609 35.71 32.768 35.447 33.875 35.275 34.598 36.137 33.61 36.137 33.609"/><polygon class="m" points="29.684 32.343 29.119 32.058 29.233 32.942 30.037 32.52 29.684 32.343"/><polygon class="m" points="30.204 36.469 29.606 37.457 31.372 36.832 30.205 36.469 30.204 36.469"/><polygon class="m" points="36.535 31.757 35.338 31.386 35.71 32.768 36.535 31.757"/><polygon class="m" points="41.518 37.457 41.349 36.217 39.894 36.956 41.518 37.457"/><polygon class="m" points="39.956 33.634 39.489 32.584 38.37 33.202 39.956 33.634"/><polygon class="m" points="38.309 29.285 37.816 29.896 38.968 29.768 38.309 29.285"/><polygon class="m" points="38.309 29.285 37.679 28.923 37.816 29.896 38.309 29.285"/><polygon class="m" points="29.684 32.343 30.037 32.52 30.386 32.299 29.684 32.343"/><polygon class="m" points="32.786 32.769 33.668 32.52 32.786 32.768 32.786 32.769"/><polygon class="m" points="30.88 34.411 32.117 34.598 30.88 33.305 30.88 34.411"/><path class="m" d="M28.817,38.54c-.039-.007-.076-.014-.114-.023A1.1,1.1,0,0,0,28.817,38.54Z"/><polygon class="m" points="39.793 34.193 40.298 35.208 41.054 34.043 41.054 34.043 41.053 34.043 39.793 34.193"/><polygon class="m" points="29.331 36.136 30.84 35.178 29.964 34.579 29.622 35.42 29.331 36.136"/><polygon class="m" points="31.046 37.808 31.372 36.832 29.606 37.457 31.046 37.808"/><polygon class="m" points="37.242 30.145 38.026 30.251 37.816 29.896 37.242 30.145"/><polygon class="m" points="29.233 32.942 28.071 31.329 27.892 32.647 28.375 32.753 29.233 32.942"/><polygon class="m" points="30.788 30.679 31.939 29.978 31.046 29.978 30.788 30.679"/><path class="m" d="M39.738,38.552a2.046,2.046,0,0,0,.219-.027,2.124,2.124,0,0,0,.216-.053c.048-.014.1-.031.144-.049l.068-.028.067-.03c.07-.034.14-.071.209-.113.02-.012.04-.024.06-.038l.044-.029.041-.027.062-.046,0,0-.708.071Z"/><polygon class="m" points="36.065 34.598 36.639 34.598 36.137 33.61 36.065 34.598"/><polygon class="m" points="30.595 28.923 29.865 28.923 29.9 29.292 30.595 28.923"/><polygon class="m" points="31.882 31.055 33.418 31.386 31.939 29.978 31.882 31.055"/><polygon class="m" points="39.956 33.634 41.053 34.042 40.298 32.883 39.956 33.634"/><polygon class="m" points="29.637 30.063 29.637 30.063 29.637 30.062 29.448 29.483 28.948 30.152 29.929 30.96 29.637 30.063"/><polygon class="m" points="38.026 30.251 38.214 31.011 38.638 30.715 38.026 30.251"/><polygon class="m" points="37.273 30.96 36.535 31.757 38.214 31.757 37.273 30.96"/><polygon class="m" points="31.62 29.58 31.952 28.923 31.007 29.361 31.62 29.58"/><polygon class="m" points="36.137 33.61 36.639 34.598 36.723 33.305 36.137 33.61"/><polygon class="m" points="39.894 36.956 38.603 38.334 38.604 38.334 40.538 37.865 39.894 36.956"/><polygon class="m" points="33.668 32.52 33.418 31.386 32.965 32.349 33.668 32.52"/><polygon class="m" points="37.569 32.427 37.849 34.023 38.37 33.202 37.569 32.427"/><polygon class="m" points="31.939 29.978 31.62 29.58 31.046 29.978 31.939 29.978"/><polygon class="m" points="29.119 32.058 29.056 31.562 28.071 31.329 29.233 32.942 29.119 32.058"/><polygon class="m" points="38.891 31.668 39.697 31.516 40.685 31.329 39.511 30.805 38.891 31.668"/><polygon class="m" points="36.137 33.609 36.137 33.61 36.723 33.305 36.535 31.757 36.137 33.609"/><polygon class="m" points="32.517 33.504 33.071 34.598 33.309 33.332 32.517 33.504"/><polygon class="m" points="39.511 30.805 39.728 30.045 38.968 29.768 39.511 30.805"/><polygon class="m" points="38.604 38.334 40.165 38.179 40.873 38.108 40.538 37.865 38.604 38.334"/><polygon class="m" points="28.418 30.863 28.071 31.329 29.056 31.562 28.418 30.863"/><polygon class="m" points="33.418 31.386 32.257 29.434 31.939 29.978 33.418 31.386"/><polygon class="m" points="32.257 29.434 31.952 28.923 31.62 29.58 32.257 29.434"/><polygon class="m" points="29.9 29.292 29.637 30.062 29.637 30.063 29.637 30.063 30.627 29.537 29.9 29.292"/><polygon class="m" points="38.032 37.5 39.575 36.025 38.288 36.345 37.71 37.808 38.031 37.5 38.032 37.5"/><polygon class="m" points="33.97 33.291 34.482 34.598 35.447 33.875 33.97 33.291"/><polygon class="m" points="38.827 33.842 38.801 34.668 39.793 34.193 38.828 33.841 38.827 33.842"/><polygon class="m" points="40.298 32.883 39.489 32.584 39.956 33.634 40.298 32.883"/><polygon class="m" points="37.34 34.265 37.849 34.023 36.723 33.305 36.639 34.598 37.339 34.265 37.34 34.265"/><path class="m" d="M38.6,38.334a2.433,2.433,0,0,0,1.134.218l.427-.373Z"/><polygon class="m" points="37.4 36.878 37.71 37.808 38.288 36.345 37.4 36.878"/><path class="m" d="M28.642,38.5a1.862,1.862,0,0,1-.239-.08A1.719,1.719,0,0,0,28.642,38.5Z"/><polygon class="m" points="37.849 34.023 37.34 34.265 38.801 34.668 37.849 34.023"/><polygon class="m" points="30.205 36.469 31.372 36.832 31.654 35.987 31.208 36.136 30.205 36.469"/><polygon class="m" points="28.948 30.153 28.418 30.863 29.056 31.562 28.948 30.153"/><polygon class="m" points="41.053 34.042 40.831 32.403 40.298 32.883 41.053 34.042"/><polygon class="m" points="38.288 36.345 39.575 36.025 37.569 35.322 38.288 36.345"/><polygon class="m" points="29.387 34.185 28.917 34.794 29.964 34.579 29.387 34.185"/><polygon class="m" points="28.746 33.526 29.387 34.185 29.233 32.942 28.746 33.526"/><polygon class="m" points="30.205 36.469 31.208 36.136 30.741 35.69 30.204 36.469 30.205 36.469"/><polygon class="m" points="39.511 30.805 38.968 29.768 38.638 30.715 39.511 30.805"/><polygon class="m" points="32.468 32.858 32.786 32.769 32.786 32.768 32.468 32.858"/><polygon class="m" points="30.788 30.679 31.046 29.978 30.051 30.246 30.509 31.439 30.788 30.679 30.788 30.679"/><polygon class="m" points="39.894 36.956 41.349 36.217 39.575 36.025 39.894 36.956"/><polygon class="m" points="36.164 29.999 35.338 31.386 37.273 30.96 36.164 29.999"/><polygon class="m" points="33.071 34.598 34.482 34.598 33.309 33.332 33.071 34.598"/><polygon class="m" points="38.37 33.202 39.489 32.584 38.214 31.757 38.37 33.202"/><polygon class="m" points="30.965 34.542 30.964 34.542 30.421 34.341 30.841 35.177 30.965 34.542"/><polygon class="m" points="28.818 36.932 28.819 36.931 28.818 36.931 28.818 36.932"/><polygon class="m" points="31.007 29.361 30.627 29.537 31.62 29.58 31.007 29.361"/><polygon class="m" points="30.627 29.537 29.637 30.063 30.051 30.246 30.627 29.537"/><polygon class="m" points="30.15 31.737 29.667 31.659 29.056 31.562 29.684 32.343 30.15 31.737"/><polygon class="m" points="29.637 30.063 29.929 30.96 30.051 30.246 29.637 30.063"/><polygon class="m" points="31.312 28.923 30.595 28.923 30.627 29.537 31.312 28.923"/><polygon class="m" points="38.214 31.011 37.273 30.96 38.214 31.757 38.214 31.011"/><polygon class="m" points="28.746 33.526 27.892 32.647 27.683 34.185 29.387 34.185 28.746 33.526"/><path class="m" d="M28.17,38.311a1.151,1.151,0,0,0,.116.059c.039.019.078.036.117.052a1.862,1.862,0,0,0,.239.08l.061.015c.038.009.075.016.114.023l.072.011c.04,0,.08.009.121.011s.087.005.132.005.07,0,.105,0h.011c.036,0,.071,0,.106-.008a2.016,2.016,0,0,0,.229-.036q.052-.01.105-.024c.035-.009.07-.018.105-.029l-.2-1.008Z"/><polygon class="m" points="33.97 33.291 35.71 32.768 33.668 32.52 33.97 33.291"/><path class="m" d="M29.7,38.494q-.053.014-.105.024Q29.646,38.508,29.7,38.494Z"/><polygon class="m" points="30.965 34.542 30.841 35.177 30.841 35.178 30.741 35.69 32.008 34.926 30.964 34.542 30.965 34.542"/><polygon class="m" points="41.251 35.491 41.054 34.043 40.298 35.208 41.251 35.491"/><path class="m" d="M37.71,37.808a4.521,4.521,0,0,0,.892.525l-.571-.833Z"/><polygon class="m" points="30.088 33.13 29.233 32.942 30.327 33.63 30.088 33.13"/><polygon class="m" points="28.917 34.794 28.045 35.554 27.423 36.096 28.535 35.617 28.917 34.794"/><polygon class="m" points="38.968 29.768 38.026 30.251 38.638 30.715 38.968 29.768"/><polygon class="m" points="37.816 29.896 38.026 30.251 38.968 29.768 37.816 29.896"/><polygon class="m" points="38.026 30.251 37.242 30.145 37.241 30.145 36.164 29.999 38.214 31.011 38.026 30.251"/><polygon class="m" points="33.309 33.332 32.786 32.769 32.517 33.504 33.309 33.332"/><polygon class="m" points="40.298 32.883 40.831 32.403 39.489 32.584 40.298 32.883"/><polygon class="m" points="29.233 32.942 29.387 34.185 30.327 33.63 29.233 32.942"/><polygon class="m" points="40.538 37.865 41.518 37.457 39.894 36.956 40.538 37.865"/><path class="m" d="M39.957,38.525a2.046,2.046,0,0,1-.219.027A2.015,2.015,0,0,0,39.957,38.525Z"/><polygon class="m" points="35.275 34.598 36.065 34.598 36.137 33.61 35.275 34.598"/><polygon class="m" points="37.273 30.96 35.338 31.386 36.535 31.757 37.273 30.96"/><polygon class="m" points="37.679 28.923 36.804 28.923 37.426 29.52 37.679 28.923"/><polygon class="m" points="32.117 32.142 33.418 31.386 32.128 31.656 32.117 32.142"/><path class="m" d="M40.173,38.472a2.124,2.124,0,0,1-.216.053A1.659,1.659,0,0,0,40.173,38.472Z"/><polygon class="m" points="30.509 31.439 31.046 31.881 30.788 30.679 30.509 31.439"/><polygon class="m" points="27.423 36.096 27.238 37.457 28.817 36.932 27.423 36.096"/><polygon class="m" points="29.929 30.96 30.509 31.439 30.051 30.246 29.929 30.96"/><polygon class="m" points="36.639 34.598 37.4 36.878 37.569 35.322 36.639 34.598"/><polygon class="m" points="38.891 31.668 39.511 30.805 38.638 30.715 38.891 31.668"/><polygon class="m" points="39.728 30.045 38.891 28.923 38.968 29.768 39.728 30.045"/><polygon class="m" points="31.882 31.055 31.939 29.978 30.788 30.679 31.882 31.055"/><polygon class="m" points="39.793 34.193 41.053 34.043 41.053 34.042 39.956 33.634 39.793 34.193"/><polygon class="m" points="28.818 36.931 28.535 35.617 27.423 36.096 28.817 36.932 28.818 36.931"/><polygon class="m" points="39.489 32.584 39.697 31.516 38.891 31.668 38.214 31.757 39.489 32.584"/><polygon class="m" points="38.827 33.842 37.849 34.023 38.801 34.668 38.827 33.842"/><polygon class="m" points="37.569 32.427 38.37 33.202 38.214 31.757 37.569 32.427"/><polygon class="m" points="30.204 36.469 30.741 35.69 29.331 36.136 30.204 36.469"/><polygon class="m" points="37.339 34.265 36.639 34.598 37.569 35.322 37.339 34.265"/><polygon class="m" points="37.34 34.265 37.339 34.265 37.569 35.322 38.801 34.668 37.34 34.265"/><path class="m" d="M40.538,37.865l.335.243a3.522,3.522,0,0,0,.645-.651Z"/><polygon class="m" points="32.965 32.349 33.418 31.386 32.117 32.142 32.965 32.349"/><polygon class="m" points="38.214 31.757 36.535 31.757 36.723 33.305 37.569 32.427 38.214 31.757"/><polygon class="m" points="34.482 34.598 35.275 34.598 35.447 33.875 34.482 34.598"/><polygon class="m" points="29.331 36.136 30.741 35.69 30.841 35.178 30.84 35.178 29.331 36.136"/><polygon class="m" points="30.928 32.894 30.88 33.305 32.467 32.858 31.046 31.881 30.928 32.894"/><polygon class="m" points="28.917 34.794 28.535 35.617 29.622 35.42 28.917 34.794"/><polygon class="m" points="35.338 31.386 33.418 31.386 33.668 32.52 35.338 31.386"/><polygon class="m" points="32.117 32.142 31.046 31.881 32.467 32.858 32.468 32.858 32.786 32.768 33.668 32.52 32.965 32.349 32.117 32.142"/><path class="m" d="M28.4,38.422c-.039-.016-.078-.033-.117-.052A1.1,1.1,0,0,0,28.4,38.422Z"/><polygon class="m" points="29.865 28.923 29.449 29.481 29.9 29.292 29.865 28.923"/><polygon class="m" points="38.827 33.841 38.828 33.841 39.956 33.634 38.37 33.202 37.849 34.023 38.827 33.842 38.827 33.841"/><polygon class="m" points="36.804 28.923 36.569 29.318 37.241 30.145 36.804 28.923"/><polygon class="m" points="37.242 30.145 37.816 29.896 37.426 29.52 36.804 28.923 37.241 30.145 37.242 30.145"/><polygon class="m" points="31.046 29.978 30.627 29.537 30.051 30.246 31.046 29.978"/><polygon class="m" points="31.046 31.881 32.128 31.656 33.418 31.386 31.882 31.055 31.046 31.881"/><polygon class="m" points="39.793 34.193 39.575 36.025 40.298 35.208 39.793 34.193"/><polygon class="m" points="31.208 36.136 32.008 34.926 30.741 35.69 31.208 36.136"/><polygon class="m" points="28.375 32.753 28.746 33.526 29.233 32.942 28.375 32.753"/><polygon class="m" points="29.9 29.292 29.449 29.481 29.448 29.483 29.637 30.062 29.9 29.292"/><polygon class="m" points="41.054 34.043 41.053 34.042 41.053 34.043 41.054 34.043"/><polygon class="m" points="31.62 29.58 30.627 29.537 31.046 29.978 31.62 29.58"/><polygon class="m" points="29.387 34.185 27.683 34.185 28.917 34.794 29.387 34.185"/><polygon class="m" points="40.685 31.329 39.728 30.045 39.511 30.805 40.685 31.329"/><polygon class="m" points="40.831 32.403 40.685 31.329 39.697 31.516 40.831 32.403"/><polygon class="m" points="30.088 33.13 30.928 32.894 30.037 32.52 30.088 33.13"/><polygon class="m" points="39.575 36.025 41.251 35.491 40.298 35.208 39.575 36.025"/><polygon class="m" points="30.627 29.537 30.595 28.923 29.9 29.292 30.627 29.537"/><polygon class="m" points="32.786 32.769 32.468 32.858 32.467 32.858 30.88 33.305 32.117 34.598 32.517 33.504 32.786 32.769"/><polygon class="m" points="38.032 37.5 39.894 36.956 39.575 36.025 38.032 37.5"/><polygon class="m" points="29.964 34.579 28.917 34.794 29.622 35.42 29.964 34.579"/><polygon class="m" points="29.448 29.482 29.448 29.483 29.449 29.481 29.448 29.482"/><polygon class="m" points="41.349 36.217 41.251 35.491 39.575 36.025 41.349 36.217"/><polygon class="m" points="35.71 32.768 35.338 31.386 33.668 32.52 35.71 32.768"/><path class="m" d="M29.364,38.554c-.035,0-.07.007-.106.008A.945.945,0,0,0,29.364,38.554Z"/><polygon class="m" points="35.447 33.875 35.71 32.768 33.97 33.291 35.447 33.875"/><polygon class="m" points="28.535 35.617 28.818 36.931 28.819 36.931 29.331 36.136 28.535 35.617"/><polygon class="m" points="37.569 35.322 39.575 36.025 38.801 34.668 37.569 35.322"/><polygon class="m" points="32.128 31.656 31.046 31.881 32.117 32.142 32.128 31.656"/><polygon class="m" points="32.117 34.598 33.071 34.598 32.517 33.504 32.117 34.598"/><polygon class="m" points="29.387 34.185 30.421 34.341 30.88 34.411 30.88 33.305 30.327 33.63 29.387 34.185"/><polygon class="m" points="36.723 33.305 37.849 34.023 37.569 32.427 36.723 33.305"/><polygon class="m" points="39.793 34.193 39.956 33.634 38.828 33.841 39.793 34.193"/><polygon class="m" points="38.032 37.5 38.031 37.5 38.602 38.333 38.603 38.334 39.894 36.956 38.032 37.5"/><polygon class="m" points="28.375 32.753 27.892 32.647 28.746 33.526 28.375 32.753"/><polygon class="m" points="30.088 33.13 30.88 33.305 30.928 32.894 30.088 33.13"/><path class="m" d="M40.765,38.185l-.044.029Z"/><polygon class="m" points="31.007 29.361 31.952 28.923 31.312 28.923 30.627 29.537 31.007 29.361"/><polygon class="m" points="29.964 34.579 30.84 35.178 30.841 35.178 30.841 35.177 30.421 34.341 29.387 34.185 29.964 34.579"/><polygon class="m" points="28.917 34.794 27.683 34.185 27.683 34.187 28.045 35.554 28.917 34.794"/><polygon class="m" points="30.386 32.299 30.15 31.737 29.684 32.343 30.386 32.299"/><polygon class="m" points="38.638 30.715 38.214 31.011 38.891 31.668 38.638 30.715"/><polygon class="m" points="30.037 32.52 29.233 32.942 30.088 33.13 30.037 32.52"/><polygon class="m" points="30.421 34.341 30.964 34.542 32.008 34.926 32.117 34.598 30.88 34.411 30.421 34.341"/><polygon class="m" points="37.816 29.896 37.679 28.923 37.426 29.52 37.816 29.896"/><polygon class="m" points="31.654 35.987 32.008 34.926 31.208 36.136 31.654 35.987"/><path class="m" d="M29.8,38.465a3.684,3.684,0,0,0,1.243-.657l-1.44-.351Z"/><polygon class="m" points="38.891 28.923 37.679 28.923 38.309 29.285 38.891 28.923"/><polygon class="m" points="29.667 31.659 28.948 30.153 29.056 31.562 29.667 31.659"/><polygon class="m" points="38.968 29.768 38.891 28.923 38.309 29.285 38.968 29.768"/><polygon class="m" points="28.819 36.931 30.204 36.469 29.331 36.136 28.819 36.931"/><polygon class="m" points="30.204 36.469 28.819 36.931 28.818 36.932 28.817 36.932 27.238 37.457 29.606 37.457 30.204 36.469"/><polygon class="m" points="28.817 36.932 28.818 36.932 28.818 36.931 28.817 36.932"/><polygon class="m" points="29.622 35.42 28.535 35.617 29.331 36.136 29.622 35.42"/></g></g></svg>